<svg xmlns="http://www.w3.org/2000/svg" viewBox="0 0 237.44 149.96"><defs><style>.cls-1{fill:#b3b3b3;}.cls-2{fill:none;stroke:#000;stroke-miterlimit:10;}.cls-3{opacity:0.51;}</style></defs><title>Asset 1</title><g id="Layer_2" data-name="Layer 2"><g id="Layer_1-2" data-name="Layer 1"><rect class="cls-1" x="10.18" width="13.5" height="122"/><rect class="cls-2" x="17.78" y="0.5" width="19" height="121" transform="translate(54.55 122) rotate(180)"/><path d="M29.2,49.44a5.73,5.73,0,0,1-2.42-2.5A8.76,8.76,0,0,1,26,43V26.63h4.21V43.1a3.12,3.12,0,0,0,.75,2.23,2.71,2.71,0,0,0,2.1.8,2.78,2.78,0,0,0,2.13-.8,3.12,3.12,0,0,0,.76-2.23V26.63h4.2V43a8.62,8.62,0,0,1-.84,3.95,5.75,5.75,0,0,1-2.43,2.5A7.87,7.87,0,0,1,33,50.3,7.83,7.83,0,0,1,29.2,49.44Zm-1.54-28.9h4.18v4.18H27.66Zm6.51,0h4.19v4.18H34.17Z"/><path d="M43.76,33.34h4l4.39,14.51-2.37,3.82Zm13.6,0L51.4,54a4.5,4.5,0,0,1-.94,1.75,3.45,3.45,0,0,1-1.55,1,7.57,7.57,0,0,1-2.28.31H45.5V52.91h1.16a2.1,2.1,0,0,0,1.21-.3,1.92,1.92,0,0,0,.64-1.11L53.4,33.34Z"/><path d="M64.82,50.3l-1.44-.75a5.2,5.2,0,0,1-2.22-2.16,7.08,7.08,0,0,1-.77-3.4V39.7a8,8,0,0,1,.74-3.58,5.22,5.22,0,0,1,2.15-2.26,6.84,6.84,0,0,1,3.38-.78,6.09,6.09,0,0,1,3.3.85,5.37,5.37,0,0,1,2.09,2.49,9.8,9.8,0,0,1,.72,4v2.95H63.45v-3h5.37v-1.2a2.27,2.27,0,0,0-.61-1.68,2.08,2.08,0,0,0-1.55-.62,2.12,2.12,0,0,0-1.69.7,2.9,2.9,0,0,0-.61,2v4.55A2.62,2.62,0,0,0,65,46a2.37,2.37,0,0,0,1.78.65,2.31,2.31,0,0,0,1.44-.44A2.5,2.5,0,0,0,69,44.89l3.53,1.34a5,5,0,0,1-1.94,3.05,6.42,6.42,0,0,1-3.76,1Z"/><path d="M81.78,44.76a1.22,1.22,0,0,0,.31.9A1.15,1.15,0,0,0,83,46h.63v4.07H81.74a4,4,0,0,1-3.06-1.16,4.57,4.57,0,0,1-1.09-3.27v-19h4.19Z"/><path d="M87.34,26.63h4.2v4.18h-4.2Zm0,6.71h4.2V50.06h-4.2Z"/><path d="M96.49,26.63h4.17V50.06H96.49Zm2.32,16.75,6.4-10h4.36L99.18,48.56Zm3.08-1.84L105,39.11l5.37,11h-4.66Z"/><path d="M26.16,66.23h4.19V89.66H26.16Zm5.39,22.92A4.33,4.33,0,0,1,30.13,87L30.35,84a2.61,2.61,0,0,0,.22,1.14,1.55,1.55,0,0,0,.65.71,2.12,2.12,0,0,0,1,.24,1.7,1.7,0,0,0,1.42-.63,2.71,2.71,0,0,0,.5-1.77V78.92a2.76,2.76,0,0,0-.5-1.77,1.7,1.7,0,0,0-1.42-.64,2,2,0,0,0-1,.25,1.55,1.55,0,0,0-.65.71,2.67,2.67,0,0,0-.22,1.14L30,75.72a5.9,5.9,0,0,1,1.63-2.25,3.43,3.43,0,0,1,2.21-.81,4,4,0,0,1,3.95,2.73,8.86,8.86,0,0,1,.53,3.24v5.31a8.88,8.88,0,0,1-.53,3.23,4.31,4.31,0,0,1-1.55,2,4.16,4.16,0,0,1-2.43.7A3.58,3.58,0,0,1,31.55,89.15Z"/><path d="M43.85,88.65a5.34,5.34,0,0,1-1.15-3.73A5,5,0,0,1,44.15,81a6.09,6.09,0,0,1,4.3-1.34h2.71L51.38,83H48.56a2.06,2.06,0,0,0-1.49.49,2,2,0,0,0-.5,1.47A1.44,1.44,0,0,0,47,86.09a2.21,2.21,0,0,0,1.4.38,3.62,3.62,0,0,0,2-.43,1.47,1.47,0,0,0,.66-1.31l.31,1.92a3.26,3.26,0,0,1-.62,1.79,3.45,3.45,0,0,1-1.45,1.09,5.18,5.18,0,0,1-2,.37A4.42,4.42,0,0,1,43.85,88.65Zm7.21-10.3A1.76,1.76,0,0,0,50.5,77a2.36,2.36,0,0,0-1.6-.49,2.93,2.93,0,0,0-1.38.33,2.58,2.58,0,0,0-1,.94L43.28,76.4a4.75,4.75,0,0,1,2-2.75,6.51,6.51,0,0,1,3.69-1,7.27,7.27,0,0,1,3.23.67,4.75,4.75,0,0,1,2.06,1.93,6.06,6.06,0,0,1,.7,3V89.66H51.06Z"/><path d="M63.65,89.9l-1.34-.47A5.76,5.76,0,0,1,60.08,88a5.08,5.08,0,0,1-1.25-2.2l3.4-1.75a3.71,3.71,0,0,0,1.38,1.45,3.75,3.75,0,0,0,2,.53,2.77,2.77,0,0,0,1.56-.38,1.14,1.14,0,0,0,.57-1,1.16,1.16,0,0,0-.35-.9,2.42,2.42,0,0,0-.85-.48c-.34-.11-.83-.24-1.46-.38l-.41-.1-.46-.11-.11,0-.12,0a12.48,12.48,0,0,1-2.34-.79A3.85,3.85,0,0,1,60,80.45a4.75,4.75,0,0,1-.64-2.61,5.29,5.29,0,0,1,.7-2.76,4.59,4.59,0,0,1,2-1.78,7.42,7.42,0,0,1,3.14-.62,7.78,7.78,0,0,1,2.77.46,5.26,5.26,0,0,1,2,1.32,4.93,4.93,0,0,1,1.2,2.1L67.9,78.24A3.32,3.32,0,0,0,66.79,77a2.79,2.79,0,0,0-1.56-.45,2.72,2.72,0,0,0-1.46.33,1,1,0,0,0-.53.93,1.06,1.06,0,0,0,.37.83,2.51,2.51,0,0,0,.92.49,13.86,13.86,0,0,0,1.57.37l.13,0h.14a.09.09,0,0,0,.06,0l.07,0a15.94,15.94,0,0,1,2.61.75,3.79,3.79,0,0,1,1.72,1.43,5,5,0,0,1,.71,2.88,5.15,5.15,0,0,1-.74,2.81,4.77,4.77,0,0,1-2.16,1.83,7.87,7.87,0,0,1-3.3.64Zm-1.23,6.27.7-2.51a5,5,0,0,0,1.48.22,2.07,2.07,0,0,0,.88-.14.48.48,0,0,0,.31-.45c0-.23-.17-.4-.52-.53a4.89,4.89,0,0,0-1.53-.18l1.61-2a4.88,4.88,0,0,1,2.91.74,2.51,2.51,0,0,1,1,2.16,2.46,2.46,0,0,1-1.09,2.19,5.66,5.66,0,0,1-3.18.74A9.66,9.66,0,0,1,62.42,96.17Zm1.19-8h3.24v4.38H63.61Z"/><path d="M84.31,72.94h4.14L83.13,89.66H80L74.69,72.94h4.12l2.76,10.78Z"/><path d="M96.41,84.26a1.91,1.91,0,0,0,.48,1.41,1.86,1.86,0,0,0,1.42.48,1.76,1.76,0,0,0,1.39-.5,2.07,2.07,0,0,0,.48-1.47l.23,2.63a4.92,4.92,0,0,1-1.35,2.26,3.2,3.2,0,0,1-2.25.83,4.18,4.18,0,0,1-3.41-1.41,6.45,6.45,0,0,1-1.16-4.15V72.94h4.17Zm3.77-11.32h4.16V89.66h-4.16Z"/><path d="M109.58,72.94h4.35V89.66h-4.35Zm8.07,4a4.15,4.15,0,0,0-.82-.08,2.75,2.75,0,0,0-2.14.85,3.43,3.43,0,0,0-.76,2.37l-.34-4.27a6.06,6.06,0,0,1,1.83-2.34,3.92,3.92,0,0,1,2.45-.85,2.63,2.63,0,0,1,.95.17,2.13,2.13,0,0,1,.73.49l-1.27,3.92A2,2,0,0,0,117.65,77Z"/><path d="M127.4,84.26a1.91,1.91,0,0,0,.48,1.41,1.86,1.86,0,0,0,1.42.48,1.76,1.76,0,0,0,1.39-.5,2.07,2.07,0,0,0,.48-1.47l.23,2.63a4.92,4.92,0,0,1-1.35,2.26,3.2,3.2,0,0,1-2.25.83,4.18,4.18,0,0,1-3.41-1.41,6.45,6.45,0,0,1-1.16-4.15V72.94h4.17Zm3.77-11.32h4.16V89.66h-4.16Z"/><path d="M144,89.9l-1.34-.47A5.83,5.83,0,0,1,140.46,88a5.08,5.08,0,0,1-1.25-2.2l3.4-1.75A3.8,3.8,0,0,0,144,85.54a3.71,3.71,0,0,0,2,.53,2.82,2.82,0,0,0,1.57-.38,1.23,1.23,0,0,0,.21-1.89,2.42,2.42,0,0,0-.85-.48c-.34-.11-.82-.24-1.46-.38l-.41-.1-.46-.11-.1,0-.12,0a12.36,12.36,0,0,1-2.35-.79,3.92,3.92,0,0,1-1.58-1.43,4.76,4.76,0,0,1-.63-2.61,5.19,5.19,0,0,1,.7-2.76,4.49,4.49,0,0,1,2-1.78,7.37,7.37,0,0,1,3.13-.62,7.74,7.74,0,0,1,2.77.46,5.37,5.37,0,0,1,2.06,1.32,5.14,5.14,0,0,1,1.2,2.1l-3.39,1.68A3.32,3.32,0,0,0,147.17,77a2.79,2.79,0,0,0-1.56-.45,2.75,2.75,0,0,0-1.46.33,1,1,0,0,0-.52.93,1.05,1.05,0,0,0,.36.83,2.6,2.6,0,0,0,.92.49,13.86,13.86,0,0,0,1.57.37l.13,0h.14a.11.11,0,0,0,.07,0l.06,0a15.37,15.37,0,0,1,2.61.75,3.87,3.87,0,0,1,1.73,1.43,5,5,0,0,1,.7,2.88,5.15,5.15,0,0,1-.74,2.81A4.77,4.77,0,0,1,149,89.26a7.87,7.87,0,0,1-3.3.64Z"/><path d="M160.69,84.26a1.87,1.87,0,0,0,.49,1.41,1.83,1.83,0,0,0,1.41.48,1.78,1.78,0,0,0,1.4-.5,2.11,2.11,0,0,0,.47-1.47l.23,2.63a4.84,4.84,0,0,1-1.35,2.26,3.15,3.15,0,0,1-2.24.83,4.17,4.17,0,0,1-3.41-1.41,6.39,6.39,0,0,1-1.17-4.15V72.94h4.17Zm3.77-11.32h4.16V89.66h-4.16Z"/><path d="M37.4,131.64h1.41v14.2H37.4Zm1.18,12.89h2.76a1.41,1.41,0,0,0,1-.32,1.16,1.16,0,0,0,.35-.9V140.8a2.15,2.15,0,0,0-.19-.92,1.4,1.4,0,0,0-.52-.6,1.32,1.32,0,0,0-.73-.21H38.58v-1.3h2.66a1.14,1.14,0,0,0,.93-.41,1.88,1.88,0,0,0,.32-1.16v-2a1.21,1.21,0,0,0-.32-.89,1.26,1.26,0,0,0-.91-.32H38.58v-1.31h2.63a3.35,3.35,0,0,1,1.45.29,2.07,2.07,0,0,1,.92.83,2.57,2.57,0,0,1,.32,1.31V136a3.94,3.94,0,0,1-.16,1.19,2.16,2.16,0,0,1-.45.85,1.45,1.45,0,0,1-.71.45,1.54,1.54,0,0,1,.82.44,2.27,2.27,0,0,1,.51.89,4.07,4.07,0,0,1,.17,1.27v2.27a2.81,2.81,0,0,1-.3,1.35,2.05,2.05,0,0,1-.89.86,3.19,3.19,0,0,1-1.41.29h-2.9Z"/><path d="M49.19,145.28a3,3,0,0,1-.66-2.13,3.68,3.68,0,0,1,.77-2.56,3.05,3.05,0,0,1,2.35-.84h1.81l.13,1H51.66a1.65,1.65,0,0,0-1.39.6,3,3,0,0,0-.46,1.79,1.92,1.92,0,0,0,.42,1.35,1.64,1.64,0,0,0,1.26.45,1.84,1.84,0,0,0,1.41-.49,2.11,2.11,0,0,0,.47-1.49l.2.84A2.58,2.58,0,0,1,53.3,145a1.67,1.67,0,0,1-.8.73,3.18,3.18,0,0,1-1.32.24A2.61,2.61,0,0,1,49.19,145.28Zm4.18-6.86a1.68,1.68,0,0,0-.46-1.27,1.74,1.74,0,0,0-1.28-.45,1.45,1.45,0,0,0-1.14.45,1.83,1.83,0,0,0-.4,1.27H48.73a2.85,2.85,0,0,1,.77-2.13,3,3,0,0,1,2.18-.76,3.52,3.52,0,0,1,1.62.34,2.4,2.4,0,0,1,1,1,3.27,3.27,0,0,1,.35,1.56v7.42H53.37Z"/><path d="M61.16,146l-.68-.34a2.22,2.22,0,0,1-1-1,3.69,3.69,0,0,1-.34-1.69h1.3a1.91,1.91,0,0,0,.44,1.38,1.76,1.76,0,0,0,1.32.46A1.56,1.56,0,0,0,64,143a1.36,1.36,0,0,0-.18-.73,1.44,1.44,0,0,0-.5-.48,4.15,4.15,0,0,0-.78-.33l-.15-.05-.15,0-.1,0-.1,0a10.05,10.05,0,0,1-1.43-.53,2.36,2.36,0,0,1-.93-.83,2.67,2.67,0,0,1-.39-1.53,3.76,3.76,0,0,1,.32-1.63,2.12,2.12,0,0,1,.95-1,4.2,4.2,0,0,1,3.19,0,2.06,2.06,0,0,1,1,.94,3.53,3.53,0,0,1,.32,1.58h-1.3a1.69,1.69,0,0,0-.39-1.22,1.55,1.55,0,0,0-1.17-.41,1.53,1.53,0,0,0-1.18.42,1.79,1.79,0,0,0-.39,1.26,1.37,1.37,0,0,0,.24.84,1.75,1.75,0,0,0,.62.52,6.58,6.58,0,0,0,1,.35h.06l.07,0h.08a8.1,8.1,0,0,1,1.39.49,2.25,2.25,0,0,1,.91.83,2.74,2.74,0,0,1,.37,1.54,3.54,3.54,0,0,1-.34,1.65,2.11,2.11,0,0,1-1,1,3.89,3.89,0,0,1-1.71.33Zm-.7,3.8.3-1a6.12,6.12,0,0,0,1.28.14.84.84,0,0,0,.58-.18.61.61,0,0,0,.21-.5.54.54,0,0,0-.32-.5,2.05,2.05,0,0,0-.92-.16l.6-.85a2.13,2.13,0,0,1,1.42.42,1.63,1.63,0,0,1,0,2.38,2.35,2.35,0,0,1-1.5.42A7.13,7.13,0,0,1,60.46,149.79Zm1-4.84h1.13v2.64H61.43Z"/><path d="M74.14,135.71h1.45l-2.82,10.13H71.46l-2.84-10.13h1.44l2,8.11Z"/><path d="M81.23,143.14a1.49,1.49,0,0,0,.42,1.13,1.65,1.65,0,0,0,1.19.41,1.4,1.4,0,0,0,1.59-1.58l.14,1.32a2.49,2.49,0,0,1-.86,1.18,2.41,2.41,0,0,1-1.4.39,2.31,2.31,0,0,1-1.83-.75,3.12,3.12,0,0,1-.65-2.1v-7.43h1.4Zm3.2-7.43h1.4v10.13h-1.4Z"/><path d="M90.76,135.71h1.4v10.13h-1.4Zm4.62,1.13h0a3.44,3.44,0,0,0-2.26.68,2.59,2.59,0,0,0-.91,1.91l-.2-2A4.16,4.16,0,0,1,93.42,136a4,4,0,0,1,2-.51v1.31Z"/><path d="M101.18,143.14a1.49,1.49,0,0,0,.42,1.13,1.66,1.66,0,0,0,1.2.41,1.59,1.59,0,0,0,1.19-.4,1.56,1.56,0,0,0,.4-1.18l.13,1.32a2.49,2.49,0,0,1-.86,1.18,2.37,2.37,0,0,1-1.39.39,2.28,2.28,0,0,1-1.83-.75,3.07,3.07,0,0,1-.65-2.1v-7.43h1.39Zm3.21-7.43h1.39v10.13h-1.39Z"/><path d="M115.64,135.71h4.68v1.21h-4.68Zm1.08-1.38a2.79,2.79,0,0,1,.65-2,2.45,2.45,0,0,1,1.87-.71h1.08V133h-1a1.07,1.07,0,0,0-.86.36,1.49,1.49,0,0,0-.3,1v11.53h-1.4Z"/><path d="M125.12,145.64a2.32,2.32,0,0,1-1-1,3.52,3.52,0,0,1-.34-1.59v-4.61a3.43,3.43,0,0,1,.34-1.57,2.33,2.33,0,0,1,1-1,3.79,3.79,0,0,1,3.14,0,2.33,2.33,0,0,1,1,1,3.31,3.31,0,0,1,.34,1.57v4.64a3.38,3.38,0,0,1-.34,1.58,2.3,2.3,0,0,1-1,1,3.43,3.43,0,0,1-1.57.34A3.34,3.34,0,0,1,125.12,145.64Zm2.68-1.38a1.69,1.69,0,0,0,.4-1.19v-4.64a1.66,1.66,0,0,0-.4-1.17,1.48,1.48,0,0,0-1.12-.42,1.43,1.43,0,0,0-1.1.42,1.65,1.65,0,0,0-.39,1.17v4.64a1.69,1.69,0,0,0,.39,1.19,1.43,1.43,0,0,0,1.1.42A1.46,1.46,0,0,0,127.8,144.26Z"/><path d="M134.34,135.71h1.4v10.13h-1.4Zm4.61,1.13h0a3.43,3.43,0,0,0-2.26.68,2.55,2.55,0,0,0-.91,1.91l-.2-2A4,4,0,0,1,137,136a3.94,3.94,0,0,1,2-.51v1.31Z"/><path d="M143.37,135.71h1.4v10.13h-1.4Zm4.49,3a2.28,2.28,0,0,0-.35-1.38,1.22,1.22,0,0,0-1-.46,1.56,1.56,0,0,0-1.27.51,2.35,2.35,0,0,0-.42,1.53l-.2-1.47a3.06,3.06,0,0,1,1-1.41,2.34,2.34,0,0,1,1.46-.47,2.14,2.14,0,0,1,1.27.35,2.06,2.06,0,0,1,.76,1.05,5.15,5.15,0,0,1,.25,1.75v7.16h-1.4Zm4.49,0a2,2,0,0,0-.42-1.38,1.62,1.62,0,0,0-1.27-.46,1.18,1.18,0,0,0-1,.51,2.72,2.72,0,0,0-.35,1.53l-.4-1.27a2.93,2.93,0,0,1,.87-1.55,2.16,2.16,0,0,1,1.45-.53,2.65,2.65,0,0,1,1.44.35,2.09,2.09,0,0,1,.85,1.05,4.64,4.64,0,0,1,.29,1.75v7.16h-1.41Z"/><path d="M160.08,143.14a1.49,1.49,0,0,0,.42,1.13,1.65,1.65,0,0,0,1.19.41,1.4,1.4,0,0,0,1.59-1.58l.14,1.32a2.49,2.49,0,0,1-.86,1.18,2.4,2.4,0,0,1-1.39.39,2.32,2.32,0,0,1-1.84-.75,3.12,3.12,0,0,1-.64-2.1v-7.43h1.39Zm3.2-7.43h1.4v10.13h-1.4Z"/><path d="M169.61,135.71H171v10.13h-1.41Zm4.78,3a2,2,0,0,0-.42-1.38,1.62,1.62,0,0,0-1.27-.46,1.54,1.54,0,0,0-1.26.51,2.29,2.29,0,0,0-.42,1.53l-.21-1.47a3,3,0,0,1,1-1.41,2.31,2.31,0,0,1,1.45-.47,2.34,2.34,0,0,1,1.94.79,3.65,3.65,0,0,1,.64,2.36v7.16h-1.41Z"/><path d="M182.13,143.14a1.49,1.49,0,0,0,.42,1.13,1.64,1.64,0,0,0,1.19.41,1.59,1.59,0,0,0,1.19-.4,1.56,1.56,0,0,0,.4-1.18l.14,1.32a2.51,2.51,0,0,1-.87,1.18,2.37,2.37,0,0,1-1.39.39,2.28,2.28,0,0,1-1.83-.75,3.12,3.12,0,0,1-.65-2.1v-7.43h1.4Zm3.2-7.43h1.4v10.13h-1.4Z"/><path d="M197.57,132.2H199v1.41h-1.4Zm0,3.51H199v10.13h-1.4Z"/><path d="M204.11,135.71h1.4v10.13h-1.4Zm4.78,3a2,2,0,0,0-.42-1.38,1.62,1.62,0,0,0-1.27-.46,1.56,1.56,0,0,0-1.27.51,2.35,2.35,0,0,0-.42,1.53l-.2-1.47a3,3,0,0,1,1-1.41,2.29,2.29,0,0,1,1.45-.47,2.34,2.34,0,0,1,1.94.79,3.65,3.65,0,0,1,.64,2.36v7.16h-1.41Z"/><path d="M216.2,145.66a2.25,2.25,0,0,1-.87-1A4.12,4.12,0,0,1,215,143v-4.29a4.34,4.34,0,0,1,.3-1.7,2.35,2.35,0,0,1,.87-1.08,2.39,2.39,0,0,1,1.36-.37,2.2,2.2,0,0,1,1.36.47,3.28,3.28,0,0,1,1,1.32l-.21,1.38a2.56,2.56,0,0,0-.19-1A1.4,1.4,0,0,0,219,137a1.71,1.71,0,0,0-.89-.23,1.49,1.49,0,0,0-1.21.51,2.15,2.15,0,0,0-.43,1.44V143a1.93,1.93,0,0,0,.43,1.34,1.53,1.53,0,0,0,1.21.48,1.71,1.71,0,0,0,.89-.23,1.38,1.38,0,0,0,.56-.65,2.41,2.41,0,0,0,.19-1l.14,1.36a2.69,2.69,0,0,1-.89,1.3,2.24,2.24,0,0,1-1.41.47A2.46,2.46,0,0,1,216.2,145.66Zm3.52-14h1.41v14.2h-1.41Z"/><path d="M226.26,132.2h1.41v1.41h-1.41Zm0,3.51h1.41v10.13h-1.41Z"/><path d="M232.8,135.71h1.41v10.13H232.8Zm4.62,1.13h0a3.44,3.44,0,0,0-2.26.68,2.55,2.55,0,0,0-.9,1.91l-.21-2a4.11,4.11,0,0,1,1.47-1.43,3.88,3.88,0,0,1,2-.51v1.31Z"/><g class="cls-3"><path class="cls-1" d="M10.19,109.32c-3.27,4.08-7.68,7.13-9.35,12.27a17.46,17.46,0,0,0,.85,12.84c4.06,8.39,14.45,11,22.57,7.25.44-.21.06-.85-.38-.65-8.71,4.08-19.67.17-22.47-9.42a16.55,16.55,0,0,1,1.48-12.82c2-3.42,5.37-5.86,7.83-8.94.3-.37-.23-.91-.53-.53Z"/></g><g class="cls-3"><path class="cls-1" d="M20.26,134.77l2.53,1.89c1.88,1.42,2.46,1.75,3.37,4.12a6.67,6.67,0,0,1,.38,4.86l-.67,3.68c-.08.48.64.68.73.2.38-2.1.77-4.21,1.13-6.31a6.05,6.05,0,0,0,.15-3.21c-.37-.93-1.44-1.52-2.19-2.09-1.67-1.28-3.37-2.53-5.05-3.79-.38-.29-.76.36-.38.65Z"/></g></g></g></svg>