<svg xmlns="http://www.w3.org/2000/svg" viewBox="0 0 29 33.09"><defs><style>.cls-1{fill:#e6e6e6;}</style></defs><title>Asset 3</title><g id="Layer_2" data-name="Layer 2"><g id="Layer_1-2" data-name="Layer 1"><circle class="cls-1" cx="14.5" cy="16.9" r="14.5"/><path d="M23.23.75H26V4.34H23.74c-2,0-3.11.93-3.32,2.89a21.67,21.67,0,0,0-.07,2.54v.92c0,.27,0,.54,0,.85,0,.14,0,.28,0,.44l0,.71h5.12V17.1H20.4V32.34H16V17.15H10.7v-4.4h5.24V5.94C16,2.36,17.56.76,21.17.75h2.06m0-.75H21.17c-4,0-6,2-6,5.94V12H10v5.9h5.28V33.09h5.92V17.85h5.16V11.94H21.16c0-.48-.06-.86-.06-1.24,0-1.13-.05-2.27.07-3.39.17-1.62.92-2.21,2.57-2.22h3V0Z"/></g></g></svg>