<svg xmlns="http://www.w3.org/2000/svg" viewBox="0 0 288.32 149.96"><defs><style>.cls-1{fill:#b3b3b3;}.cls-2{fill:none;stroke:#000;stroke-miterlimit:10;}.cls-3{opacity:0.51;}</style></defs><title>Asset 2</title><g id="Layer_2" data-name="Layer 2"><g id="Layer_1-2" data-name="Layer 1"><rect class="cls-1" x="10.18" width="13.5" height="122"/><rect class="cls-2" x="17.32" y="0.5" width="19" height="121" transform="translate(53.64 122) rotate(180)"/><path d="M31.77,48.45a5.76,5.76,0,0,1-2.42-2.51A8.68,8.68,0,0,1,28.52,42V25.64h4.21V42.11a3.13,3.13,0,0,0,.75,2.23,2.75,2.75,0,0,0,2.1.8,2.82,2.82,0,0,0,2.13-.8,3.14,3.14,0,0,0,.76-2.23V25.64h4.2V42a8.55,8.55,0,0,1-.84,3.94,5.78,5.78,0,0,1-2.43,2.51,8,8,0,0,1-3.82.86A7.94,7.94,0,0,1,31.77,48.45Zm-1.54-28.9H34.4v4.17H30.23Zm6.51,0h4.19v4.17H36.74Z"/><path d="M46.33,32.34h4l4.39,14.52-2.37,3.82Zm13.6,0L54,53A4.54,4.54,0,0,1,53,54.74a3.52,3.52,0,0,1-1.55,1,7.24,7.24,0,0,1-2.28.32H48.07V51.92h1.16a2.1,2.1,0,0,0,1.21-.3,1.91,1.91,0,0,0,.64-1.12L56,32.34Z"/><path d="M67.39,49.31,66,48.56a5.22,5.22,0,0,1-2.22-2.17A7,7,0,0,1,63,43V38.71a8,8,0,0,1,.74-3.58,5.17,5.17,0,0,1,2.15-2.26,6.84,6.84,0,0,1,3.38-.78,6.09,6.09,0,0,1,3.3.85,5.37,5.37,0,0,1,2.09,2.49,9.78,9.78,0,0,1,.72,4v2.95H66v-3h5.37V38.16a2.27,2.27,0,0,0-.61-1.68,2,2,0,0,0-1.55-.62,2.12,2.12,0,0,0-1.69.7,2.87,2.87,0,0,0-.61,2v4.54A2.59,2.59,0,0,0,67.55,45a2.33,2.33,0,0,0,1.78.65,2.3,2.3,0,0,0,1.44-.43,2.5,2.5,0,0,0,.84-1.27l3.53,1.33a5,5,0,0,1-1.94,3.06,6.42,6.42,0,0,1-3.76,1Z"/><path d="M84.35,43.77a1.23,1.23,0,0,0,.31.9,1.19,1.19,0,0,0,.88.32h.63v4.08H84.31a4,4,0,0,1-3.06-1.16,4.6,4.6,0,0,1-1.09-3.27v-19h4.19Z"/><path d="M89.91,25.64h4.2v4.17h-4.2Zm0,6.7h4.2V49.07h-4.2Z"/><path d="M99.06,25.64h4.17V49.07H99.06Zm2.32,16.74,6.4-10h4.36L101.75,47.57Zm3.08-1.84,3.06-2.43,5.37,11h-4.66Z"/><path d="M122.27,25.64h4.2v4.17h-4.2Zm0,6.7h4.2V49.07h-4.2Z"/><path d="M135.38,49.31l-1.44-.72a5.06,5.06,0,0,1-2.2-2.12,7,7,0,0,1-.75-3.35V38.34a7.12,7.12,0,0,1,.75-3.38,5.05,5.05,0,0,1,2.2-2.14,7.55,7.55,0,0,1,3.46-.73,7.8,7.8,0,0,1,2.94.49,4.14,4.14,0,0,1,1.94,1.53,6,6,0,0,1,.95,2.62L139.36,38a2.8,2.8,0,0,0-.69-1.55,1.77,1.77,0,0,0-1.3-.5,2,2,0,0,0-1.59.66,2.68,2.68,0,0,0-.59,1.86V43a2.61,2.61,0,0,0,.57,1.8,2.06,2.06,0,0,0,1.61.63,1.76,1.76,0,0,0,1.29-.48,2.9,2.9,0,0,0,.72-1.46l3.87,1.35a5.87,5.87,0,0,1-1,2.54,4.23,4.23,0,0,1-1.93,1.5,8.26,8.26,0,0,1-2.95.47ZM134,55.58l.7-2.52a5,5,0,0,0,1.48.23,2.2,2.2,0,0,0,.88-.14.48.48,0,0,0,.31-.46c0-.22-.17-.4-.51-.52A5,5,0,0,0,135.3,52l1.62-2a4.8,4.8,0,0,1,2.9.74,2.78,2.78,0,0,1-.08,4.35,5.66,5.66,0,0,1-3.18.74A10.08,10.08,0,0,1,134,55.58Zm1.19-8h3.24V52h-3.24Z"/><path d="M147,25.64h4.21v4.17H147Zm0,6.7h4.21V49.07H147Z"/><path d="M156.17,32.34h4.21V49.07h-4.21Zm8.13,5.74a2.12,2.12,0,0,0-.53-1.54A2,2,0,0,0,162.3,36a1.82,1.82,0,0,0-1.42.54,2.23,2.23,0,0,0-.5,1.56L160,35.26a5.82,5.82,0,0,1,1.64-2.38,3.75,3.75,0,0,1,2.41-.81,3.9,3.9,0,0,1,3.24,1.45,6.41,6.41,0,0,1,1.15,4.08V49.07H164.3Z"/><path d="M30.35,88.23a4.29,4.29,0,0,1-1.52-2A8.44,8.44,0,0,1,28.3,83V77.6a8.56,8.56,0,0,1,.53-3.21,4.25,4.25,0,0,1,1.53-2,4.15,4.15,0,0,1,2.42-.68,3.48,3.48,0,0,1,2.21.79,5.61,5.61,0,0,1,1.62,2.23l-.34,2.91a2.63,2.63,0,0,0-.21-1.12,1.58,1.58,0,0,0-.64-.71,1.94,1.94,0,0,0-1-.25,1.74,1.74,0,0,0-1.41.63,2.63,2.63,0,0,0-.52,1.75v4.82A2.61,2.61,0,0,0,33,84.46a1.76,1.76,0,0,0,1.42.62,2,2,0,0,0,1-.25,1.69,1.69,0,0,0,.64-.71A2.7,2.7,0,0,0,36.27,83l.23,3a4.19,4.19,0,0,1-1.43,2.13,3.69,3.69,0,0,1-2.29.76A4.08,4.08,0,0,1,30.35,88.23Zm1.33,7.24-1.4-1.09a4.79,4.79,0,0,1-1.74-3.23l4.06-1.26a2.28,2.28,0,0,0,.66,1.24,1.75,1.75,0,0,0,1.19.42A1.7,1.7,0,0,0,35.78,91a2,2,0,0,0,.49-1.43V71.94H40.5V89.41a6.64,6.64,0,0,1-.76,3.27,5.1,5.1,0,0,1-2.19,2.07,7.64,7.64,0,0,1-3.45.72Z"/><path d="M49.71,88.91l-1.44-.75A5.14,5.14,0,0,1,46.06,86a6.92,6.92,0,0,1-.78-3.4V78.31A8,8,0,0,1,46,74.73a5.17,5.17,0,0,1,2.15-2.26,6.84,6.84,0,0,1,3.38-.78,6.09,6.09,0,0,1,3.3.85A5.37,5.37,0,0,1,56.94,75a9.78,9.78,0,0,1,.72,4v3H48.34V79h5.37V77.76a2.3,2.3,0,0,0-.6-1.68,2.08,2.08,0,0,0-1.56-.62,2.12,2.12,0,0,0-1.69.7,2.87,2.87,0,0,0-.61,2v4.54a2.59,2.59,0,0,0,.63,1.88,2.65,2.65,0,0,0,3.21.22,2.62,2.62,0,0,0,.85-1.27l3.52,1.33a4.91,4.91,0,0,1-1.94,3.06,6.4,6.4,0,0,1-3.76,1Z"/><path d="M62.48,71.94h4.35V88.67H62.48Zm8.07,4a3.51,3.51,0,0,0-.82-.08,2.73,2.73,0,0,0-2.14.85,3.43,3.43,0,0,0-.76,2.37l-.34-4.27a6.06,6.06,0,0,1,1.83-2.34,4,4,0,0,1,2.46-.85,2.62,2.62,0,0,1,.94.17,2,2,0,0,1,.73.49l-1.27,3.92A1.64,1.64,0,0,0,70.55,76Z"/><path d="M80.12,88.91l-1.44-.75A5.14,5.14,0,0,1,76.47,86a6.92,6.92,0,0,1-.78-3.4V78.31a8,8,0,0,1,.74-3.58,5.17,5.17,0,0,1,2.15-2.26A6.84,6.84,0,0,1,82,71.69a6.09,6.09,0,0,1,3.3.85A5.37,5.37,0,0,1,87.35,75a9.78,9.78,0,0,1,.72,4v3H78.76V79h5.36V77.76a2.3,2.3,0,0,0-.6-1.68A2.08,2.08,0,0,0,82,75.46a2.12,2.12,0,0,0-1.69.7,2.87,2.87,0,0,0-.61,2v4.54a2.59,2.59,0,0,0,.63,1.88,2.65,2.65,0,0,0,3.21.22,2.62,2.62,0,0,0,.85-1.27l3.52,1.33a4.91,4.91,0,0,1-1.94,3.06,6.4,6.4,0,0,1-3.76,1Z"/><path d="M92.89,65.24h4.17V88.67H92.89ZM95.21,82l6.39-10H106L95.58,87.17Zm3.08-1.84,3.06-2.43,5.36,11h-4.66Z"/><path d="M113.88,83.37a1.25,1.25,0,0,0,.32.9,1.19,1.19,0,0,0,.88.32h.63v4.08h-1.86a4,4,0,0,1-3.06-1.16,4.58,4.58,0,0,1-1.09-3.27v-19h4.18Z"/><path d="M119.45,65.24h4.2v4.17h-4.2Zm0,6.7h4.2V88.67h-4.2Z"/><path d="M135.29,65.24h4.19V88.67h-4.19Zm5.39,22.92A4.37,4.37,0,0,1,139.25,86l.23-3.08a2.62,2.62,0,0,0,.22,1.15,1.5,1.5,0,0,0,.65.71,2.09,2.09,0,0,0,1,.24,1.72,1.72,0,0,0,1.42-.63,2.8,2.8,0,0,0,.5-1.77V77.92a2.79,2.79,0,0,0-.5-1.76,1.7,1.7,0,0,0-1.42-.64,2.08,2.08,0,0,0-1,.24,1.46,1.46,0,0,0-.64.72,2.64,2.64,0,0,0-.22,1.14l-.34-2.89a5.77,5.77,0,0,1,1.63-2.26,3.45,3.45,0,0,1,2.2-.8,4.19,4.19,0,0,1,2.43.69,4.28,4.28,0,0,1,1.53,2,8.87,8.87,0,0,1,.52,3.24V83a8.58,8.58,0,0,1-.53,3.22,4.37,4.37,0,0,1-1.54,2,4.17,4.17,0,0,1-2.44.7A3.56,3.56,0,0,1,140.68,88.16Z"/><path d="M152.06,65.24h4.21v4.17h-4.21Zm0,6.7h4.21V88.67h-4.21Z"/><path d="M165.41,83.37a1.25,1.25,0,0,0,.31.9,1.19,1.19,0,0,0,.88.32h.63v4.08h-1.86a4,4,0,0,1-3.06-1.16,4.58,4.58,0,0,1-1.09-3.27v-19h4.19Z"/><path d="M172.88,88.23a4.38,4.38,0,0,1-1.53-2,8.64,8.64,0,0,1-.53-3.18V77.6a8.77,8.77,0,0,1,.53-3.21,4.38,4.38,0,0,1,1.53-2,4.17,4.17,0,0,1,2.42-.68,3.49,3.49,0,0,1,2.22.79,5.61,5.61,0,0,1,1.62,2.23l-.34,2.91a2.48,2.48,0,0,0-.22-1.12,1.53,1.53,0,0,0-.64-.71,1.94,1.94,0,0,0-1-.25,1.74,1.74,0,0,0-1.41.63,2.63,2.63,0,0,0-.52,1.75v4.82a2.56,2.56,0,0,0,.52,1.72,1.74,1.74,0,0,0,1.41.62,2,2,0,0,0,1-.25,1.63,1.63,0,0,0,.64-.71A2.54,2.54,0,0,0,178.8,83l.22,3a4.18,4.18,0,0,1-1.42,2.13,3.72,3.72,0,0,1-2.3.76A4,4,0,0,1,172.88,88.23Zm1.33,7.24-1.41-1.09a4.87,4.87,0,0,1-1.74-3.23l4.06-1.26a2.28,2.28,0,0,0,.66,1.24,1.77,1.77,0,0,0,1.2.42,1.7,1.7,0,0,0,1.33-.53,2,2,0,0,0,.49-1.43V71.94H183V89.41a6.54,6.54,0,0,1-.76,3.27,5,5,0,0,1-2.19,2.07,7.61,7.61,0,0,1-3.45.72Z"/><path d="M188,65.24h4.21v4.17H188Zm0,6.7h4.21V88.67H188Z"/><path d="M201.3,83.37a1.25,1.25,0,0,0,.31.9,1.19,1.19,0,0,0,.88.32h.63v4.08h-1.86a4,4,0,0,1-3.06-1.16,4.58,4.58,0,0,1-1.09-3.27v-19h4.19Z"/><path d="M211.14,88.91l-1.44-.75A5.22,5.22,0,0,1,207.48,86a7,7,0,0,1-.77-3.4V78.31a8,8,0,0,1,.74-3.58,5.17,5.17,0,0,1,2.15-2.26,6.84,6.84,0,0,1,3.38-.78,6.09,6.09,0,0,1,3.3.85A5.37,5.37,0,0,1,218.37,75a9.78,9.78,0,0,1,.72,4v3h-9.32V79h5.37V77.76a2.27,2.27,0,0,0-.61-1.68,2,2,0,0,0-1.55-.62,2.12,2.12,0,0,0-1.69.7,2.87,2.87,0,0,0-.61,2v4.54a2.59,2.59,0,0,0,.62,1.88,2.34,2.34,0,0,0,1.78.66,2.31,2.31,0,0,0,1.44-.44,2.54,2.54,0,0,0,.84-1.27l3.53,1.33A5,5,0,0,1,217,87.89a6.42,6.42,0,0,1-3.76,1Z"/><path d="M223.91,71.94h4.35V88.67h-4.35ZM232,76a3.51,3.51,0,0,0-.82-.08,2.72,2.72,0,0,0-2.14.85,3.43,3.43,0,0,0-.76,2.37l-.34-4.27a6.06,6.06,0,0,1,1.83-2.34,3.93,3.93,0,0,1,2.46-.85,2.62,2.62,0,0,1,.94.17,2,2,0,0,1,.73.49l-1.27,3.92A1.64,1.64,0,0,0,232,76Z"/><path d="M37,131.64h1.41v14.2H37Zm1.17,12.89h2.77a1.36,1.36,0,0,0,1-.32,1.13,1.13,0,0,0,.35-.9V140.8a2,2,0,0,0-.19-.92,1.38,1.38,0,0,0-.51-.6,1.35,1.35,0,0,0-.73-.21H38.12v-1.3h2.67a1.12,1.12,0,0,0,.92-.41A1.82,1.82,0,0,0,42,136.2v-2a1.18,1.18,0,0,0-.33-.89,1.25,1.25,0,0,0-.9-.32H38.12v-1.31h2.64a3.38,3.38,0,0,1,1.45.29,2.12,2.12,0,0,1,.92.83,2.57,2.57,0,0,1,.31,1.31V136a4.3,4.3,0,0,1-.15,1.19,2.45,2.45,0,0,1-.45.85,1.49,1.49,0,0,1-.71.45,1.47,1.47,0,0,1,.81.44,2,2,0,0,1,.51.89,4.05,4.05,0,0,1,.18,1.27v2.27a2.7,2.7,0,0,1-.31,1.35,2,2,0,0,1-.89.86,3.13,3.13,0,0,1-1.41.29h-2.9Z"/><path d="M48.42,132.2h1.41v1.41H48.42Zm0,3.51h1.41v10.13H48.42Z"/><path d="M56.37,143.18a1.57,1.57,0,0,0,.28,1,1,1,0,0,0,.82.35h.64v1.31h-.78a2.2,2.2,0,0,1-1.75-.7,2.92,2.92,0,0,1-.62-2V131.64h1.41Z"/><path d="M63.33,145.66a2.25,2.25,0,0,1-.87-1,4.12,4.12,0,0,1-.3-1.65v-4.29a4.34,4.34,0,0,1,.3-1.7,2.35,2.35,0,0,1,.87-1.08,2.39,2.39,0,0,1,1.36-.37,2.25,2.25,0,0,1,1.37.47,3.35,3.35,0,0,1,1,1.32l-.21,1.38a2.56,2.56,0,0,0-.19-1,1.4,1.4,0,0,0-.56-.66,1.68,1.68,0,0,0-.89-.23,1.5,1.5,0,0,0-1.21.51,2.15,2.15,0,0,0-.43,1.44V143a1.93,1.93,0,0,0,.43,1.34,1.55,1.55,0,0,0,1.21.48,1.68,1.68,0,0,0,.89-.23,1.38,1.38,0,0,0,.56-.65,2.41,2.41,0,0,0,.19-1l.14,1.36a2.69,2.69,0,0,1-.89,1.3,2.24,2.24,0,0,1-1.41.47A2.46,2.46,0,0,1,63.33,145.66Zm.43,4.3-.77-.77a2.91,2.91,0,0,1-.78-2.17h1.41a1.71,1.71,0,0,0,2.81,1.23,1.52,1.52,0,0,0,.42-1.15V135.71h1.41V147.1a3.12,3.12,0,0,1-.36,1.55,2.4,2.4,0,0,1-1.06,1,3.86,3.86,0,0,1-1.67.33Z"/><path d="M73.39,132.2H74.8v1.41H73.39Zm0,3.51H74.8v10.13H73.39Z"/><path d="M81.34,143.18a1.51,1.51,0,0,0,.29,1,1,1,0,0,0,.81.35h.65v1.31h-.78a2.23,2.23,0,0,1-1.76-.7,2.92,2.92,0,0,1-.62-2V131.64h1.41Z"/><path d="M88.56,145.59a2.58,2.58,0,0,1-1.06-1.15,4.19,4.19,0,0,1-.36-1.82V139.1a4.69,4.69,0,0,1,.35-1.93,2.7,2.7,0,0,1,1-1.22,3,3,0,0,1,1.62-.42,3.25,3.25,0,0,1,1.65.39,2.44,2.44,0,0,1,1,1.12,4.08,4.08,0,0,1,.36,1.79v2.52H88V140h3.78v-1.17a2.29,2.29,0,0,0-.43-1.5,1.45,1.45,0,0,0-1.2-.53,1.41,1.41,0,0,0-1.18.56,2.63,2.63,0,0,0-.42,1.6v3.66a2.3,2.3,0,0,0,.44,1.49,1.53,1.53,0,0,0,1.24.53,1.58,1.58,0,0,0,1.17-.42,1.65,1.65,0,0,0,.41-1.19V143h1.41v.06a2.89,2.89,0,0,1-.78,2.16,3.07,3.07,0,0,1-2.21.76A3.21,3.21,0,0,1,88.56,145.59Z"/><path d="M97.94,135.71h1.41v10.13H97.94Zm4.79,3a2,2,0,0,0-.42-1.38,1.62,1.62,0,0,0-1.27-.46,1.55,1.55,0,0,0-1.27.51,2.35,2.35,0,0,0-.42,1.53l-.21-1.47a3.15,3.15,0,0,1,1-1.41,2.64,2.64,0,0,1,3.39.32,3.65,3.65,0,0,1,.64,2.36v7.16h-1.4Z"/><path d="M110,145.66a2.17,2.17,0,0,1-.86-1,4.12,4.12,0,0,1-.3-1.65v-4.29a4.34,4.34,0,0,1,.3-1.7,2.28,2.28,0,0,1,.86-1.08,2.42,2.42,0,0,1,1.37-.37,2.22,2.22,0,0,1,1.36.47,3.26,3.26,0,0,1,1,1.32l-.2,1.38a2.55,2.55,0,0,0-.2-1,1.35,1.35,0,0,0-.56-.66,1.66,1.66,0,0,0-.89-.23,1.5,1.5,0,0,0-1.21.51,2.21,2.21,0,0,0-.43,1.44V143a2,2,0,0,0,.43,1.34,1.55,1.55,0,0,0,1.21.48,1.66,1.66,0,0,0,.89-.23,1.33,1.33,0,0,0,.56-.65,2.41,2.41,0,0,0,.2-1l.13,1.36a2.62,2.62,0,0,1-.89,1.3,2.23,2.23,0,0,1-1.4.47A2.5,2.5,0,0,1,110,145.66Zm3.53-14H115v14.2h-1.4Z"/><path d="M120.09,132.2h1.41v1.41h-1.41Zm0,3.51h1.41v10.13h-1.41Z"/><path d="M126.63,135.71H128v10.13h-1.41Zm4.62,1.13h-.05a3.4,3.4,0,0,0-2.25.68,2.55,2.55,0,0,0-.91,1.91l-.2-2A4,4,0,0,1,129.3,136a3.94,3.94,0,0,1,2-.51v1.31Z"/><path d="M135.66,135.71h1.41v10.13h-1.41Zm4.5,3a2.28,2.28,0,0,0-.35-1.38,1.22,1.22,0,0,0-1.05-.46,1.55,1.55,0,0,0-1.27.51,2.35,2.35,0,0,0-.42,1.53l-.2-1.47a3.06,3.06,0,0,1,.95-1.41,2.34,2.34,0,0,1,1.46-.47,2.14,2.14,0,0,1,1.27.35,2.06,2.06,0,0,1,.76,1.05,5.15,5.15,0,0,1,.25,1.75v7.16h-1.4Zm4.49,0a2,2,0,0,0-.42-1.38,1.62,1.62,0,0,0-1.27-.46,1.18,1.18,0,0,0-1.05.51,2.72,2.72,0,0,0-.35,1.53l-.4-1.27a2.93,2.93,0,0,1,.87-1.55,2.16,2.16,0,0,1,1.45-.53,2.65,2.65,0,0,1,1.44.35,2.09,2.09,0,0,1,.85,1.05,4.64,4.64,0,0,1,.29,1.75v7.16h-1.41Z"/><path d="M152.21,145.59a2.58,2.58,0,0,1-1.06-1.15,4.19,4.19,0,0,1-.36-1.82V139.1a4.68,4.68,0,0,1,.36-1.93,2.64,2.64,0,0,1,1-1.22,3,3,0,0,1,1.62-.42,3.24,3.24,0,0,1,1.64.39,2.51,2.51,0,0,1,1,1.12,4.23,4.23,0,0,1,.35,1.79v2.52h-5.18V140h3.78v-1.17a2.35,2.35,0,0,0-.43-1.5,1.48,1.48,0,0,0-1.2-.53,1.43,1.43,0,0,0-1.19.56,2.63,2.63,0,0,0-.41,1.6v3.66a2.3,2.3,0,0,0,.43,1.49,1.77,1.77,0,0,0,2.41.11,1.61,1.61,0,0,0,.42-1.19V143h1.4v.06a2.89,2.89,0,0,1-.78,2.16,3.07,3.07,0,0,1-2.21.76A3.21,3.21,0,0,1,152.21,145.59Z"/><path d="M166.52,135.71h4.68v1.21h-4.68Zm1.08-1.38a2.75,2.75,0,0,1,.66-2,2.43,2.43,0,0,1,1.87-.71h1.07V133h-1a1.06,1.06,0,0,0-.86.36,1.49,1.49,0,0,0-.31,1v11.53h-1.4Z"/><path d="M176,145.64a2.35,2.35,0,0,1-1-1,3.39,3.39,0,0,1-.34-1.59v-4.61a3.31,3.31,0,0,1,.34-1.57,2.36,2.36,0,0,1,1-1,3.82,3.82,0,0,1,3.15,0,2.31,2.31,0,0,1,1,1,3.31,3.31,0,0,1,.35,1.57v4.64a3.38,3.38,0,0,1-.35,1.58,2.28,2.28,0,0,1-1,1,3.46,3.46,0,0,1-1.57.34A3.35,3.35,0,0,1,176,145.64Zm2.68-1.38a1.65,1.65,0,0,0,.4-1.19v-4.64a1.61,1.61,0,0,0-.4-1.17,1.47,1.47,0,0,0-1.11-.42,1.44,1.44,0,0,0-1.11.42,1.65,1.65,0,0,0-.39,1.17v4.64a1.69,1.69,0,0,0,.39,1.19,1.68,1.68,0,0,0,2.22,0Z"/><path d="M185.22,135.71h1.4v10.13h-1.4Zm4.62,1.13h-.05a3.44,3.44,0,0,0-2.26.68,2.59,2.59,0,0,0-.91,1.91l-.2-2a4.16,4.16,0,0,1,1.46-1.43,4,4,0,0,1,2-.51v1.31Z"/><path d="M194.25,135.71h1.4v10.13h-1.4Zm4.49,3a2.21,2.21,0,0,0-.35-1.38,1.22,1.22,0,0,0-1-.46,1.57,1.57,0,0,0-1.27.51,2.35,2.35,0,0,0-.42,1.53l-.2-1.47a3,3,0,0,1,1-1.41,2.31,2.31,0,0,1,1.45-.47,2.14,2.14,0,0,1,1.27.35,2.06,2.06,0,0,1,.76,1.05,5.13,5.13,0,0,1,.26,1.75v7.16h-1.41Zm4.49,0a2,2,0,0,0-.42-1.38,1.62,1.62,0,0,0-1.27-.46,1.19,1.19,0,0,0-1,.51,2.73,2.73,0,0,0-.34,1.53l-.4-1.27a2.93,2.93,0,0,1,.87-1.55,2.15,2.15,0,0,1,1.44-.53,2.65,2.65,0,0,1,1.44.35,2.11,2.11,0,0,1,.86,1.05,4.86,4.86,0,0,1,.28,1.75v7.16h-1.41Z"/><path d="M211,143.14a1.49,1.49,0,0,0,.42,1.13,1.66,1.66,0,0,0,1.2.41,1.59,1.59,0,0,0,1.19-.4,1.56,1.56,0,0,0,.4-1.18l.13,1.32a2.49,2.49,0,0,1-.86,1.18,2.37,2.37,0,0,1-1.39.39,2.28,2.28,0,0,1-1.83-.75,3.07,3.07,0,0,1-.65-2.1v-7.43H211Zm3.21-7.43h1.39v10.13h-1.39Z"/><path d="M220.49,135.71h1.41v10.13h-1.41Zm4.79,3a2,2,0,0,0-.42-1.38,1.63,1.63,0,0,0-1.27-.46,1.55,1.55,0,0,0-1.27.51,2.35,2.35,0,0,0-.42,1.53l-.21-1.47a3.15,3.15,0,0,1,1-1.41,2.64,2.64,0,0,1,3.39.32,3.65,3.65,0,0,1,.64,2.36v7.16h-1.4Z"/><path d="M233,143.14a1.49,1.49,0,0,0,.42,1.13,1.65,1.65,0,0,0,1.19.41,1.63,1.63,0,0,0,1.2-.4,1.6,1.6,0,0,0,.39-1.18l.14,1.32a2.44,2.44,0,0,1-.87,1.18,2.35,2.35,0,0,1-1.39.39,2.28,2.28,0,0,1-1.83-.75,3.12,3.12,0,0,1-.65-2.1v-7.43H233Zm3.2-7.43h1.4v10.13h-1.4Z"/><path d="M248.45,132.2h1.41v1.41h-1.41Zm0,3.51h1.41v10.13h-1.41Z"/><path d="M255,135.71h1.41v10.13H255Zm4.79,3a2,2,0,0,0-.42-1.38,1.63,1.63,0,0,0-1.27-.46,1.55,1.55,0,0,0-1.27.51,2.35,2.35,0,0,0-.42,1.53l-.21-1.47a3.15,3.15,0,0,1,1-1.41,2.64,2.64,0,0,1,3.39.32,3.65,3.65,0,0,1,.64,2.36v7.16h-1.4Z"/><path d="M267.08,145.66a2.25,2.25,0,0,1-.87-1,4.31,4.31,0,0,1-.29-1.65v-4.29a4.54,4.54,0,0,1,.29-1.7,2.35,2.35,0,0,1,.87-1.08,2.42,2.42,0,0,1,1.37-.37,2.24,2.24,0,0,1,1.36.47,3.35,3.35,0,0,1,1,1.32l-.21,1.38a2.56,2.56,0,0,0-.19-1,1.35,1.35,0,0,0-.56-.66,1.68,1.68,0,0,0-.89-.23,1.5,1.5,0,0,0-1.21.51,2.21,2.21,0,0,0-.43,1.44V143a2,2,0,0,0,.43,1.34,1.55,1.55,0,0,0,1.21.48,1.68,1.68,0,0,0,.89-.23,1.33,1.33,0,0,0,.56-.65,2.41,2.41,0,0,0,.19-1l.14,1.36a2.69,2.69,0,0,1-.89,1.3,2.23,2.23,0,0,1-1.4.47A2.5,2.5,0,0,1,267.08,145.66Zm3.52-14H272v14.2H270.6Z"/><path d="M277.14,132.2h1.41v1.41h-1.41Zm0,3.51h1.41v10.13h-1.41Z"/><path d="M283.68,135.71h1.41v10.13h-1.41Zm4.62,1.13h-.05a3.4,3.4,0,0,0-2.25.68,2.52,2.52,0,0,0-.91,1.91l-.21-2a4.11,4.11,0,0,1,1.47-1.43,3.94,3.94,0,0,1,2-.51v1.31Z"/><g class="cls-3"><path class="cls-1" d="M10.19,109.32c-3.27,4.08-7.68,7.13-9.35,12.27a17.46,17.46,0,0,0,.85,12.84c4.06,8.39,14.45,11,22.57,7.25.44-.21.06-.85-.38-.65-8.71,4.08-19.67.17-22.47-9.42a16.55,16.55,0,0,1,1.48-12.82c2-3.42,5.37-5.86,7.83-8.94.3-.37-.23-.91-.53-.53Z"/></g><g class="cls-3"><path class="cls-1" d="M20.26,134.77l2.53,1.89c1.88,1.42,2.46,1.75,3.37,4.12a6.67,6.67,0,0,1,.38,4.86l-.67,3.68c-.08.48.64.68.73.2.38-2.1.77-4.21,1.13-6.31a6.05,6.05,0,0,0,.15-3.21c-.37-.93-1.44-1.52-2.19-2.09-1.67-1.28-3.37-2.53-5.05-3.79-.38-.29-.76.36-.38.65Z"/></g></g></g></svg>