<svg xmlns="http://www.w3.org/2000/svg" viewBox="0 0 236.64 190.82"><defs><style>.cls-1{fill:#e6e6e6;}</style></defs><title>Asset 8</title><g id="Layer_2" data-name="Layer 2"><g id="Layer_1-2" data-name="Layer 1"><rect class="cls-1" x="197.36" width="39.27" height="156"/><path d="M25,99.77h5.73v37.89H25Zm3.21,16.52H40.34v5.39H28.2ZM37,99.77h5.73v37.89H37Z"/><path d="M66.55,99.77h4.53L80,137.66H74.13l-5.32-27.49L63.5,137.66H57.63Zm-3,25.46H74.31v5.34H63.52Z"/><path d="M94.86,99.77h5.74v37.89H94.86Zm3.42,32.52h6a3.18,3.18,0,0,0,2.25-.74,2.74,2.74,0,0,0,.78-2.07v-5a5,5,0,0,0-.38-2,2.72,2.72,0,0,0-1.11-1.29,3.2,3.2,0,0,0-1.72-.45H98.28v-5.34H104a2.56,2.56,0,0,0,2.1-.9,3.89,3.89,0,0,0,.74-2.56v-4a2.54,2.54,0,0,0-2.78-2.78H98.28V99.77h6a10.06,10.06,0,0,1,4.43.9,6.23,6.23,0,0,1,2.81,2.63,8.44,8.44,0,0,1,1,4.16v4a7.27,7.27,0,0,1-.63,3.12,5.8,5.8,0,0,1-1.77,2.2,6.64,6.64,0,0,1-2.79,1.17,7.06,7.06,0,0,1,3.06,1.15,5.82,5.82,0,0,1,1.94,2.31,7.63,7.63,0,0,1,.68,3.32v5.08a8.74,8.74,0,0,1-1,4.22,6.28,6.28,0,0,1-2.75,2.67,9.38,9.38,0,0,1-4.35.93H98.28Z"/><path d="M129,99.77h5.74v37.89H129Zm2.74,0h13.84v5.5H131.78Zm0,16.34h12.53v5.47H131.78Zm0,16h13.84v5.5H131.78Z"/><path d="M161,99.74h5.65v37.92H161Zm2.6,16.45h6.94a4.1,4.1,0,0,0,1.85-.4,2.63,2.63,0,0,0,1.18-1.13,4,4,0,0,0,.43-1.84v-4a4.22,4.22,0,0,0-.4-1.92,2.82,2.82,0,0,0-1.2-1.24,3.81,3.81,0,0,0-1.86-.43h-6.94V99.74h6.52a12.29,12.29,0,0,1,5.21,1,7.25,7.25,0,0,1,3.31,2.94,9,9,0,0,1,1.15,4.65v4.43a9.48,9.48,0,0,1-1.15,4.78,7.43,7.43,0,0,1-3.32,3,12,12,0,0,1-5.2,1h-6.52Zm5.89,4.27,5.29-1.2,6.08,18.4h-6.21Z"/><path d="M216,53V189.82H1V53H216m1-1H0V190.82H217V52Z"/></g></g></svg>