<svg xmlns="http://www.w3.org/2000/svg" viewBox="0 0 37.15 31.63"><defs><style>.cls-1{fill:#e6e6e6;}</style></defs><title>Asset 2</title><g id="Layer_2" data-name="Layer 2"><g id="Layer_1-2" data-name="Layer 1"><circle class="cls-1" cx="14.5" cy="15.76" r="14.5"/><path d="M21.27,0V.75h7.42a7.43,7.43,0,0,1,7.68,7.59c0,4.7,0,9.6,0,15a7.46,7.46,0,0,1-7.63,7.53H13.87a7.43,7.43,0,0,1-7.62-7.64c0-1.77,0-3.54,0-5.3V13.29c0-1.65,0-3.29,0-4.94A7.43,7.43,0,0,1,13.93.76h7.34V0m-.05,29.55,7.51,0A6.09,6.09,0,0,0,35,23.37c.06-5.21.06-10.3,0-15.13a6.11,6.11,0,0,0-6.32-6.15H13.83A6.14,6.14,0,0,0,7.6,8.33c0,5.31,0,10.22,0,15a6.07,6.07,0,0,0,6.25,6.21l7.37,0M21.27,0H13.93A8.21,8.21,0,0,0,5.51,8.35c0,2.46,0,4.92,0,7.38s0,5,0,7.5a8.18,8.18,0,0,0,8.37,8.39H28.76a8.2,8.2,0,0,0,8.37-8.28c0-5,0-10,0-15A8.18,8.18,0,0,0,28.69,0Zm-.05,28.8-7.37,0a5.33,5.33,0,0,1-5.5-5.46q0-7.5,0-15a5.37,5.37,0,0,1,5.49-5.48H28.71a5.36,5.36,0,0,1,5.57,5.41q.09,7.56,0,15.11a5.33,5.33,0,0,1-5.55,5.42l-7.51,0Z"/><path d="M21.29,7.92v.75a7.16,7.16,0,1,1-7.13,7.13,7.07,7.07,0,0,1,7.11-7.13l0-.75m0,13.7h0a5.82,5.82,0,0,0,4.12-1.7,5.73,5.73,0,0,0,1.7-4.11A5.82,5.82,0,0,0,21.3,10a5.74,5.74,0,0,0-5.79,5.81,5.8,5.8,0,0,0,5.8,5.8m0-13.7h0a7.9,7.9,0,0,0,0,15.79h0a7.9,7.9,0,1,0,0-15.79Zm0,13a5.06,5.06,0,0,1,0-10.11h0a5.06,5.06,0,1,1,0,10.11Z"/><path d="M29.65,5.73v.75a1.35,1.35,0,0,1,.94.41,1.31,1.31,0,0,1,.38.94A1.35,1.35,0,0,1,29.61,9.1h0a1.29,1.29,0,0,1-.88-2.22,1.3,1.3,0,0,1,.93-.4V5.73m0,0a2.1,2.1,0,0,0-2.07,2.08,2.08,2.08,0,0,0,2,2h.07a2.11,2.11,0,0,0,2.08-2,2.11,2.11,0,0,0-2.06-2.11Z"/></g></g></svg>