<svg xmlns="http://www.w3.org/2000/svg" viewBox="0 0 290.98 33.37"><title>Asset 7</title><g id="Layer_2" data-name="Layer 2"><g id="Layer_1-2" data-name="Layer 1"><path d="M2.26,6.83H7V33.1H2.26ZM5.51,21.9,13.35,6.83H19L5.84,29.09Zm3-2.64,3.67-2.69L20,33.1H14.56Z" transform="translate(-2.26)"/><path d="M29.76,32.4a6.35,6.35,0,0,1-2.71-2.81,9.71,9.71,0,0,1-.93-4.42V6.83h4.71V25.29a3.48,3.48,0,0,0,.84,2.5,3.07,3.07,0,0,0,2.36.9,3.14,3.14,0,0,0,2.39-.9,3.48,3.48,0,0,0,.84-2.5V6.83H42V25.17A9.58,9.58,0,0,1,41,29.59a6.45,6.45,0,0,1-2.73,2.81,8.82,8.82,0,0,1-4.28,1A8.75,8.75,0,0,1,29.76,32.4Z" transform="translate(-2.26)"/><path d="M51.31,6.81H56V33.1H51.31Zm2,10.91h6.92a2.28,2.28,0,0,0,1.18-.3,1.83,1.83,0,0,0,.76-.84,2.78,2.78,0,0,0,.27-1.26V13.84a3.07,3.07,0,0,0-.27-1.33,1.89,1.89,0,0,0-.75-.87,2.38,2.38,0,0,0-1.19-.29H53.3V6.81h7A8,8,0,0,1,64,7.64,5.8,5.8,0,0,1,66.44,10a7.62,7.62,0,0,1,.85,3.67v1.54A7.87,7.87,0,0,1,66.44,19,5.93,5.93,0,0,1,64,21.41a7.87,7.87,0,0,1-3.73.85h-7Zm4.59,3.73,4.7-.84L68.21,33.1H62.82Z" transform="translate(-2.26)"/><path d="M80.19,32.4a6.35,6.35,0,0,1-2.71-2.81,9.71,9.71,0,0,1-.93-4.42V6.83h4.71V25.29a3.48,3.48,0,0,0,.84,2.5,3.07,3.07,0,0,0,2.36.9,3.11,3.11,0,0,0,2.38-.9,3.44,3.44,0,0,0,.85-2.5V6.83h4.72V25.17a9.58,9.58,0,0,1-.94,4.42,6.45,6.45,0,0,1-2.73,2.81,9.91,9.91,0,0,1-8.55,0Z" transform="translate(-2.26)"/><path d="M106.88,33.37l-1.77-1a6.43,6.43,0,0,1-2.72-2.81,9.8,9.8,0,0,1-.93-4.46V14.81a9.9,9.9,0,0,1,.93-4.47,6.5,6.5,0,0,1,2.72-2.82,8.82,8.82,0,0,1,4.26-1,8.13,8.13,0,0,1,4.14,1,6.49,6.49,0,0,1,2.61,3,13.75,13.75,0,0,1,1.11,5h-4.84a8.66,8.66,0,0,0-.48-2.36,3,3,0,0,0-1-1.38,2.61,2.61,0,0,0-1.53-.45,3.2,3.2,0,0,0-1.65.41,2.63,2.63,0,0,0-1,1.2,4.4,4.4,0,0,0-.37,1.89V25.13a4.35,4.35,0,0,0,.37,1.9,2.69,2.69,0,0,0,1,1.18,3.2,3.2,0,0,0,1.65.41,2.56,2.56,0,0,0,1.53-.45,3.14,3.14,0,0,0,1-1.39,7.61,7.61,0,0,0,.47-2.35h4.84a14.15,14.15,0,0,1-1.13,5,6.5,6.5,0,0,1-2.6,2.95,8.09,8.09,0,0,1-4.13,1Z" transform="translate(-2.26)"/><path d="M129.37,32.4a6.35,6.35,0,0,1-2.71-2.81,9.71,9.71,0,0,1-.93-4.42V6.83h4.72V25.29a3.48,3.48,0,0,0,.84,2.5,3.05,3.05,0,0,0,2.35.9,3.13,3.13,0,0,0,2.39-.9,3.49,3.49,0,0,0,.85-2.5V6.83h4.71V25.17a9.58,9.58,0,0,1-.94,4.42,6.37,6.37,0,0,1-2.72,2.81,9.93,9.93,0,0,1-8.56,0Z" transform="translate(-2.26)"/><path d="M165.26,32.4a6.35,6.35,0,0,1-2.71-2.81,9.71,9.71,0,0,1-.93-4.42V6.83h4.71V25.29a3.48,3.48,0,0,0,.84,2.5,3.07,3.07,0,0,0,2.36.9,3.11,3.11,0,0,0,2.38-.9,3.44,3.44,0,0,0,.85-2.5V6.83h4.72V25.17a9.58,9.58,0,0,1-.94,4.42,6.45,6.45,0,0,1-2.73,2.81,9.91,9.91,0,0,1-8.55,0ZM163.53,0h4.68V4.68h-4.68Zm7.3,0h4.7V4.68h-4.7Z" transform="translate(-2.26)"/><path d="M194.49,23V33.1h-4.71V23L183.47,6.83h4.91l3.75,11.09,3.68-11.09h4.91Z" transform="translate(-2.26)"/><path d="M207.4,6.83h4.7V33.1h-4.7Zm1.88,0H222V11.4H209.28Zm0,11h11.29v4.53H209.28Zm0,10.75H222V33.1H209.28Z" transform="translate(-2.26)"/><path d="M230.59,6.83h4.7V33.1h-4.7Zm2,21.73H245V33.1H232.6Z" transform="translate(-2.26)"/><path d="M253.15,6.83h4.7V33.1h-4.7Zm1.88,0h12.74V11.4H255Zm0,11h11.29v4.53H255Zm0,10.75h12.74V33.1H255Z" transform="translate(-2.26)"/><path d="M276.34,6.81H281V33.1h-4.67Zm2,10.91h6.92a2.28,2.28,0,0,0,1.18-.3,1.83,1.83,0,0,0,.76-.84,2.78,2.78,0,0,0,.27-1.26V13.84a3.07,3.07,0,0,0-.27-1.33,1.89,1.89,0,0,0-.75-.87,2.38,2.38,0,0,0-1.19-.29h-6.92V6.81h7a8,8,0,0,1,3.73.83,5.8,5.8,0,0,1,2.43,2.4,7.62,7.62,0,0,1,.85,3.67v1.54a7.87,7.87,0,0,1-.85,3.73A5.93,5.93,0,0,1,289,21.41a7.87,7.87,0,0,1-3.73.85h-7Zm4.59,3.73,4.7-.84,5.62,12.49h-5.39Z" transform="translate(-2.26)"/></g></g></svg>