<svg xmlns="http://www.w3.org/2000/svg" viewBox="0 0 286.04 161.8"><defs><style>.cls-1{fill:#e6e6e6;}</style></defs><title>Asset 6</title><g id="Layer_2" data-name="Layer 2"><g id="Layer_1-2" data-name="Layer 1"><rect class="cls-1" y="41" width="150" height="109"/><path d="M178,1V62H68V1H178m1-1H67V63H179V0Z"/><path d="M109.36,81V116.5h-7.91V94.58c-.58.32-20.42,26-21,26.82v8.89h-8V118.64C74,116.35,100.38,82.08,101.62,81Z"/><path d="M109.39,161.54h-8V130.46H86.31c-.13-2.7,0-5.32-.08-8h38.3v7.86H109.47C109.31,131.52,109.4,160.4,109.39,161.54Z"/><path d="M136.27,80.88h2.34V96.34h-2.34Zm1.52,13.23h2.4a1.07,1.07,0,0,0,.84-.32,1.35,1.35,0,0,0,.29-.92V84.35a1.33,1.33,0,0,0-.29-.92,1.08,1.08,0,0,0-.84-.33h-2.4V80.88h2.51a3.87,3.87,0,0,1,1.81.39,2.74,2.74,0,0,1,1.16,1.15,3.87,3.87,0,0,1,.4,1.81V93a3.74,3.74,0,0,1-.41,1.8,2.63,2.63,0,0,1-1.16,1.15,3.75,3.75,0,0,1-1.81.4h-2.5Z"/><path d="M148.69,80.88H151V96.34h-2.34Zm1.12,0h5.64v2.24h-5.64Zm0,6.67h5.11v2.23h-5.11Zm0,6.54h5.64v2.25h-5.64Z"/><path d="M161.54,96.06a3,3,0,0,1-1.3-1.27,4.05,4.05,0,0,1-.44-2V92l2.31,0v.76a1.36,1.36,0,0,0,1.5,1.5,1.42,1.42,0,0,0,1.07-.39,1.51,1.51,0,0,0,.38-1.1V91.38a1.43,1.43,0,0,0-.26-.85,2.31,2.31,0,0,0-.65-.59c-.27-.16-.63-.35-1.09-.57l-.06,0-.07,0-.14-.06a10.32,10.32,0,0,1-1.53-.9,3.52,3.52,0,0,1-1-1.21,3.94,3.94,0,0,1-.42-1.91V84.4a4.13,4.13,0,0,1,.44-2,2.84,2.84,0,0,1,1.29-1.25,4.46,4.46,0,0,1,2.05-.43,4.27,4.27,0,0,1,2,.43,2.92,2.92,0,0,1,1.26,1.27,4.39,4.39,0,0,1,.44,2v.84l-2.33,0v-.8a1.6,1.6,0,0,0-.36-1.12,1.31,1.31,0,0,0-1-.38,1.48,1.48,0,0,0-1.08.36,1.38,1.38,0,0,0-.38,1v1a1.54,1.54,0,0,0,.25.87,2,2,0,0,0,.64.59c.25.15.6.33,1,.55l.18.09.19.1.08,0,.07,0a10.65,10.65,0,0,1,1.46.83,3.26,3.26,0,0,1,.94,1.11,3.83,3.83,0,0,1,.4,1.84v1.35a4.23,4.23,0,0,1-.45,2,2.86,2.86,0,0,1-1.28,1.27,4.46,4.46,0,0,1-2,.44A4.52,4.52,0,0,1,161.54,96.06Z"/><path d="M174.58,96.34h-2.34V80.88h2.34Z"/><path d="M187.1,88v4.57a4.54,4.54,0,0,1-.45,2.11A3.12,3.12,0,0,1,185.36,96a4.18,4.18,0,0,1-2,.47,4.38,4.38,0,0,1-2.06-.45,3.08,3.08,0,0,1-1.32-1.28,4.28,4.28,0,0,1-.46-2v-8a4.71,4.71,0,0,1,.45-2.15,3.09,3.09,0,0,1,1.29-1.36,4.18,4.18,0,0,1,2-.47,4.12,4.12,0,0,1,2,.45,3,3,0,0,1,1.27,1.33,4.73,4.73,0,0,1,.45,2.08v1h-2.44v-1a2.25,2.25,0,0,0-.14-.83,1.16,1.16,0,0,0-.44-.53,1.27,1.27,0,0,0-.69-.18,1.47,1.47,0,0,0-.77.19,1.44,1.44,0,0,0-.49.57,2.22,2.22,0,0,0-.17.9v8a1.59,1.59,0,0,0,.18.77,1.17,1.17,0,0,0,.51.5,1.78,1.78,0,0,0,.8.17,1.52,1.52,0,0,0,.79-.19,1.17,1.17,0,0,0,.5-.53,1.93,1.93,0,0,0,.18-.87V90.21h-1.52V88Z"/><path d="M192.12,80.88H194L198,92l-.31.34V80.88h2.17V96.33h-2L194,85.73l.31-.35v11h-2.18Z"/><path d="M214,80.88h1.85l3.63,15.46h-2.39l-2.17-11.22-2.17,11.22h-2.39Zm-1.24,10.39h4.4v2.17h-4.4Z"/><path d="M223.73,80.88h1.93L229.59,92l-.31.34V80.88h2.17V96.33H229.5l-3.9-10.6.31-.35v11h-2.18Z"/><path d="M236.47,80.88h2.34V96.34h-2.34ZM238,94.11h2.41a1,1,0,0,0,.83-.32,1.35,1.35,0,0,0,.29-.92V84.35a1.33,1.33,0,0,0-.29-.92,1,1,0,0,0-.83-.33H238V80.88h2.51a3.91,3.91,0,0,1,1.82.39,2.72,2.72,0,0,1,1.15,1.15,3.75,3.75,0,0,1,.4,1.81V93a3.74,3.74,0,0,1-.4,1.8,2.68,2.68,0,0,1-1.16,1.15,3.79,3.79,0,0,1-1.82.4H238Z"/><path d="M136.27,113.53h2.34V129h-2.34Zm1.52,13.24h2.4a1.08,1.08,0,0,0,.84-.33,1.33,1.33,0,0,0,.29-.92V117a1.35,1.35,0,0,0-.29-.92,1.07,1.07,0,0,0-.84-.32h-2.4v-2.23h2.51a3.87,3.87,0,0,1,1.81.4,2.66,2.66,0,0,1,1.16,1.14,3.87,3.87,0,0,1,.4,1.81v8.76a3.78,3.78,0,0,1-.41,1.81,2.74,2.74,0,0,1-1.16,1.15,3.87,3.87,0,0,1-1.81.39h-2.5Z"/><path d="M148.69,113.53H151V129h-2.34Zm1.12,0h5.64v2.25h-5.64Zm0,6.67h5.11v2.23h-5.11Zm0,6.55h5.64V129h-5.64Z"/><path d="M161.54,128.71a3,3,0,0,1-1.3-1.26,4.08,4.08,0,0,1-.44-2v-.8l2.31,0v.77a1.36,1.36,0,0,0,1.5,1.49,1.42,1.42,0,0,0,1.07-.38,1.53,1.53,0,0,0,.38-1.1V124a1.39,1.39,0,0,0-.26-.85,2.17,2.17,0,0,0-.65-.59c-.27-.16-.63-.35-1.09-.57l-.06,0-.07,0-.14-.06a10.35,10.35,0,0,1-1.53-.89,3.62,3.62,0,0,1-1-1.21,4,4,0,0,1-.42-1.92v-.84a4.16,4.16,0,0,1,.44-2,2.84,2.84,0,0,1,1.29-1.25,4.6,4.6,0,0,1,2.05-.42,4.27,4.27,0,0,1,2,.43,2.84,2.84,0,0,1,1.26,1.26,4.45,4.45,0,0,1,.44,2v.84L165,118v-.8a1.59,1.59,0,0,0-.36-1.12,1.32,1.32,0,0,0-1-.39,1.44,1.44,0,0,0-1.08.37,1.34,1.34,0,0,0-.38,1v1a1.54,1.54,0,0,0,.25.87,2,2,0,0,0,.64.59,11.62,11.62,0,0,0,1,.55l.18.09.19.1.08,0,.07,0a10.65,10.65,0,0,1,1.46.83,3.46,3.46,0,0,1,.94,1.11,3.87,3.87,0,0,1,.4,1.85v1.35a4.26,4.26,0,0,1-.45,2,2.91,2.91,0,0,1-1.28,1.27,4.46,4.46,0,0,1-2,.43A4.52,4.52,0,0,1,161.54,128.71Z"/><path d="M174.58,129h-2.34V113.53h2.34Z"/><path d="M187.1,120.66v4.57a4.59,4.59,0,0,1-.45,2.11,3.15,3.15,0,0,1-1.29,1.34,4.18,4.18,0,0,1-2,.47,4.51,4.51,0,0,1-2.06-.44,3.1,3.1,0,0,1-1.32-1.29,4.24,4.24,0,0,1-.46-2v-8.05a4.74,4.74,0,0,1,.45-2.15,3.14,3.14,0,0,1,1.29-1.36,4.18,4.18,0,0,1,2-.46,4.12,4.12,0,0,1,2,.45,3,3,0,0,1,1.27,1.32,4.76,4.76,0,0,1,.45,2.08v1h-2.44v-1a2.29,2.29,0,0,0-.14-.83,1.16,1.16,0,0,0-.44-.53,1.27,1.27,0,0,0-.69-.18,1.47,1.47,0,0,0-.77.2,1.31,1.31,0,0,0-.49.57,2.17,2.17,0,0,0-.17.89v8.05a1.55,1.55,0,0,0,.18.76,1.17,1.17,0,0,0,.51.5,1.66,1.66,0,0,0,.8.17,1.62,1.62,0,0,0,.79-.18,1.24,1.24,0,0,0,.5-.54,1.86,1.86,0,0,0,.18-.86v-2.38h-1.52v-2.21Z"/><path d="M192.12,113.53H194L198,124.62l-.31.34V113.53h2.17V129h-2l-3.9-10.6.31-.35V129h-2.18Z"/><path d="M211.08,113.53h2.33V129h-2.33Zm1.3,6.74h5v2.2h-5Zm3.61-6.74h2.34V129H216Z"/><path d="M225.57,129h-2.34V113.53h2.34Z"/><path d="M232.08,128.71a3,3,0,0,1-1.31-1.26,4.08,4.08,0,0,1-.44-2v-.8l2.32,0v.77a1.49,1.49,0,0,0,.39,1.1,1.47,1.47,0,0,0,1.11.39,1.39,1.39,0,0,0,1.06-.38,1.49,1.49,0,0,0,.38-1.1V124a1.38,1.38,0,0,0-.25-.85,2.09,2.09,0,0,0-.66-.59c-.26-.16-.63-.35-1.09-.57l-.06,0-.06,0-.14-.06a10.35,10.35,0,0,1-1.53-.89,3.64,3.64,0,0,1-1-1.21,4,4,0,0,1-.42-1.92v-.84a4.28,4.28,0,0,1,.44-2,2.94,2.94,0,0,1,1.29-1.25,4.6,4.6,0,0,1,2.05-.42,4.27,4.27,0,0,1,2,.43,2.75,2.75,0,0,1,1.26,1.26,4.32,4.32,0,0,1,.44,2v.84l-2.32,0v-.8a1.59,1.59,0,0,0-.36-1.12,1.36,1.36,0,0,0-1-.39A1.46,1.46,0,0,0,233,116a1.34,1.34,0,0,0-.37,1v1a1.46,1.46,0,0,0,.25.87,2,2,0,0,0,.63.59c.26.15.61.34,1,.55l.19.09.19.1.07,0,.07,0a10.08,10.08,0,0,1,1.46.83,3.49,3.49,0,0,1,.95,1.11,3.87,3.87,0,0,1,.39,1.85v1.35a4.38,4.38,0,0,1-.44,2,2.93,2.93,0,0,1-1.29,1.27,4.39,4.39,0,0,1-2,.43A4.52,4.52,0,0,1,232.08,128.71Z"/><path d="M241.83,113.53h7.63v2.23h-7.63Zm2.65,1.28h2.32V129h-2.32Z"/><path d="M255.22,128.7a3.07,3.07,0,0,1-1.34-1.28,4.14,4.14,0,0,1-.46-2v-8.25a4.18,4.18,0,0,1,.46-2,3.07,3.07,0,0,1,1.34-1.28,5.26,5.26,0,0,1,4.21,0,3,3,0,0,1,1.33,1.28,4.18,4.18,0,0,1,.46,2v8.25a4.14,4.14,0,0,1-.46,2,3,3,0,0,1-1.33,1.28,5.15,5.15,0,0,1-4.21,0Zm2.94-2a1.23,1.23,0,0,0,.53-.55,1.84,1.84,0,0,0,.18-.85v-8a1.87,1.87,0,0,0-.18-.85,1.16,1.16,0,0,0-.53-.54,1.68,1.68,0,0,0-.84-.19,1.74,1.74,0,0,0-.84.19,1.2,1.2,0,0,0-.53.54,1.87,1.87,0,0,0-.18.85v8a1.84,1.84,0,0,0,.18.85,1.28,1.28,0,0,0,.53.55,1.74,1.74,0,0,0,.84.19A1.68,1.68,0,0,0,258.16,126.66Z"/><path d="M266.25,113.52h2.3V129h-2.3Zm1.06,6.71h2.83a1.6,1.6,0,0,0,.75-.16,1.09,1.09,0,0,0,.49-.46,1.66,1.66,0,0,0,.17-.75v-1.65a1.73,1.73,0,0,0-.16-.78,1.21,1.21,0,0,0-.49-.51,1.55,1.55,0,0,0-.76-.17h-2.83v-2.23H270a5,5,0,0,1,2.12.41,3,3,0,0,1,1.35,1.2,3.69,3.69,0,0,1,.47,1.9v1.81a3.86,3.86,0,0,1-.47,2,3.07,3.07,0,0,1-1.35,1.24,4.92,4.92,0,0,1-2.12.42h-2.66Zm2.4,1.74,2.16-.48,2.48,7.5h-2.53Z"/><path d="M283.14,122.79V129h-2.31v-6.2l-3-9.26h2.4l1.75,6.53,1.65-6.53H286Z"/><path d="M137.87,161.37a3,3,0,0,1-1.31-1.27,4.05,4.05,0,0,1-.44-2v-.79l2.32,0V158a1.49,1.49,0,0,0,.39,1.1,1.44,1.44,0,0,0,1.11.4,1.4,1.4,0,0,0,1.06-.39,1.47,1.47,0,0,0,.38-1.1v-1.35a1.4,1.4,0,0,0-.25-.85,2.22,2.22,0,0,0-.66-.59c-.26-.16-.63-.35-1.09-.57l-.06,0-.06,0-.14-.07a9.54,9.54,0,0,1-1.53-.89,3.64,3.64,0,0,1-1-1.21,3.94,3.94,0,0,1-.42-1.91v-.84a4.25,4.25,0,0,1,.44-2,3,3,0,0,1,1.29-1.26,4.6,4.6,0,0,1,2-.42,4.27,4.27,0,0,1,2,.43,2.84,2.84,0,0,1,1.26,1.26,4.33,4.33,0,0,1,.44,2v.84l-2.32,0v-.8a1.59,1.59,0,0,0-.36-1.12,1.36,1.36,0,0,0-1-.39,1.5,1.5,0,0,0-1.08.37,1.34,1.34,0,0,0-.37,1v1a1.52,1.52,0,0,0,.25.88,2.09,2.09,0,0,0,.63.59q.39.23,1,.54l.19.09.19.1.07,0,.07,0a9.22,9.22,0,0,1,1.46.83,3.28,3.28,0,0,1,.95,1.11,3.83,3.83,0,0,1,.39,1.84v1.35a4.35,4.35,0,0,1-.44,2,2.88,2.88,0,0,1-1.29,1.27,4.39,4.39,0,0,1-2,.43A4.52,4.52,0,0,1,137.87,161.37Z"/><path d="M150.48,161.36a3.15,3.15,0,0,1-1.34-1.29,4.14,4.14,0,0,1-.46-2v-8.25a4.14,4.14,0,0,1,.46-2,3,3,0,0,1,1.34-1.29,4.65,4.65,0,0,1,2.1-.44,4.73,4.73,0,0,1,2.11.44,3,3,0,0,1,1.33,1.29,4.14,4.14,0,0,1,.46,2V158a4.14,4.14,0,0,1-.46,2,3.12,3.12,0,0,1-1.33,1.29,4.73,4.73,0,0,1-2.11.44A4.65,4.65,0,0,1,150.48,161.36Zm2.94-2a1.28,1.28,0,0,0,.53-.55,1.88,1.88,0,0,0,.18-.86v-8a1.91,1.91,0,0,0-.18-.86,1.26,1.26,0,0,0-.53-.54,1.8,1.8,0,0,0-.84-.19,1.86,1.86,0,0,0-.84.19,1.26,1.26,0,0,0-.53.54,1.91,1.91,0,0,0-.18.86v8a1.88,1.88,0,0,0,.18.86,1.28,1.28,0,0,0,.53.55,1.86,1.86,0,0,0,.84.19A1.8,1.8,0,0,0,153.42,159.32Z"/><path d="M163.2,161.34a3.16,3.16,0,0,1-1.26-1.35,4.79,4.79,0,0,1-.43-2.13V150a4.76,4.76,0,0,1,.43-2.13,3.05,3.05,0,0,1,1.26-1.35,3.79,3.79,0,0,1,2-.47,3.94,3.94,0,0,1,2,.46,3,3,0,0,1,1.25,1.36,4.79,4.79,0,0,1,.43,2.13v1h-2.36v-1a2.35,2.35,0,0,0-.15-.88,1.13,1.13,0,0,0-.44-.56,1.23,1.23,0,0,0-.71-.19,1.14,1.14,0,0,0-1.13.75,2.13,2.13,0,0,0-.16.88v7.88a2.1,2.1,0,0,0,.16.88,1.16,1.16,0,0,0,.44.55,1.19,1.19,0,0,0,.69.2,1.27,1.27,0,0,0,.72-.2,1.23,1.23,0,0,0,.43-.56,2.28,2.28,0,0,0,.15-.88v-.95h2.36v.95a5,5,0,0,1-.44,2.14,3,3,0,0,1-1.24,1.35,4,4,0,0,1-2,.46A3.89,3.89,0,0,1,163.2,161.34Z"/><path d="M175.85,161.64h-2.34V146.19h2.34Z"/><path d="M180.76,146.19h2.34v15.45h-2.34Zm1.12,0h5.64v2.24h-5.64Zm0,6.66H187v2.23h-5.11Zm0,6.55h5.64v2.24h-5.64Z"/><path d="M191,146.19h7.63v2.22H191Zm2.66,1.27h2.32v14.18h-2.32Z"/><path d="M207.54,155.45v6.19h-2.32v-6.19l-3-9.26h2.4l1.74,6.52,1.66-6.52h2.4Z"/></g></g></svg>