<svg xmlns="http://www.w3.org/2000/svg" viewBox="0 0 269.2 149.8"><defs><style>.cls-1{fill:#b3b3b3;}.cls-2{fill:none;stroke:#000;stroke-miterlimit:10;}.cls-3{opacity:0.51;}</style></defs><title>Asset 13</title><g id="Layer_2" data-name="Layer 2"><g id="Layer_1-2" data-name="Layer 1"><rect class="cls-1" x="10.18" width="13.5" height="122"/><rect class="cls-2" x="17.32" y="0.5" width="19" height="121" transform="translate(53.64 122) rotate(180)"/><path d="M36.77,25.64h3.31l3.51,15.94,2.09-15.94H50L45.78,49.07h-4L38.53,33.33,35.06,49.07h-4L26.88,25.64h4.3l2.08,15.94Z"/><path d="M53.45,25.64h4.19V49.07H53.45Zm8.12,12.5a2.17,2.17,0,0,0-.52-1.57A2,2,0,0,0,59.58,36a1.86,1.86,0,0,0-1.44.55,2.27,2.27,0,0,0-.5,1.56l-.29-2.88A5.62,5.62,0,0,1,59,32.89a3.7,3.7,0,0,1,2.4-.82,3.93,3.93,0,0,1,3.25,1.44,6.38,6.38,0,0,1,1.15,4.09V49.07H61.57Z"/><path d="M71.62,48.05a5.31,5.31,0,0,1-1.15-3.72,5,5,0,0,1,1.45-3.9,6.15,6.15,0,0,1,4.3-1.34h2.71l.23,3.28H76.34a2.07,2.07,0,0,0-1.5.49,2,2,0,0,0-.5,1.47,1.42,1.42,0,0,0,.46,1.16,2.18,2.18,0,0,0,1.41.39,3.58,3.58,0,0,0,2-.44,1.45,1.45,0,0,0,.66-1.3l.31,1.92a3.15,3.15,0,0,1-.62,1.78,3.4,3.4,0,0,1-1.45,1.1,5.18,5.18,0,0,1-2,.37A4.44,4.44,0,0,1,71.62,48.05Zm7.21-10.29a1.79,1.79,0,0,0-.56-1.4,2.41,2.41,0,0,0-1.6-.49,2.76,2.76,0,0,0-1.37.34,2.58,2.58,0,0,0-1,.93l-3.27-1.33a4.75,4.75,0,0,1,2-2.75,6.51,6.51,0,0,1,3.69-1,7.1,7.1,0,0,1,3.23.67A4.73,4.73,0,0,1,82,34.66a6.12,6.12,0,0,1,.71,3V49.07H78.83Z"/><path d="M86.67,32.34h7.86v3.71H86.67ZM89.28,48a4.68,4.68,0,0,1-1-3.31V27.48h4.2V43.85a1.36,1.36,0,0,0,.26.9.92.92,0,0,0,.73.31h1.11v4.09h-2A4.25,4.25,0,0,1,89.28,48Z"/><path d="M105.81,32.34H110V49.07h-4.22Zm8.24,6a2.51,2.51,0,0,0-.54-1.73A2,2,0,0,0,112,36a1.86,1.86,0,0,0-1.44.55,2.28,2.28,0,0,0-.5,1.57l-.34-2.89a5.43,5.43,0,0,1,1.68-2.33,3.84,3.84,0,0,1,2.42-.81,4.34,4.34,0,0,1,2.41.65,4.08,4.08,0,0,1,1.53,1.91,7.87,7.87,0,0,1,.52,3V49.07h-4.2Zm8.23,0a2.61,2.61,0,0,0-.52-1.73,2.16,2.16,0,0,0-3,0,2.46,2.46,0,0,0-.52,1.69l-.55-3a5.71,5.71,0,0,1,1.81-2.36,4.12,4.12,0,0,1,2.49-.83,4.18,4.18,0,0,1,2.43.68,4.28,4.28,0,0,1,1.54,2,8.31,8.31,0,0,1,.53,3.12V49.07h-4.22Z"/><path d="M135.74,49.31l-1.45-.75a5.14,5.14,0,0,1-2.21-2.17,6.92,6.92,0,0,1-.78-3.4V38.71a7.86,7.86,0,0,1,.75-3.58,5.09,5.09,0,0,1,2.14-2.26,6.84,6.84,0,0,1,3.38-.78,6.15,6.15,0,0,1,3.31.85A5.41,5.41,0,0,1,143,35.43a9.78,9.78,0,0,1,.72,4v2.95h-9.31v-3h5.36V38.16a2.3,2.3,0,0,0-.6-1.68,2.06,2.06,0,0,0-1.56-.62,2.12,2.12,0,0,0-1.69.7,2.87,2.87,0,0,0-.61,2v4.54A2.59,2.59,0,0,0,135.9,45a2.69,2.69,0,0,0,3.21.22A2.58,2.58,0,0,0,140,43.9l3.53,1.33a5,5,0,0,1-2,3.06,6.4,6.4,0,0,1-3.76,1Z"/><path d="M149.12,48.05A5.31,5.31,0,0,1,148,44.33a5,5,0,0,1,1.45-3.9,6.14,6.14,0,0,1,4.3-1.34h2.71l.22,3.28h-2.82a2.06,2.06,0,0,0-1.49.49,1.94,1.94,0,0,0-.5,1.47,1.42,1.42,0,0,0,.46,1.16,2.14,2.14,0,0,0,1.4.39,3.61,3.61,0,0,0,2-.44,1.45,1.45,0,0,0,.66-1.3l.31,1.92a3.23,3.23,0,0,1-.62,1.78,3.47,3.47,0,0,1-1.45,1.1,5.18,5.18,0,0,1-2,.37A4.43,4.43,0,0,1,149.12,48.05Zm7.21-10.29a1.79,1.79,0,0,0-.56-1.4,2.41,2.41,0,0,0-1.6-.49,2.82,2.82,0,0,0-1.38.34,2.55,2.55,0,0,0-1,.93l-3.27-1.33a4.75,4.75,0,0,1,2-2.75,6.51,6.51,0,0,1,3.69-1,7.13,7.13,0,0,1,3.23.67,4.73,4.73,0,0,1,2.06,1.92,6.11,6.11,0,0,1,.7,3V49.07h-3.88Z"/><path d="M165.45,32.34h4.21V49.07h-4.21Zm8.12,5.74a2.11,2.11,0,0,0-.52-1.54,2,2,0,0,0-1.47-.54,1.82,1.82,0,0,0-1.42.54,2.18,2.18,0,0,0-.5,1.56l-.34-2.84A5.82,5.82,0,0,1,171,32.88a3.74,3.74,0,0,1,2.4-.81,3.9,3.9,0,0,1,3.25,1.45,6.39,6.39,0,0,1,1.15,4.08V49.07h-4.19Z"/><path d="M186.47,49.31l-1.34-.47a5.78,5.78,0,0,1-2.23-1.4,4.9,4.9,0,0,1-1.25-2.19l3.4-1.76a3.72,3.72,0,0,0,3.35,2A2.77,2.77,0,0,0,190,45.1a1.22,1.22,0,0,0,.22-1.89,2.27,2.27,0,0,0-.85-.48c-.34-.11-.83-.24-1.46-.38l-.41-.11-.46-.1-.11,0-.12,0a12.48,12.48,0,0,1-2.34-.79,3.85,3.85,0,0,1-1.58-1.43,4.68,4.68,0,0,1-.64-2.62,5.28,5.28,0,0,1,.7-2.75,4.53,4.53,0,0,1,2-1.78,7.27,7.27,0,0,1,3.14-.62,8,8,0,0,1,2.77.45,5.4,5.4,0,0,1,2.05,1.33,4.87,4.87,0,0,1,1.2,2.1l-3.38,1.67a3.28,3.28,0,0,0-1.11-1.27,2.79,2.79,0,0,0-1.56-.45,2.72,2.72,0,0,0-1.46.33,1,1,0,0,0-.53.93,1,1,0,0,0,.37.83,2.55,2.55,0,0,0,.91.49,14.7,14.7,0,0,0,1.58.37l.13,0,.14,0a.09.09,0,0,0,.06,0l.07,0a16,16,0,0,1,2.61.74,3.88,3.88,0,0,1,1.72,1.44,5,5,0,0,1,.71,2.88,5.23,5.23,0,0,1-.74,2.81,4.77,4.77,0,0,1-2.16,1.83,7.87,7.87,0,0,1-3.3.64Z"/><path d="M204.35,32.34h7.87v3.71h-7.87ZM207,48a4.68,4.68,0,0,1-1.05-3.31V27.48h4.2V43.85a1.36,1.36,0,0,0,.26.9.91.91,0,0,0,.73.31h1.11v4.09h-2A4.25,4.25,0,0,1,207,48Z"/><path d="M219.2,48.62a4.72,4.72,0,0,1-2.09-2,6.59,6.59,0,0,1-.72-3.19V37.92a6.51,6.51,0,0,1,.72-3.17,4.76,4.76,0,0,1,2.09-2,8.35,8.35,0,0,1,6.6,0,4.81,4.81,0,0,1,2.09,2,6.51,6.51,0,0,1,.72,3.17v5.53a6.47,6.47,0,0,1-.72,3.16,4.78,4.78,0,0,1-2.09,2,8.24,8.24,0,0,1-6.6,0Zm4.73-3.78a2.27,2.27,0,0,0,.5-1.56V38.06a2.21,2.21,0,0,0-.5-1.54A1.91,1.91,0,0,0,222.5,36a1.88,1.88,0,0,0-1.43.55,2.22,2.22,0,0,0-.5,1.53v5.22a2.23,2.23,0,0,0,.5,1.57,2.15,2.15,0,0,0,2.86,0Z"/><path d="M240.2,25.64h4.19V49.07H240.2Zm5.39,22.92a4.37,4.37,0,0,1-1.43-2.12l.23-3.08a2.78,2.78,0,0,0,.21,1.15,1.57,1.57,0,0,0,.66.71,2.09,2.09,0,0,0,1,.24,1.72,1.72,0,0,0,1.42-.63,2.8,2.8,0,0,0,.5-1.77V38.32a2.79,2.79,0,0,0-.5-1.76,1.7,1.7,0,0,0-1.42-.64,2.08,2.08,0,0,0-1,.24,1.52,1.52,0,0,0-.65.72,2.78,2.78,0,0,0-.21,1.13l-.34-2.88a5.66,5.66,0,0,1,1.63-2.25,3.4,3.4,0,0,1,2.2-.81,4.19,4.19,0,0,1,2.43.69,4.28,4.28,0,0,1,1.53,2,8.87,8.87,0,0,1,.52,3.24v5.32a8.58,8.58,0,0,1-.53,3.22,4.32,4.32,0,0,1-1.55,2,4.12,4.12,0,0,1-2.43.7A3.56,3.56,0,0,1,245.59,48.56Z"/><path d="M261.26,49.31l-1.44-.75a5.22,5.22,0,0,1-2.22-2.17,7,7,0,0,1-.77-3.4V38.71a7.86,7.86,0,0,1,.74-3.58,5.14,5.14,0,0,1,2.14-2.26,6.88,6.88,0,0,1,3.39-.78,6.12,6.12,0,0,1,3.3.85,5.43,5.43,0,0,1,2.09,2.49,10,10,0,0,1,.71,4v2.95h-9.31v-3h5.37V38.16a2.31,2.31,0,0,0-.61-1.68,2,2,0,0,0-1.55-.62,2.14,2.14,0,0,0-1.7.7,2.92,2.92,0,0,0-.61,2v4.54a2.59,2.59,0,0,0,.63,1.88,2.69,2.69,0,0,0,3.21.22,2.45,2.45,0,0,0,.85-1.27L269,45.23a5,5,0,0,1-1.94,3.06,6.42,6.42,0,0,1-3.76,1Z"/><path d="M29.35,87.65a5.34,5.34,0,0,1-1.15-3.72A5,5,0,0,1,29.65,80,6.15,6.15,0,0,1,34,78.69h2.71L36.89,82H34.07a2,2,0,0,0-1.49.49,2,2,0,0,0-.51,1.47,1.39,1.39,0,0,0,.47,1.16,2.13,2.13,0,0,0,1.4.39,3.58,3.58,0,0,0,2-.44,1.45,1.45,0,0,0,.66-1.3l.31,1.92a3.15,3.15,0,0,1-.62,1.78,3.4,3.4,0,0,1-1.45,1.1,5.18,5.18,0,0,1-2,.37A4.44,4.44,0,0,1,29.35,87.65Zm7.21-10.29A1.75,1.75,0,0,0,36,76a2.41,2.41,0,0,0-1.6-.49,2.87,2.87,0,0,0-1.37.34,2.53,2.53,0,0,0-1,.94l-3.27-1.34a4.75,4.75,0,0,1,2-2.75,6.51,6.51,0,0,1,3.69-1,7.1,7.1,0,0,1,3.23.67,4.73,4.73,0,0,1,2.06,1.92,6.12,6.12,0,0,1,.71,3V88.67H36.56Z"/><path d="M52.38,71.94H56.6V88.67H52.38Zm8.23,6a2.56,2.56,0,0,0-.53-1.73,2,2,0,0,0-1.55-.6,1.85,1.85,0,0,0-1.43.54,2.23,2.23,0,0,0-.5,1.57l-.34-2.89a5.6,5.6,0,0,1,1.67-2.34,3.91,3.91,0,0,1,2.42-.8,4.37,4.37,0,0,1,2.42.65,4.13,4.13,0,0,1,1.52,1.91,7.87,7.87,0,0,1,.52,3V88.67h-4.2Zm8.23,0a2.55,2.55,0,0,0-.52-1.73,2.18,2.18,0,0,0-3,0,2.48,2.48,0,0,0-.53,1.69l-.54-3a5.69,5.69,0,0,1,1.8-2.36,4.16,4.16,0,0,1,6.46,1.82,8.08,8.08,0,0,1,.53,3.12V88.67H68.84Z"/><path d="M82.3,88.91l-1.44-.75A5.22,5.22,0,0,1,78.64,86a7,7,0,0,1-.77-3.4V78.31a8,8,0,0,1,.74-3.58,5.14,5.14,0,0,1,2.14-2.26,6.9,6.9,0,0,1,3.39-.78,6.09,6.09,0,0,1,3.3.85A5.43,5.43,0,0,1,89.53,75a9.79,9.79,0,0,1,.71,4v3H80.93V79H86.3V77.76a2.31,2.31,0,0,0-.61-1.68,2,2,0,0,0-1.55-.62,2.14,2.14,0,0,0-1.7.7,2.92,2.92,0,0,0-.61,2v4.54a2.59,2.59,0,0,0,.63,1.88,2.33,2.33,0,0,0,1.77.65,2.35,2.35,0,0,0,1.45-.43,2.54,2.54,0,0,0,.84-1.27l3.53,1.33a5,5,0,0,1-1.94,3.06,6.42,6.42,0,0,1-3.76,1Z"/><path d="M95.06,71.94h4.22V88.67H95.06Zm8.24,6a2.51,2.51,0,0,0-.54-1.73,2,2,0,0,0-1.54-.6,1.87,1.87,0,0,0-1.44.54,2.28,2.28,0,0,0-.5,1.57L99,74.81a5.51,5.51,0,0,1,1.67-2.34,3.91,3.91,0,0,1,2.42-.8,4.4,4.4,0,0,1,2.42.65A4.13,4.13,0,0,1,107,74.23a7.87,7.87,0,0,1,.52,3V88.67h-4.2Zm8.23,0a2.55,2.55,0,0,0-.52-1.73,2.18,2.18,0,0,0-3,0,2.48,2.48,0,0,0-.53,1.69l-.55-3a5.8,5.8,0,0,1,1.81-2.36,4.13,4.13,0,0,1,2.5-.83,4.17,4.17,0,0,1,2.42.68,4.22,4.22,0,0,1,1.54,2,8.27,8.27,0,0,1,.53,3.12V88.67h-4.22Z"/><path d="M121,65.24h4.19V88.67H121Zm5.39,22.92A4.44,4.44,0,0,1,125,86l.23-3.08a2.62,2.62,0,0,0,.22,1.15,1.5,1.5,0,0,0,.65.71,2.09,2.09,0,0,0,1,.24,1.71,1.71,0,0,0,1.42-.63,2.8,2.8,0,0,0,.5-1.77V77.92a2.79,2.79,0,0,0-.5-1.76,1.69,1.69,0,0,0-1.42-.64,2.1,2.1,0,0,0-1,.24,1.51,1.51,0,0,0-.64.72,2.64,2.64,0,0,0-.22,1.14l-.34-2.89a5.77,5.77,0,0,1,1.63-2.26,3.45,3.45,0,0,1,2.21-.8,4.18,4.18,0,0,1,2.42.69,4.28,4.28,0,0,1,1.53,2,8.86,8.86,0,0,1,.53,3.24V83a8.57,8.57,0,0,1-.54,3.22,4.37,4.37,0,0,1-1.54,2,4.17,4.17,0,0,1-2.44.7A3.56,3.56,0,0,1,126.38,88.16Z"/><path d="M142.05,88.91l-1.44-.75A5.22,5.22,0,0,1,138.39,86a7,7,0,0,1-.77-3.4V78.31a8,8,0,0,1,.74-3.58,5.17,5.17,0,0,1,2.15-2.26,6.84,6.84,0,0,1,3.38-.78,6.09,6.09,0,0,1,3.3.85A5.43,5.43,0,0,1,149.28,75a9.78,9.78,0,0,1,.72,4v3h-9.32V79h5.37V77.76a2.27,2.27,0,0,0-.61-1.68,2,2,0,0,0-1.55-.62,2.1,2.1,0,0,0-1.69.7,2.87,2.87,0,0,0-.61,2v4.54a2.59,2.59,0,0,0,.62,1.88,2.33,2.33,0,0,0,1.78.65,2.3,2.3,0,0,0,1.44-.43,2.54,2.54,0,0,0,.84-1.27l3.53,1.33a5,5,0,0,1-1.94,3.06,6.42,6.42,0,0,1-3.76,1Z"/><path d="M154.82,71.94h4.35V88.67h-4.35Zm8.07,4a3.51,3.51,0,0,0-.82-.08,2.72,2.72,0,0,0-2.14.85,3.43,3.43,0,0,0-.76,2.37l-.34-4.27a6.06,6.06,0,0,1,1.83-2.34,3.92,3.92,0,0,1,2.45-.85,2.63,2.63,0,0,1,.95.17,2,2,0,0,1,.73.49l-1.27,3.92A1.78,1.78,0,0,0,162.89,76Z"/><path d="M170.3,80.37l.33-1.33a9.26,9.26,0,0,1,.81-2.2q.48-.87,1.23-2c.38-.55.67-1,.88-1.35a5.8,5.8,0,0,0,.52-1.21,4.93,4.93,0,0,0,.21-1.47v-.11a2.19,2.19,0,0,0-.45-1.47,1.63,1.63,0,0,0-1.29-.51,1.36,1.36,0,0,0-1.27.73,4.68,4.68,0,0,0-.43,2.26h-4.26a9.81,9.81,0,0,1,.71-3.77,4.58,4.58,0,0,1,2-2.23,6.58,6.58,0,0,1,3.28-.73,7.45,7.45,0,0,1,3.23.64,4.62,4.62,0,0,1,2.05,1.88,5.87,5.87,0,0,1,.71,3v.11a7.5,7.5,0,0,1-.91,3.75,16.75,16.75,0,0,1-1,1.58,15,15,0,0,0-1.11,1.75,8.18,8.18,0,0,0-.69,1.87,10.59,10.59,0,0,0-.28,2.59H170.3Zm0,4.09h4.19v4.21h-4.19Z"/><path d="M37,131.64h1.41v14.2H37Zm.76,12.89h3.46a1,1,0,0,0,.78-.3,1.25,1.25,0,0,0,.27-.86v-9.26a1.27,1.27,0,0,0-.27-.86,1,1,0,0,0-.78-.3H37.71v-1.31h3.4a2.92,2.92,0,0,1,1.37.3,2,2,0,0,1,.86.87,3.06,3.06,0,0,1,.29,1.38v9.1a2.93,2.93,0,0,1-.3,1.38,1.91,1.91,0,0,1-.86.87,2.92,2.92,0,0,1-1.37.3H37.71Z"/><path d="M49.6,145.64a2.3,2.3,0,0,1-1-1,3.39,3.39,0,0,1-.34-1.59v-4.61a3.31,3.31,0,0,1,.34-1.57,2.31,2.31,0,0,1,1-1,3.82,3.82,0,0,1,3.15,0,2.31,2.31,0,0,1,1,1,3.31,3.31,0,0,1,.35,1.57v4.64a3.38,3.38,0,0,1-.35,1.58,2.28,2.28,0,0,1-1,1,3.46,3.46,0,0,1-1.57.34A3.35,3.35,0,0,1,49.6,145.64Zm2.68-1.38a1.65,1.65,0,0,0,.4-1.19v-4.64a1.61,1.61,0,0,0-.4-1.17,1.47,1.47,0,0,0-1.11-.42,1.44,1.44,0,0,0-1.11.42,1.65,1.65,0,0,0-.39,1.17v4.64a1.69,1.69,0,0,0,.39,1.19,1.68,1.68,0,0,0,2.22,0Z"/><path d="M58,135.71h1.3L61,143.92l1.7-8.21h1l1.7,8.21,1.7-8.21h1.3l-2.35,10.13h-1.3l-1.55-7-1.54,7H60.38Z"/><path d="M72.77,135.71h1.41v10.13H72.77Zm4.79,3a2,2,0,0,0-.42-1.38,1.63,1.63,0,0,0-1.27-.46,1.55,1.55,0,0,0-1.27.51,2.35,2.35,0,0,0-.42,1.53L74,137.41a3.15,3.15,0,0,1,1-1.41,2.64,2.64,0,0,1,3.39.32,3.65,3.65,0,0,1,.64,2.36v7.16h-1.4Z"/><path d="M85.3,143.18a1.57,1.57,0,0,0,.28,1,1,1,0,0,0,.82.35H87v1.31h-.78a2.2,2.2,0,0,1-1.75-.7,2.92,2.92,0,0,1-.62-2V131.64H85.3Z"/><path d="M92.43,145.64a2.3,2.3,0,0,1-1-1,3.39,3.39,0,0,1-.35-1.59v-4.61a3.31,3.31,0,0,1,.35-1.57,2.31,2.31,0,0,1,1-1,3.82,3.82,0,0,1,3.15,0,2.31,2.31,0,0,1,1,1,3.31,3.31,0,0,1,.34,1.57v4.64a3.38,3.38,0,0,1-.34,1.58,2.28,2.28,0,0,1-1,1A3.48,3.48,0,0,1,94,146,3.34,3.34,0,0,1,92.43,145.64Zm2.68-1.38a1.65,1.65,0,0,0,.4-1.19v-4.64a1.66,1.66,0,0,0-.4-1.17,1.48,1.48,0,0,0-1.12-.42,1.43,1.43,0,0,0-1.1.42,1.65,1.65,0,0,0-.39,1.17v4.64a1.69,1.69,0,0,0,.39,1.19,1.43,1.43,0,0,0,1.1.42A1.45,1.45,0,0,0,95.11,144.26Z"/><path d="M102.16,145.28a3,3,0,0,1-.66-2.13,3.68,3.68,0,0,1,.78-2.56,3,3,0,0,1,2.35-.84h1.8l.14,1h-1.93a1.63,1.63,0,0,0-1.39.6,2.88,2.88,0,0,0-.46,1.79,1.92,1.92,0,0,0,.42,1.35,1.64,1.64,0,0,0,1.26.45,1.87,1.87,0,0,0,1.41-.49,2.11,2.11,0,0,0,.46-1.49l.21.84a2.57,2.57,0,0,1-.28,1.21,1.65,1.65,0,0,1-.79.73,3.24,3.24,0,0,1-1.32.24A2.64,2.64,0,0,1,102.16,145.28Zm4.18-6.86a1.71,1.71,0,0,0-.45-1.27,1.74,1.74,0,0,0-1.28-.45,1.45,1.45,0,0,0-1.14.45,1.83,1.83,0,0,0-.41,1.27h-1.35a2.81,2.81,0,0,1,.77-2.13,2.94,2.94,0,0,1,2.17-.76,3.54,3.54,0,0,1,1.63.34,2.33,2.33,0,0,1,1,1,3.16,3.16,0,0,1,.35,1.56v7.42h-1.31Z"/><path d="M113.55,145.66a2.25,2.25,0,0,1-.87-1,4.31,4.31,0,0,1-.29-1.65v-4.29a4.54,4.54,0,0,1,.29-1.7,2.35,2.35,0,0,1,.87-1.08,2.42,2.42,0,0,1,1.37-.37,2.24,2.24,0,0,1,1.36.47,3.26,3.26,0,0,1,1,1.32l-.21,1.38a2.56,2.56,0,0,0-.19-1,1.35,1.35,0,0,0-.56-.66,1.68,1.68,0,0,0-.89-.23,1.5,1.5,0,0,0-1.21.51,2.21,2.21,0,0,0-.43,1.44V143a2,2,0,0,0,.43,1.34,1.55,1.55,0,0,0,1.21.48,1.68,1.68,0,0,0,.89-.23,1.33,1.33,0,0,0,.56-.65,2.41,2.41,0,0,0,.19-1l.14,1.36a2.62,2.62,0,0,1-.89,1.3,2.23,2.23,0,0,1-1.4.47A2.5,2.5,0,0,1,113.55,145.66Zm3.52-14h1.41v14.2h-1.41Z"/><path d="M128,131.64h6.9V133H128Zm2.75,1.16h1.4v13h-1.4Z"/><path d="M138.79,131.64h1.41v14.2h-1.41Zm4.79,7a2,2,0,0,0-.42-1.38,1.63,1.63,0,0,0-1.27-.46,1.55,1.55,0,0,0-1.27.51,2.35,2.35,0,0,0-.42,1.53l-.21-1.66a2.84,2.84,0,0,1,1-1.27,2.47,2.47,0,0,1,1.46-.42,2.32,2.32,0,0,1,1.93.79,3.65,3.65,0,0,1,.64,2.36v7.16h-1.4Z"/><path d="M151.14,145.59a2.58,2.58,0,0,1-1.06-1.15,4.19,4.19,0,0,1-.36-1.82V139.1a4.86,4.86,0,0,1,.35-1.93,2.7,2.7,0,0,1,1-1.22,3,3,0,0,1,1.63-.42,3.24,3.24,0,0,1,1.64.39,2.51,2.51,0,0,1,1,1.12,4.23,4.23,0,0,1,.35,1.79v2.52h-5.18V140h3.78v-1.17a2.35,2.35,0,0,0-.43-1.5,1.48,1.48,0,0,0-1.2-.53,1.41,1.41,0,0,0-1.19.56,2.63,2.63,0,0,0-.42,1.6v3.66a2.3,2.3,0,0,0,.44,1.49,1.55,1.55,0,0,0,1.24.53,1.58,1.58,0,0,0,1.17-.42,1.61,1.61,0,0,0,.42-1.19V143h1.4v.06a2.89,2.89,0,0,1-.78,2.16,3.07,3.07,0,0,1-2.21.76A3.21,3.21,0,0,1,151.14,145.59Z"/><path d="M167.75,145.84h-1.41v-14.2h1.41Z"/><path d="M172.78,135.71h1.41v10.13h-1.41Zm4.79,3a2,2,0,0,0-.42-1.38,1.62,1.62,0,0,0-1.27-.46,1.55,1.55,0,0,0-1.27.51,2.35,2.35,0,0,0-.42,1.53l-.2-1.47a3.06,3.06,0,0,1,.95-1.41,2.66,2.66,0,0,1,3.4.32,3.71,3.71,0,0,1,.64,2.36v7.16h-1.41Z"/><path d="M183.12,135.71h4.68v1.21h-4.68Zm1.08-1.38a2.75,2.75,0,0,1,.66-2,2.43,2.43,0,0,1,1.87-.71h1.07V133h-1a1,1,0,0,0-.86.36,1.44,1.44,0,0,0-.31,1v11.53h-1.4Z"/><path d="M192.6,145.64a2.25,2.25,0,0,1-1-1,3.39,3.39,0,0,1-.35-1.59v-4.61a3.31,3.31,0,0,1,.35-1.57,2.26,2.26,0,0,1,1-1,3.82,3.82,0,0,1,3.15,0,2.36,2.36,0,0,1,1,1,3.31,3.31,0,0,1,.34,1.57v4.64a3.38,3.38,0,0,1-.34,1.58,2.33,2.33,0,0,1-1,1,3.48,3.48,0,0,1-1.58.34A3.34,3.34,0,0,1,192.6,145.64Zm2.68-1.38a1.65,1.65,0,0,0,.4-1.19v-4.64a1.66,1.66,0,0,0-.4-1.17,1.48,1.48,0,0,0-1.12-.42,1.43,1.43,0,0,0-1.1.42,1.65,1.65,0,0,0-.39,1.17v4.64a1.69,1.69,0,0,0,.39,1.19,1.43,1.43,0,0,0,1.1.42A1.45,1.45,0,0,0,195.28,144.26Z"/><path d="M201.82,135.71h1.4v10.13h-1.4Zm4.62,1.13h-.05a3.44,3.44,0,0,0-2.26.68,2.59,2.59,0,0,0-.91,1.91l-.2-2a4.08,4.08,0,0,1,1.46-1.43,4,4,0,0,1,2-.51v1.31Z"/><path d="M210.85,135.71h1.4v10.13h-1.4Zm4.49,3a2.28,2.28,0,0,0-.35-1.38,1.22,1.22,0,0,0-1.05-.46,1.56,1.56,0,0,0-1.27.51,2.35,2.35,0,0,0-.42,1.53l-.2-1.47a3,3,0,0,1,1-1.41,2.29,2.29,0,0,1,1.45-.47,2.14,2.14,0,0,1,1.27.35,2.06,2.06,0,0,1,.76,1.05,5.13,5.13,0,0,1,.26,1.75v7.16h-1.41Zm4.49,0a2,2,0,0,0-.42-1.38,1.62,1.62,0,0,0-1.27-.46,1.18,1.18,0,0,0-1,.51,2.73,2.73,0,0,0-.34,1.53l-.4-1.27a2.86,2.86,0,0,1,.86-1.55,2.18,2.18,0,0,1,1.45-.53,2.65,2.65,0,0,1,1.44.35,2,2,0,0,1,.85,1.05,4.64,4.64,0,0,1,.29,1.75v7.16h-1.41Z"/><path d="M226.68,145.28a3,3,0,0,1-.66-2.13,3.68,3.68,0,0,1,.78-2.56,3,3,0,0,1,2.35-.84H231l.14,1h-1.94a1.63,1.63,0,0,0-1.38.6,2.88,2.88,0,0,0-.46,1.79,1.92,1.92,0,0,0,.42,1.35A1.64,1.64,0,0,0,229,145a1.87,1.87,0,0,0,1.41-.49,2.11,2.11,0,0,0,.46-1.49l.21.84a2.57,2.57,0,0,1-.28,1.21,1.63,1.63,0,0,1-.8.73,3.16,3.16,0,0,1-1.31.24A2.64,2.64,0,0,1,226.68,145.28Zm4.18-6.86a1.71,1.71,0,0,0-.45-1.27,1.74,1.74,0,0,0-1.28-.45,1.45,1.45,0,0,0-1.14.45,1.83,1.83,0,0,0-.41,1.27h-1.35a2.81,2.81,0,0,1,.77-2.13,2.94,2.94,0,0,1,2.17-.76,3.54,3.54,0,0,1,1.63.34,2.38,2.38,0,0,1,1,1,3.16,3.16,0,0,1,.35,1.56v7.42h-1.31Z"/><path d="M236.32,135.71h4.37V137h-4.37Zm1.62,9.5a3,3,0,0,1-.58-2V132.76h1.41v10.46a1.56,1.56,0,0,0,.29,1,1.09,1.09,0,0,0,.87.35h.76v1.31h-.95A2.23,2.23,0,0,1,237.94,145.21Z"/><path d="M245.34,132.2h1.41v1.41h-1.41Zm0,3.51h1.41v10.13h-1.41Z"/><path d="M253,145.64a2.3,2.3,0,0,1-1-1,3.39,3.39,0,0,1-.35-1.59v-4.61a3.31,3.31,0,0,1,.35-1.57,2.31,2.31,0,0,1,1-1,3.82,3.82,0,0,1,3.15,0,2.31,2.31,0,0,1,1,1,3.31,3.31,0,0,1,.34,1.57v4.64a3.38,3.38,0,0,1-.34,1.58,2.28,2.28,0,0,1-1,1,3.48,3.48,0,0,1-1.58.34A3.34,3.34,0,0,1,253,145.64Zm2.68-1.38a1.65,1.65,0,0,0,.4-1.19v-4.64a1.66,1.66,0,0,0-.4-1.17,1.48,1.48,0,0,0-1.12-.42,1.43,1.43,0,0,0-1.1.42,1.65,1.65,0,0,0-.39,1.17v4.64a1.69,1.69,0,0,0,.39,1.19,1.43,1.43,0,0,0,1.1.42A1.45,1.45,0,0,0,255.7,144.26Z"/><path d="M262.24,135.71h1.4v10.13h-1.4Zm4.78,3a2,2,0,0,0-.42-1.38,1.62,1.62,0,0,0-1.27-.46,1.56,1.56,0,0,0-1.27.51,2.35,2.35,0,0,0-.42,1.53l-.2-1.47a3,3,0,0,1,1-1.41,2.29,2.29,0,0,1,1.45-.47,2.34,2.34,0,0,1,1.94.79,3.65,3.65,0,0,1,.64,2.36v7.16H267Z"/><g class="cls-3"><path class="cls-1" d="M10.19,109.32c-3.27,4.08-7.68,7.13-9.35,12.27a17.46,17.46,0,0,0,.85,12.84c4.06,8.39,14.45,11,22.57,7.25.44-.21.06-.85-.38-.65-8.71,4.08-19.67.17-22.47-9.42a16.55,16.55,0,0,1,1.48-12.82c2-3.42,5.37-5.86,7.83-8.94.3-.37-.23-.91-.53-.53Z"/></g><g class="cls-3"><path class="cls-1" d="M20.26,134.77l2.53,1.89c1.88,1.42,2.46,1.75,3.37,4.12a6.67,6.67,0,0,1,.38,4.86l-.67,3.68c-.08.48.64.68.73.2.38-2.1.77-4.21,1.13-6.31a6.05,6.05,0,0,0,.15-3.21c-.37-.93-1.44-1.52-2.19-2.09-1.67-1.28-3.37-2.53-5.05-3.79-.38-.29-.76.36-.38.65Z"/></g></g></g></svg>