<svg xmlns="http://www.w3.org/2000/svg" viewBox="0 0 290.13 149.8"><defs><style>.cls-1{fill:#b3b3b3;}.cls-2{fill:none;stroke:#000;stroke-miterlimit:10;}.cls-3{opacity:0.51;}</style></defs><title>Asset 14</title><g id="Layer_2" data-name="Layer 2"><g id="Layer_1-2" data-name="Layer 1"><rect class="cls-1" x="7.18" width="13.5" height="122"/><rect class="cls-2" x="14.89" y="0.5" width="19" height="121" transform="translate(48.78 122) rotate(180)"/><path d="M32.59,26.7H35.9l3.51,15.94L41.5,26.7h4.31L41.6,50.13h-4L34.35,34.39,30.88,50.13h-4L22.7,26.7H27l2.08,15.94Z"/><path d="M49.27,26.7h4.19V50.13H49.27Zm8.12,12.51a2.2,2.2,0,0,0-.52-1.58,2,2,0,0,0-1.48-.53,1.85,1.85,0,0,0-1.43.54,2.28,2.28,0,0,0-.5,1.57l-.29-2.89A5.62,5.62,0,0,1,54.78,34a3.75,3.75,0,0,1,2.4-.82,3.93,3.93,0,0,1,3.25,1.44,6.42,6.42,0,0,1,1.15,4.09V50.13H57.39Z"/><path d="M65.37,33.41h4l4.39,14.51-2.37,3.82Zm13.6,0L73,54.05a4.5,4.5,0,0,1-.94,1.75,3.52,3.52,0,0,1-1.55,1,7.24,7.24,0,0,1-2.28.32H67.11V53h1.16a2.1,2.1,0,0,0,1.21-.3,1.92,1.92,0,0,0,.64-1.11L75,33.41Z"/><path d="M92.59,50.37l-1.34-.47A5.73,5.73,0,0,1,89,48.5a5,5,0,0,1-1.25-2.19l3.4-1.75a3.77,3.77,0,0,0,3.35,2,2.82,2.82,0,0,0,1.57-.38,1.23,1.23,0,0,0,.21-1.89,2.27,2.27,0,0,0-.85-.48c-.34-.11-.83-.24-1.46-.38l-.41-.1-.46-.11-.1,0-.12,0a12.36,12.36,0,0,1-2.35-.79A3.92,3.92,0,0,1,89,40.92a4.77,4.77,0,0,1-.63-2.62,5.18,5.18,0,0,1,.7-2.75,4.49,4.49,0,0,1,2-1.78,7.23,7.23,0,0,1,3.13-.62,7.78,7.78,0,0,1,2.77.46A5.37,5.37,0,0,1,99,34.93a5.08,5.08,0,0,1,1.2,2.1l-3.39,1.68a3.24,3.24,0,0,0-1.11-1.28A2.79,2.79,0,0,0,94.17,37a2.72,2.72,0,0,0-1.46.33,1,1,0,0,0-.52.93,1.05,1.05,0,0,0,.36.83,2.6,2.6,0,0,0,.92.49,13.86,13.86,0,0,0,1.57.37l.13,0,.14,0a.11.11,0,0,0,.07,0l.06,0a15,15,0,0,1,2.61.75,3.87,3.87,0,0,1,1.73,1.43,5,5,0,0,1,.7,2.88,5.15,5.15,0,0,1-.74,2.81,4.77,4.77,0,0,1-2.16,1.83,7.87,7.87,0,0,1-3.3.64Z"/><path d="M105.08,26.7h4.19V50.13h-4.19Zm8.12,12.51a2.2,2.2,0,0,0-.52-1.58,2,2,0,0,0-1.48-.53,1.85,1.85,0,0,0-1.43.54,2.23,2.23,0,0,0-.5,1.57L109,36.32A5.53,5.53,0,0,1,110.59,34a3.75,3.75,0,0,1,2.4-.82,3.93,3.93,0,0,1,3.25,1.44,6.42,6.42,0,0,1,1.15,4.09V50.13H113.2Z"/><path d="M125,49.68a4.72,4.72,0,0,1-2.08-2,6.63,6.63,0,0,1-.72-3.2V39a6.54,6.54,0,0,1,.72-3.17,4.66,4.66,0,0,1,2.08-2,8.24,8.24,0,0,1,6.6,0,4.71,4.71,0,0,1,2.1,2,6.65,6.65,0,0,1,.71,3.17v5.53a6.59,6.59,0,0,1-.71,3.16,4.75,4.75,0,0,1-2.1,2,8.24,8.24,0,0,1-6.6,0Zm4.73-3.78a2.21,2.21,0,0,0,.51-1.55V39.13a2.15,2.15,0,0,0-.51-1.54,2.15,2.15,0,0,0-2.85,0,2.18,2.18,0,0,0-.51,1.54v5.22a2.27,2.27,0,0,0,.5,1.56,1.88,1.88,0,0,0,1.44.55A1.83,1.83,0,0,0,129.74,45.9Z"/><path d="M143.5,44.73a1.91,1.91,0,0,0,.48,1.41,1.86,1.86,0,0,0,1.42.48,1.76,1.76,0,0,0,1.39-.5,2.07,2.07,0,0,0,.48-1.47l.22,2.63a4.91,4.91,0,0,1-1.34,2.26,3.2,3.2,0,0,1-2.25.83A4.18,4.18,0,0,1,140.49,49a6.39,6.39,0,0,1-1.17-4.15V33.41h4.18Zm3.77-11.32h4.16V50.13h-4.16Z"/><path d="M160.85,44.83a1.22,1.22,0,0,0,.32.9,1.15,1.15,0,0,0,.88.32h.62v4.08h-1.85A4,4,0,0,1,157.76,49a4.57,4.57,0,0,1-1.1-3.27v-19h4.19Z"/><path d="M168.32,49.7a4.35,4.35,0,0,1-1.51-2,8.6,8.6,0,0,1-.53-3.18V39.06a8.73,8.73,0,0,1,.53-3.21,4.25,4.25,0,0,1,1.52-2,4.14,4.14,0,0,1,2.4-.69A3.49,3.49,0,0,1,173,34a5.43,5.43,0,0,1,1.64,2.24l-.34,2.9A2.61,2.61,0,0,0,174,38a1.75,1.75,0,0,0-.65-.72,2,2,0,0,0-1-.25,1.75,1.75,0,0,0-1.44.63,2.74,2.74,0,0,0-.51,1.77v4.84a2.6,2.6,0,0,0,.51,1.71,1.79,1.79,0,0,0,1.44.61,2,2,0,0,0,1-.24,1.72,1.72,0,0,0,.65-.71,2.47,2.47,0,0,0,.22-1.11l.23,3A4.57,4.57,0,0,1,173,49.63a3.63,3.63,0,0,1-2.31.76A4.12,4.12,0,0,1,168.32,49.7Zm5.94-23h4.19V50.13h-4.19Z"/><path d="M188.93,33.41h4l4.38,14.51-2.37,3.82Zm13.6,0-6,20.64a4.36,4.36,0,0,1-.93,1.75,3.61,3.61,0,0,1-1.56,1,7.16,7.16,0,0,1-2.28.32h-1.12V53h1.16a2.07,2.07,0,0,0,1.2-.3,1.87,1.87,0,0,0,.65-1.11l4.88-18.16Z"/><path d="M208.38,49.68a4.75,4.75,0,0,1-2.09-2,6.63,6.63,0,0,1-.72-3.2V39a6.54,6.54,0,0,1,.72-3.17,4.68,4.68,0,0,1,2.09-2,8.24,8.24,0,0,1,6.6,0,4.73,4.73,0,0,1,2.09,2,6.54,6.54,0,0,1,.72,3.17v5.53a6.47,6.47,0,0,1-.72,3.16,4.78,4.78,0,0,1-2.09,2,8.24,8.24,0,0,1-6.6,0Zm4.73-3.78a2.21,2.21,0,0,0,.5-1.55V39.13a2.15,2.15,0,0,0-.5-1.54,2.16,2.16,0,0,0-2.86,0,2.23,2.23,0,0,0-.5,1.54v5.22a2.22,2.22,0,0,0,.5,1.56,2.12,2.12,0,0,0,2.86,0Z"/><path d="M226.86,44.73a1.91,1.91,0,0,0,.48,1.41,1.87,1.87,0,0,0,1.42.48,1.78,1.78,0,0,0,1.4-.5,2.11,2.11,0,0,0,.47-1.47l.23,2.63a4.84,4.84,0,0,1-1.35,2.26,3.18,3.18,0,0,1-2.25.83,4.16,4.16,0,0,1-3.4-1.41,6.39,6.39,0,0,1-1.17-4.15V33.41h4.17Zm3.77-11.32h4.16V50.13h-4.16Z"/><path d="M24.55,66.3h4.19V89.73H24.55Zm5.39,22.92a4.36,4.36,0,0,1-1.42-2.12L28.74,84A2.61,2.61,0,0,0,29,85.17a1.5,1.5,0,0,0,.65.71,2.09,2.09,0,0,0,1,.24,1.71,1.71,0,0,0,1.42-.63,2.8,2.8,0,0,0,.5-1.77V79a2.79,2.79,0,0,0-.5-1.76,1.69,1.69,0,0,0-1.42-.64,2.1,2.1,0,0,0-1,.24,1.55,1.55,0,0,0-.64.72,2.67,2.67,0,0,0-.22,1.14l-.34-2.89A5.73,5.73,0,0,1,30,73.54a3.43,3.43,0,0,1,2.21-.81,4.18,4.18,0,0,1,2.42.69,4.31,4.31,0,0,1,1.53,2,8.84,8.84,0,0,1,.53,3.23V84a8.79,8.79,0,0,1-.53,3.22,4.34,4.34,0,0,1-1.55,2,4.16,4.16,0,0,1-2.43.7A3.57,3.57,0,0,1,29.94,89.22Z"/><path d="M45.61,90l-1.44-.75A5.26,5.26,0,0,1,42,87.06a7.08,7.08,0,0,1-.77-3.4V79.37a8,8,0,0,1,.74-3.58,5.17,5.17,0,0,1,2.15-2.26,6.84,6.84,0,0,1,3.38-.78,6.09,6.09,0,0,1,3.3.85,5.37,5.37,0,0,1,2.09,2.49,9.8,9.8,0,0,1,.72,4v3H44.24V80h5.37V78.82A2.27,2.27,0,0,0,49,77.14a2.08,2.08,0,0,0-1.55-.62,2.12,2.12,0,0,0-1.69.7,2.89,2.89,0,0,0-.61,2v4.55a2.62,2.62,0,0,0,.62,1.87,2.34,2.34,0,0,0,1.78.66A2.31,2.31,0,0,0,49,85.83a2.5,2.5,0,0,0,.84-1.27l3.53,1.34a5,5,0,0,1-1.94,3,6.4,6.4,0,0,1-3.76,1Z"/><path d="M62.34,90l-1.44-.72a5,5,0,0,1-2.2-2.12,6.84,6.84,0,0,1-.76-3.34V79a7,7,0,0,1,.76-3.38,5,5,0,0,1,2.2-2.14,7.52,7.52,0,0,1,3.46-.73,7.87,7.87,0,0,1,2.94.49,4.32,4.32,0,0,1,1.94,1.53,6,6,0,0,1,1,2.62l-3.87,1.3a2.91,2.91,0,0,0-.69-1.54,1.76,1.76,0,0,0-1.31-.5,2,2,0,0,0-1.58.65,2.66,2.66,0,0,0-.59,1.86v4.46a2.59,2.59,0,0,0,.57,1.8,2,2,0,0,0,1.6.64,1.75,1.75,0,0,0,1.3-.49,2.9,2.9,0,0,0,.72-1.46l3.86,1.35a6,6,0,0,1-1,2.55A4.31,4.31,0,0,1,67.3,89.5a8.16,8.16,0,0,1-2.94.47Z"/><path d="M76.65,89.28a4.8,4.8,0,0,1-2.09-2,6.75,6.75,0,0,1-.71-3.2V78.58a6.59,6.59,0,0,1,.71-3.16,4.7,4.7,0,0,1,2.09-2,8.24,8.24,0,0,1,6.6,0,4.6,4.6,0,0,1,2.09,2,6.47,6.47,0,0,1,.72,3.16v5.53a6.47,6.47,0,0,1-.72,3.16,4.67,4.67,0,0,1-2.09,2,8.24,8.24,0,0,1-6.6,0Zm4.73-3.78A2.21,2.21,0,0,0,81.89,84V78.73a2.15,2.15,0,0,0-.51-1.54A1.86,1.86,0,0,0,80,76.65a1.82,1.82,0,0,0-1.42.55A2.14,2.14,0,0,0,78,78.73V84a2.27,2.27,0,0,0,.5,1.56,1.82,1.82,0,0,0,1.43.55A1.84,1.84,0,0,0,81.38,85.5Z"/><path d="M91,73h4.22V89.73H91Zm8.24,6a2.51,2.51,0,0,0-.54-1.73,2,2,0,0,0-1.54-.6,1.83,1.83,0,0,0-1.44.55,2.23,2.23,0,0,0-.5,1.56l-.34-2.89a5.43,5.43,0,0,1,1.68-2.33,3.84,3.84,0,0,1,2.42-.81,4.34,4.34,0,0,1,2.41.65,4.13,4.13,0,0,1,1.53,1.91,7.87,7.87,0,0,1,.52,3V89.73H99.2Zm8.23,0a2.56,2.56,0,0,0-.53-1.73,1.85,1.85,0,0,0-1.49-.6,1.87,1.87,0,0,0-1.49.59,2.43,2.43,0,0,0-.52,1.68l-.55-3a5.69,5.69,0,0,1,1.81-2.36,4.12,4.12,0,0,1,2.49-.83,4,4,0,0,1,4,2.65,8.34,8.34,0,0,1,.53,3.12V89.73h-4.22Z"/><path d="M120.89,90l-1.45-.75a5.18,5.18,0,0,1-2.21-2.16,7,7,0,0,1-.78-3.4V79.37a7.86,7.86,0,0,1,.75-3.58,5.09,5.09,0,0,1,2.14-2.26,6.84,6.84,0,0,1,3.38-.78,6.15,6.15,0,0,1,3.31.85,5.41,5.41,0,0,1,2.08,2.49,9.8,9.8,0,0,1,.72,4v3h-9.31V80h5.36V78.82a2.3,2.3,0,0,0-.6-1.68,2.33,2.33,0,0,0-3.25.08,2.89,2.89,0,0,0-.61,2v4.55a2.58,2.58,0,0,0,.63,1.87,2.65,2.65,0,0,0,3.21.22,2.58,2.58,0,0,0,.85-1.27l3.53,1.34a5,5,0,0,1-1.95,3,6.4,6.4,0,0,1-3.76,1Z"/><path d="M141,88.72A5.34,5.34,0,0,1,139.81,85a5.06,5.06,0,0,1,1.45-3.9,6.14,6.14,0,0,1,4.3-1.33h2.71l.22,3.27h-2.82a2.06,2.06,0,0,0-1.49.49,2,2,0,0,0-.51,1.47,1.41,1.41,0,0,0,.47,1.16,2.14,2.14,0,0,0,1.4.39,3.62,3.62,0,0,0,2-.43,1.47,1.47,0,0,0,.66-1.31l.31,1.92a3.26,3.26,0,0,1-.62,1.79,3.42,3.42,0,0,1-1.46,1.09,5.09,5.09,0,0,1-2,.37A4.46,4.46,0,0,1,141,88.72Zm7.21-10.3a1.75,1.75,0,0,0-.56-1.39,2.36,2.36,0,0,0-1.6-.5,2.94,2.94,0,0,0-1.38.34,2.51,2.51,0,0,0-1,.94l-3.27-1.34a4.75,4.75,0,0,1,2-2.75,6.51,6.51,0,0,1,3.69-1,7.27,7.27,0,0,1,3.23.67,4.67,4.67,0,0,1,2.05,1.93,6,6,0,0,1,.71,3V89.73h-3.88Z"/><path d="M164,73h4.22V89.73H164Zm8.24,6a2.51,2.51,0,0,0-.54-1.73,2,2,0,0,0-1.54-.6,1.83,1.83,0,0,0-1.44.55,2.23,2.23,0,0,0-.5,1.56l-.34-2.89a5.43,5.43,0,0,1,1.68-2.33,3.84,3.84,0,0,1,2.42-.81,4.34,4.34,0,0,1,2.41.65,4.13,4.13,0,0,1,1.53,1.91,7.87,7.87,0,0,1,.52,3V89.73h-4.2Zm8.23,0a2.61,2.61,0,0,0-.52-1.73,2.18,2.18,0,0,0-3,0,2.48,2.48,0,0,0-.52,1.68l-.55-3a5.78,5.78,0,0,1,1.81-2.36,4.12,4.12,0,0,1,2.49-.83,4,4,0,0,1,4,2.65,8.34,8.34,0,0,1,.53,3.12V89.73h-4.22Z"/><path d="M193.9,90l-1.44-.75a5.18,5.18,0,0,1-2.21-2.16,7,7,0,0,1-.78-3.4V79.37a7.86,7.86,0,0,1,.75-3.58,5.09,5.09,0,0,1,2.14-2.26,6.84,6.84,0,0,1,3.38-.78,6.15,6.15,0,0,1,3.31.85,5.41,5.41,0,0,1,2.08,2.49,9.8,9.8,0,0,1,.72,4v3h-9.31V80h5.36V78.82a2.3,2.3,0,0,0-.6-1.68,2.33,2.33,0,0,0-3.25.08,2.89,2.89,0,0,0-.61,2v4.55a2.58,2.58,0,0,0,.63,1.87,2.65,2.65,0,0,0,3.21.22,2.58,2.58,0,0,0,.85-1.27l3.52,1.34a4.92,4.92,0,0,1-1.94,3A6.4,6.4,0,0,1,196,90Z"/><path d="M206.67,73h4.22V89.73h-4.22Zm8.23,6a2.51,2.51,0,0,0-.53-1.73,2,2,0,0,0-1.55-.6,1.82,1.82,0,0,0-1.43.55,2.23,2.23,0,0,0-.5,1.56l-.34-2.89a5.43,5.43,0,0,1,1.68-2.33,3.84,3.84,0,0,1,2.42-.81,4.34,4.34,0,0,1,2.41.65,4.05,4.05,0,0,1,1.52,1.91,7.86,7.86,0,0,1,.53,3V89.73H214.9Zm8.24,0a2.56,2.56,0,0,0-.53-1.73,2.16,2.16,0,0,0-3,0,2.43,2.43,0,0,0-.52,1.68l-.55-3a5.76,5.76,0,0,1,1.8-2.36,4.17,4.17,0,0,1,2.5-.83,4,4,0,0,1,4,2.65,8.34,8.34,0,0,1,.53,3.12V89.73h-4.22Z"/><path d="M232.6,66.3h4.19V89.73H232.6ZM238,89.22a4.37,4.37,0,0,1-1.43-2.12l.23-3.07a2.76,2.76,0,0,0,.21,1.14,1.57,1.57,0,0,0,.66.71,2.09,2.09,0,0,0,1,.24,1.72,1.72,0,0,0,1.42-.63,2.8,2.8,0,0,0,.49-1.77V79a2.79,2.79,0,0,0-.49-1.76,1.7,1.7,0,0,0-1.42-.64,2.08,2.08,0,0,0-1,.24,1.57,1.57,0,0,0-.65.72,2.83,2.83,0,0,0-.21,1.14l-.34-2.89a5.81,5.81,0,0,1,1.62-2.25,3.45,3.45,0,0,1,2.21-.81,4.19,4.19,0,0,1,2.43.69,4.31,4.31,0,0,1,1.53,2,8.86,8.86,0,0,1,.52,3.23V84a8.79,8.79,0,0,1-.53,3.22,4.28,4.28,0,0,1-1.55,2,4.12,4.12,0,0,1-2.43.7A3.56,3.56,0,0,1,238,89.22Z"/><path d="M253.66,90l-1.44-.75A5.2,5.2,0,0,1,250,87.06a7,7,0,0,1-.77-3.4V79.37a7.86,7.86,0,0,1,.74-3.58,5.14,5.14,0,0,1,2.14-2.26,6.87,6.87,0,0,1,3.38-.78,6.15,6.15,0,0,1,3.31.85,5.35,5.35,0,0,1,2.08,2.49,9.8,9.8,0,0,1,.72,4v3h-9.31V80h5.36V78.82a2.3,2.3,0,0,0-.6-1.68,2.09,2.09,0,0,0-1.56-.62,2.13,2.13,0,0,0-1.69.7,2.89,2.89,0,0,0-.61,2v4.55a2.58,2.58,0,0,0,.63,1.87,2.65,2.65,0,0,0,3.21.22,2.51,2.51,0,0,0,.85-1.27l3.53,1.34a5,5,0,0,1-1.94,3,6.46,6.46,0,0,1-3.77,1Z"/><path d="M266.42,73h4.35V89.73h-4.35Zm8.07,4a4.07,4.07,0,0,0-.82-.08,2.71,2.71,0,0,0-2.13.85,3.43,3.43,0,0,0-.77,2.37l-.34-4.27a6.26,6.26,0,0,1,1.83-2.34,4,4,0,0,1,2.46-.85,2.58,2.58,0,0,1,.94.17,2.08,2.08,0,0,1,.74.49l-1.28,3.92A1.64,1.64,0,0,0,274.49,77.05Z"/><path d="M281.91,81.43l.33-1.33a9.74,9.74,0,0,1,.8-2.2c.32-.58.73-1.24,1.24-2,.37-.55.67-1,.88-1.35a6.39,6.39,0,0,0,.52-1.21,4.93,4.93,0,0,0,.21-1.47v-.11a2.19,2.19,0,0,0-.45-1.47,1.63,1.63,0,0,0-1.29-.51,1.35,1.35,0,0,0-1.27.73,4.83,4.83,0,0,0-.44,2.27h-4.25A9.64,9.64,0,0,1,278.9,69a4.61,4.61,0,0,1,2-2.23,6.72,6.72,0,0,1,3.28-.73,7.38,7.38,0,0,1,3.23.65,4.52,4.52,0,0,1,2.06,1.87,5.87,5.87,0,0,1,.71,3v.11a7.65,7.65,0,0,1-.27,2.13,8.16,8.16,0,0,1-.64,1.62c-.26.46-.6,1-1,1.59a17.08,17.08,0,0,0-1.11,1.74,7.91,7.91,0,0,0-.68,1.87,10.56,10.56,0,0,0-.29,2.59h-4.2Zm0,4.1h4.18v4.2h-4.18Z"/><path d="M34.52,131.64h1.4v14.2h-1.4Zm.76,12.89h3.46a1,1,0,0,0,.78-.3,1.25,1.25,0,0,0,.27-.86v-9.26a1.27,1.27,0,0,0-.27-.86,1,1,0,0,0-.78-.3H35.28v-1.31h3.4a2.92,2.92,0,0,1,1.37.3,2.06,2.06,0,0,1,.86.87,3.06,3.06,0,0,1,.29,1.38v9.1a2.93,2.93,0,0,1-.3,1.38,2,2,0,0,1-.86.87,2.92,2.92,0,0,1-1.37.3H35.28Z"/><path d="M47.17,145.64a2.3,2.3,0,0,1-1-1,3.39,3.39,0,0,1-.35-1.59v-4.61a3.31,3.31,0,0,1,.35-1.57,2.31,2.31,0,0,1,1-1,3.82,3.82,0,0,1,3.15,0,2.31,2.31,0,0,1,1,1,3.31,3.31,0,0,1,.34,1.57v4.64a3.38,3.38,0,0,1-.34,1.58,2.28,2.28,0,0,1-1,1,3.48,3.48,0,0,1-1.58.34A3.34,3.34,0,0,1,47.17,145.64Zm2.68-1.38a1.65,1.65,0,0,0,.4-1.19v-4.64a1.66,1.66,0,0,0-.4-1.17,1.48,1.48,0,0,0-1.12-.42,1.43,1.43,0,0,0-1.1.42,1.65,1.65,0,0,0-.39,1.17v4.64a1.69,1.69,0,0,0,.39,1.19,1.43,1.43,0,0,0,1.1.42A1.45,1.45,0,0,0,49.85,144.26Z"/><path d="M55.61,135.71H56.9l1.7,8.21,1.7-8.21h1l1.7,8.21,1.7-8.21H66l-2.35,10.13H62.34l-1.54-7-1.54,7H58Z"/><path d="M70.34,135.71h1.41v10.13H70.34Zm4.78,3a2,2,0,0,0-.42-1.38,1.62,1.62,0,0,0-1.27-.46,1.54,1.54,0,0,0-1.26.51,2.29,2.29,0,0,0-.42,1.53l-.21-1.47a3,3,0,0,1,1-1.41,2.31,2.31,0,0,1,1.45-.47,2.34,2.34,0,0,1,1.94.79,3.65,3.65,0,0,1,.64,2.36v7.16H75.12Z"/><path d="M82.87,143.18a1.57,1.57,0,0,0,.28,1,1,1,0,0,0,.82.35h.64v1.31h-.78a2.2,2.2,0,0,1-1.75-.7,2.92,2.92,0,0,1-.62-2V131.64h1.41Z"/><path d="M90,145.64a2.25,2.25,0,0,1-1-1,3.39,3.39,0,0,1-.35-1.59v-4.61a3.31,3.31,0,0,1,.35-1.57,2.26,2.26,0,0,1,1-1,3.82,3.82,0,0,1,3.15,0,2.36,2.36,0,0,1,1,1,3.31,3.31,0,0,1,.34,1.57v4.64a3.38,3.38,0,0,1-.34,1.58,2.33,2.33,0,0,1-1,1,3.48,3.48,0,0,1-1.58.34A3.34,3.34,0,0,1,90,145.64Zm2.68-1.38a1.65,1.65,0,0,0,.4-1.19v-4.64a1.66,1.66,0,0,0-.4-1.17,1.48,1.48,0,0,0-1.12-.42,1.43,1.43,0,0,0-1.1.42,1.65,1.65,0,0,0-.39,1.17v4.64a1.69,1.69,0,0,0,.39,1.19,1.43,1.43,0,0,0,1.1.42A1.45,1.45,0,0,0,92.68,144.26Z"/><path d="M99.73,145.28a3,3,0,0,1-.66-2.13,3.68,3.68,0,0,1,.78-2.56,3,3,0,0,1,2.34-.84H104l.14,1H102.2a1.63,1.63,0,0,0-1.38.6,2.88,2.88,0,0,0-.46,1.79,1.92,1.92,0,0,0,.42,1.35A1.64,1.64,0,0,0,102,145a1.84,1.84,0,0,0,1.4-.49,2.07,2.07,0,0,0,.47-1.49l.21.84a2.57,2.57,0,0,1-.28,1.21,1.63,1.63,0,0,1-.8.73,3.16,3.16,0,0,1-1.31.24A2.64,2.64,0,0,1,99.73,145.28Zm4.18-6.86a1.71,1.71,0,0,0-.45-1.27,1.75,1.75,0,0,0-1.29-.45,1.45,1.45,0,0,0-1.13.45,1.83,1.83,0,0,0-.41,1.27H99.27a2.82,2.82,0,0,1,.78-2.13,2.94,2.94,0,0,1,2.17-.76,3.47,3.47,0,0,1,1.62.34,2.35,2.35,0,0,1,1,1,3.27,3.27,0,0,1,.35,1.56v7.42h-1.31Z"/><path d="M111.12,145.66a2.25,2.25,0,0,1-.87-1A4.13,4.13,0,0,1,110,143v-4.29a4.35,4.35,0,0,1,.29-1.7,2.35,2.35,0,0,1,.87-1.08,2.41,2.41,0,0,1,1.36-.37,2.25,2.25,0,0,1,1.37.47,3.35,3.35,0,0,1,1,1.32l-.21,1.38a2.56,2.56,0,0,0-.19-1,1.35,1.35,0,0,0-.56-.66,1.68,1.68,0,0,0-.89-.23,1.5,1.5,0,0,0-1.21.51,2.21,2.21,0,0,0-.43,1.44V143a2,2,0,0,0,.43,1.34,1.55,1.55,0,0,0,1.21.48,1.68,1.68,0,0,0,.89-.23,1.33,1.33,0,0,0,.56-.65,2.41,2.41,0,0,0,.19-1l.14,1.36a2.69,2.69,0,0,1-.89,1.3,2.24,2.24,0,0,1-1.41.47A2.49,2.49,0,0,1,111.12,145.66Zm3.52-14h1.41v14.2h-1.41Z"/><path d="M125.61,131.64h6.9V133h-6.9Zm2.75,1.16h1.4v13h-1.4Z"/><path d="M136.36,131.64h1.41v14.2h-1.41Zm4.79,7a2,2,0,0,0-.42-1.38,1.63,1.63,0,0,0-1.27-.46,1.55,1.55,0,0,0-1.27.51,2.35,2.35,0,0,0-.42,1.53l-.21-1.66a2.82,2.82,0,0,1,.95-1.27,2.51,2.51,0,0,1,1.46-.42,2.33,2.33,0,0,1,1.94.79,3.65,3.65,0,0,1,.64,2.36v7.16h-1.4Z"/><path d="M148.71,145.59a2.58,2.58,0,0,1-1.06-1.15,4.19,4.19,0,0,1-.36-1.82V139.1a4.86,4.86,0,0,1,.35-1.93,2.7,2.7,0,0,1,1-1.22,3,3,0,0,1,1.62-.42,3.25,3.25,0,0,1,1.65.39,2.44,2.44,0,0,1,1,1.12,4.08,4.08,0,0,1,.36,1.79v2.52h-5.18V140h3.77v-1.17a2.35,2.35,0,0,0-.42-1.5,1.48,1.48,0,0,0-1.21-.53,1.41,1.41,0,0,0-1.18.56,2.63,2.63,0,0,0-.42,1.6v3.66a2.3,2.3,0,0,0,.44,1.49,1.53,1.53,0,0,0,1.24.53,1.58,1.58,0,0,0,1.17-.42,1.61,1.61,0,0,0,.41-1.19V143h1.41v.06a2.89,2.89,0,0,1-.78,2.16,3.07,3.07,0,0,1-2.21.76A3.21,3.21,0,0,1,148.71,145.59Z"/><path d="M165.32,145.84h-1.41v-14.2h1.41Z"/><path d="M170.35,135.71h1.41v10.13h-1.41Zm4.79,3a2,2,0,0,0-.42-1.38,1.63,1.63,0,0,0-1.27-.46,1.55,1.55,0,0,0-1.27.51,2.35,2.35,0,0,0-.42,1.53l-.21-1.47a3.15,3.15,0,0,1,1-1.41,2.64,2.64,0,0,1,3.39.32,3.65,3.65,0,0,1,.64,2.36v7.16h-1.4Z"/><path d="M186,135.71h1.45l-2.82,10.13h-1.31l-2.84-10.13h1.44l2.05,8.11Z"/><path d="M191.92,132.2h1.4v1.41h-1.4Zm0,3.51h1.4v10.13h-1.4Z"/><path d="M197.68,135.71h4.37V137h-4.37Zm1.61,9.5a3,3,0,0,1-.57-2V132.76h1.41v10.46a1.56,1.56,0,0,0,.29,1,1.09,1.09,0,0,0,.87.35h.76v1.31h-1A2.23,2.23,0,0,1,199.29,145.21Z"/><path d="M207,145.28a3,3,0,0,1-.66-2.13,3.68,3.68,0,0,1,.77-2.56,3.05,3.05,0,0,1,2.35-.84h1.81l.13,1h-1.93a1.65,1.65,0,0,0-1.39.6,3,3,0,0,0-.46,1.79,1.92,1.92,0,0,0,.42,1.35,1.67,1.67,0,0,0,1.26.45,1.84,1.84,0,0,0,1.41-.49,2.11,2.11,0,0,0,.47-1.49l.2.84a2.46,2.46,0,0,1-.27,1.21,1.67,1.67,0,0,1-.8.73A3.18,3.18,0,0,1,209,146,2.61,2.61,0,0,1,207,145.28Zm4.18-6.86a1.71,1.71,0,0,0-.45-1.27,1.76,1.76,0,0,0-1.29-.45,1.45,1.45,0,0,0-1.14.45,1.83,1.83,0,0,0-.4,1.27h-1.36a2.85,2.85,0,0,1,.77-2.13,3,3,0,0,1,2.18-.76,3.52,3.52,0,0,1,1.62.34,2.4,2.4,0,0,1,1,1,3.27,3.27,0,0,1,.35,1.56v7.42h-1.31Z"/><path d="M216.65,135.71H221V137h-4.37Zm1.61,9.5a3,3,0,0,1-.57-2V132.76h1.41v10.46a1.5,1.5,0,0,0,.29,1,1.09,1.09,0,0,0,.87.35H221v1.31h-1A2.23,2.23,0,0,1,218.26,145.21Z"/><path d="M225.67,132.2h1.4v1.41h-1.4Zm0,3.51h1.4v10.13h-1.4Z"/><path d="M233.35,145.64a2.32,2.32,0,0,1-1-1A3.39,3.39,0,0,1,232,143v-4.61a3.31,3.31,0,0,1,.34-1.57,2.33,2.33,0,0,1,1-1,3.79,3.79,0,0,1,3.14,0,2.33,2.33,0,0,1,1,1,3.31,3.31,0,0,1,.34,1.57v4.64a3.38,3.38,0,0,1-.34,1.58,2.3,2.3,0,0,1-1,1,3.43,3.43,0,0,1-1.57.34A3.31,3.31,0,0,1,233.35,145.64Zm2.68-1.38a1.69,1.69,0,0,0,.39-1.19v-4.64a1.61,1.61,0,0,0-.4-1.17,1.44,1.44,0,0,0-1.11-.42,1.42,1.42,0,0,0-1.1.42,1.65,1.65,0,0,0-.39,1.17v4.64a1.69,1.69,0,0,0,.39,1.19,1.42,1.42,0,0,0,1.1.42A1.48,1.48,0,0,0,236,144.26Z"/><path d="M242.56,135.71H244v10.13h-1.41Zm4.79,3a2,2,0,0,0-.42-1.38,1.62,1.62,0,0,0-1.27-.46,1.55,1.55,0,0,0-1.27.51,2.35,2.35,0,0,0-.42,1.53l-.21-1.47a3.15,3.15,0,0,1,1-1.41,2.66,2.66,0,0,1,3.4.32,3.71,3.71,0,0,1,.64,2.36v7.16h-1.41Z"/><g class="cls-3"><path class="cls-1" d="M10.19,109.32c-3.27,4.08-7.68,7.13-9.35,12.27a17.46,17.46,0,0,0,.85,12.84c4.06,8.39,14.45,11,22.57,7.25.44-.21.06-.85-.38-.65-8.71,4.08-19.67.17-22.47-9.42a16.55,16.55,0,0,1,1.48-12.82c2-3.42,5.37-5.86,7.83-8.94.3-.37-.23-.91-.53-.53Z"/></g><g class="cls-3"><path class="cls-1" d="M20.26,134.77l2.53,1.89c1.88,1.42,2.46,1.75,3.37,4.12a6.67,6.67,0,0,1,.38,4.86l-.67,3.68c-.08.48.64.68.73.2.38-2.1.77-4.21,1.13-6.31a6.05,6.05,0,0,0,.15-3.21c-.37-.93-1.44-1.52-2.19-2.09-1.67-1.28-3.37-2.53-5.05-3.79-.38-.29-.76.36-.38.65Z"/></g></g></g></svg>