<svg xmlns="http://www.w3.org/2000/svg" viewBox="0 0 328.65 149.96"><defs><style>.cls-1{fill:#b3b3b3;}.cls-2{fill:none;stroke:#000;stroke-miterlimit:10;}.cls-3{opacity:0.51;}</style></defs><title>Asset 12</title><g id="Layer_2" data-name="Layer 2"><g id="Layer_1-2" data-name="Layer 1"><rect class="cls-1" x="10.18" width="13.5" height="122"/><rect class="cls-2" x="17.78" y="0.5" width="19" height="121" transform="translate(54.55 122) rotate(180)"/><path d="M26.24,26.63h4.19V50.06H26.24Zm2,9.87H39v4H28.21Zm8-9.87h4.19V50.06H36.23Z"/><path d="M48.21,49.61a4.75,4.75,0,0,1-2.09-2,6.63,6.63,0,0,1-.72-3.2V38.91a6.47,6.47,0,0,1,.72-3.16,4.7,4.7,0,0,1,2.09-2,8.24,8.24,0,0,1,6.6,0,4.7,4.7,0,0,1,2.09,2,6.47,6.47,0,0,1,.72,3.16v5.53a6.54,6.54,0,0,1-.72,3.17,4.81,4.81,0,0,1-2.09,2,8.24,8.24,0,0,1-6.6,0Zm4.73-3.78a2.21,2.21,0,0,0,.5-1.55V39.06a2.15,2.15,0,0,0-.5-1.54A1.88,1.88,0,0,0,51.51,37a1.81,1.81,0,0,0-1.42.55,2.14,2.14,0,0,0-.51,1.53v5.22a2.2,2.2,0,0,0,.5,1.56,1.82,1.82,0,0,0,1.43.55A1.85,1.85,0,0,0,52.94,45.83Z"/><path d="M61.31,33.34h4.06L67.5,44l2.74-10.68h2.9L75.88,44,78,33.34h4.06l-4.4,16.72H74.47l-2.78-11L69,50.06H65.69Z"/><path d="M91.51,33.34h7.86V37H91.51ZM94.12,49a4.66,4.66,0,0,1-1.05-3.31V28.47h4.21V44.84a1.31,1.31,0,0,0,.26.9.87.87,0,0,0,.72.31h1.11v4.09h-2A4.28,4.28,0,0,1,94.12,49Z"/><path d="M106.35,49.61a4.75,4.75,0,0,1-2.09-2,6.75,6.75,0,0,1-.71-3.2V38.91a6.59,6.59,0,0,1,.71-3.16,4.7,4.7,0,0,1,2.09-2,8.24,8.24,0,0,1,6.6,0,4.67,4.67,0,0,1,2.1,2,6.59,6.59,0,0,1,.71,3.16v5.53a6.65,6.65,0,0,1-.71,3.17,4.78,4.78,0,0,1-2.1,2,8.24,8.24,0,0,1-6.6,0Zm4.73-3.78a2.21,2.21,0,0,0,.51-1.55V39.06a2.15,2.15,0,0,0-.51-1.54,1.86,1.86,0,0,0-1.43-.54,1.82,1.82,0,0,0-1.42.55,2.14,2.14,0,0,0-.51,1.53v5.22a2.25,2.25,0,0,0,.5,1.56,1.82,1.82,0,0,0,1.43.55A1.84,1.84,0,0,0,111.08,45.83Z"/><path d="M127.35,26.63h4.19V50.06h-4.19Zm5.39,22.92a4.33,4.33,0,0,1-1.42-2.11l.22-3.08a2.61,2.61,0,0,0,.22,1.14,1.5,1.5,0,0,0,.65.71,2.12,2.12,0,0,0,1,.24,1.71,1.71,0,0,0,1.42-.63,2.78,2.78,0,0,0,.5-1.77V39.31a2.79,2.79,0,0,0-.5-1.76,1.72,1.72,0,0,0-1.42-.64,2,2,0,0,0-1,.25,1.53,1.53,0,0,0-.64.71,2.67,2.67,0,0,0-.22,1.14l-.34-2.89a5.8,5.8,0,0,1,1.63-2.25,3.43,3.43,0,0,1,2.21-.81,4.11,4.11,0,0,1,2.42.7,4.23,4.23,0,0,1,1.53,2,8.84,8.84,0,0,1,.53,3.23v5.32a8.79,8.79,0,0,1-.53,3.22,4.29,4.29,0,0,1-1.55,2,4.16,4.16,0,0,1-2.43.7A3.57,3.57,0,0,1,132.74,49.55Z"/><path d="M148.41,50.3,147,49.55a5.12,5.12,0,0,1-2.21-2.16A7,7,0,0,1,144,44V39.7a8,8,0,0,1,.74-3.58,5.22,5.22,0,0,1,2.15-2.26,6.84,6.84,0,0,1,3.38-.78,6.09,6.09,0,0,1,3.3.85,5.37,5.37,0,0,1,2.09,2.49,9.8,9.8,0,0,1,.72,4v2.95H147v-3h5.37v-1.2a2.27,2.27,0,0,0-.61-1.68,2.08,2.08,0,0,0-1.55-.62,2.12,2.12,0,0,0-1.69.7,2.9,2.9,0,0,0-.61,2v4.55a2.66,2.66,0,0,0,.62,1.88,2.37,2.37,0,0,0,1.78.65,2.31,2.31,0,0,0,1.44-.44,2.5,2.5,0,0,0,.84-1.27l3.53,1.34a5,5,0,0,1-1.94,3.05,6.4,6.4,0,0,1-3.76,1Z"/><path d="M165.14,50.3l-1.44-.72a5,5,0,0,1-2.2-2.12,6.84,6.84,0,0,1-.76-3.34V39.33A7,7,0,0,1,161.5,36a5,5,0,0,1,2.2-2.15,7.52,7.52,0,0,1,3.46-.73,7.87,7.87,0,0,1,2.94.49A4.32,4.32,0,0,1,172,35.1a6,6,0,0,1,1,2.62L169.12,39a2.91,2.91,0,0,0-.69-1.54,1.76,1.76,0,0,0-1.31-.5,2,2,0,0,0-1.58.65,2.66,2.66,0,0,0-.59,1.86V44a2.58,2.58,0,0,0,.57,1.79,2,2,0,0,0,1.6.64,1.78,1.78,0,0,0,1.3-.48,3,3,0,0,0,.72-1.47L173,45.79a6,6,0,0,1-1,2.55,4.31,4.31,0,0,1-1.94,1.49,8,8,0,0,1-2.94.47Z"/><path d="M179.45,49.61a4.75,4.75,0,0,1-2.09-2,6.75,6.75,0,0,1-.71-3.2V38.91a6.59,6.59,0,0,1,.71-3.16,4.7,4.7,0,0,1,2.09-2,8.24,8.24,0,0,1,6.6,0,4.6,4.6,0,0,1,2.09,2,6.47,6.47,0,0,1,.72,3.16v5.53a6.54,6.54,0,0,1-.72,3.17,4.71,4.71,0,0,1-2.09,2,8.24,8.24,0,0,1-6.6,0Zm4.73-3.78a2.21,2.21,0,0,0,.51-1.55V39.06a2.15,2.15,0,0,0-.51-1.54,1.86,1.86,0,0,0-1.43-.54,1.82,1.82,0,0,0-1.42.55,2.14,2.14,0,0,0-.51,1.53v5.22a2.25,2.25,0,0,0,.5,1.56,1.82,1.82,0,0,0,1.43.55A1.84,1.84,0,0,0,184.18,45.83Z"/><path d="M193.76,33.34H198V50.06h-4.22Zm8.24,6a2.53,2.53,0,0,0-.54-1.73,2,2,0,0,0-1.54-.6,1.83,1.83,0,0,0-1.44.55,2.23,2.23,0,0,0-.5,1.56l-.34-2.88a5.47,5.47,0,0,1,1.68-2.34,3.84,3.84,0,0,1,2.42-.81,4.26,4.26,0,0,1,2.41.66,4,4,0,0,1,1.53,1.91,7.78,7.78,0,0,1,.52,3V50.06H202Zm8.23,0a2.63,2.63,0,0,0-.52-1.73,2.18,2.18,0,0,0-3,0,2.48,2.48,0,0,0-.52,1.68l-.55-3a5.78,5.78,0,0,1,1.81-2.36,4.12,4.12,0,0,1,2.49-.83,4,4,0,0,1,4,2.65,8.34,8.34,0,0,1,.53,3.12V50.06h-4.22Z"/><path d="M223.69,50.3l-1.45-.75A5.12,5.12,0,0,1,220,47.39a7,7,0,0,1-.78-3.4V39.7a7.86,7.86,0,0,1,.75-3.58,5.14,5.14,0,0,1,2.14-2.26,6.84,6.84,0,0,1,3.38-.78,6.15,6.15,0,0,1,3.31.85,5.41,5.41,0,0,1,2.08,2.49,9.8,9.8,0,0,1,.72,4v2.95h-9.31v-3h5.36v-1.2a2.3,2.3,0,0,0-.6-1.68,2.33,2.33,0,0,0-3.25.08,2.9,2.9,0,0,0-.61,2v4.55a2.62,2.62,0,0,0,.63,1.88,2.36,2.36,0,0,0,1.77.65,2.31,2.31,0,0,0,1.44-.44,2.58,2.58,0,0,0,.85-1.27l3.53,1.34a5,5,0,0,1-1.95,3.05,6.4,6.4,0,0,1-3.76,1Z"/><path d="M243.76,49.05a5.33,5.33,0,0,1-1.15-3.72,5,5,0,0,1,1.45-3.9,6.09,6.09,0,0,1,4.3-1.34h2.71l.22,3.27h-2.82a2.06,2.06,0,0,0-1.49.49,2,2,0,0,0-.51,1.48,1.44,1.44,0,0,0,.47,1.16,2.21,2.21,0,0,0,1.4.38,3.62,3.62,0,0,0,2-.43,1.47,1.47,0,0,0,.66-1.31l.31,1.92a3.26,3.26,0,0,1-.62,1.79,3.45,3.45,0,0,1-1.45,1.09,5.18,5.18,0,0,1-2,.37A4.46,4.46,0,0,1,243.76,49.05ZM251,38.75a1.75,1.75,0,0,0-.56-1.39,2.36,2.36,0,0,0-1.6-.49,2.93,2.93,0,0,0-1.38.33,2.51,2.51,0,0,0-1,.94l-3.27-1.34a4.75,4.75,0,0,1,2-2.75,6.51,6.51,0,0,1,3.69-1,7.27,7.27,0,0,1,3.23.67,4.67,4.67,0,0,1,2,1.93,6,6,0,0,1,.71,3V50.06H251Z"/><path d="M26.16,72.94h4.22V89.66H26.16Zm8.24,6a2.58,2.58,0,0,0-.53-1.74,2,2,0,0,0-1.55-.6,1.85,1.85,0,0,0-1.44.55,2.23,2.23,0,0,0-.5,1.56l-.33-2.89a5.48,5.48,0,0,1,1.67-2.33,3.86,3.86,0,0,1,2.42-.81,4.32,4.32,0,0,1,2.42.66,4.1,4.1,0,0,1,1.52,1.9,7.87,7.87,0,0,1,.52,3V89.66H34.4Zm8.23,0a2.58,2.58,0,0,0-.52-1.74,1.88,1.88,0,0,0-1.49-.6,1.86,1.86,0,0,0-1.49.59,2.43,2.43,0,0,0-.53,1.68l-.55-3a5.86,5.86,0,0,1,1.81-2.36,4.13,4.13,0,0,1,2.5-.83,4,4,0,0,1,4,2.65,8.34,8.34,0,0,1,.53,3.12V89.66H42.63Z"/><path d="M56.09,89.9l-1.45-.75A5.12,5.12,0,0,1,52.43,87a7,7,0,0,1-.77-3.4V79.3a7.89,7.89,0,0,1,.74-3.58,5.2,5.2,0,0,1,2.14-2.26,6.84,6.84,0,0,1,3.38-.78,6.15,6.15,0,0,1,3.31.85A5.35,5.35,0,0,1,63.31,76,9.8,9.8,0,0,1,64,80v3H54.72V80h5.36v-1.2a2.3,2.3,0,0,0-.6-1.68,2.09,2.09,0,0,0-1.56-.62,2.12,2.12,0,0,0-1.69.7,2.9,2.9,0,0,0-.61,2v4.55a2.58,2.58,0,0,0,.63,1.87,2.65,2.65,0,0,0,3.21.22,2.51,2.51,0,0,0,.85-1.27l3.53,1.34a5,5,0,0,1-1.94,3,6.46,6.46,0,0,1-3.77,1Z"/><path d="M68.85,72.94h4.22V89.66H68.85Zm8.24,6a2.54,2.54,0,0,0-.54-1.74,2,2,0,0,0-1.54-.6,1.83,1.83,0,0,0-1.44.55,2.23,2.23,0,0,0-.5,1.56l-.34-2.89a5.49,5.49,0,0,1,1.68-2.33,3.84,3.84,0,0,1,2.42-.81,4.26,4.26,0,0,1,2.41.66,4.06,4.06,0,0,1,1.53,1.9,7.87,7.87,0,0,1,.52,3V89.66h-4.2Zm8.23,0a2.64,2.64,0,0,0-.52-1.74,2.18,2.18,0,0,0-3,0,2.48,2.48,0,0,0-.52,1.68l-.55-3a5.78,5.78,0,0,1,1.81-2.36A4.12,4.12,0,0,1,85,72.66a4,4,0,0,1,4,2.65,8.34,8.34,0,0,1,.53,3.12V89.66H85.32Z"/><path d="M94.78,66.23H99V89.66H94.78Zm5.39,22.92A4.34,4.34,0,0,1,98.74,87L99,84a2.61,2.61,0,0,0,.22,1.14,1.5,1.5,0,0,0,.65.71,2.09,2.09,0,0,0,1,.24,1.72,1.72,0,0,0,1.42-.63,2.76,2.76,0,0,0,.5-1.77V78.92a2.82,2.82,0,0,0-.5-1.77,1.73,1.73,0,0,0-1.42-.64,2,2,0,0,0-1,.25,1.53,1.53,0,0,0-.64.71A2.67,2.67,0,0,0,99,78.61l-.34-2.89a5.8,5.8,0,0,1,1.63-2.25,3.4,3.4,0,0,1,2.2-.81,4.12,4.12,0,0,1,2.43.7,4.23,4.23,0,0,1,1.53,2,8.87,8.87,0,0,1,.52,3.24v5.31a8.67,8.67,0,0,1-.53,3.23,4.29,4.29,0,0,1-1.54,2,4.17,4.17,0,0,1-2.44.7A3.56,3.56,0,0,1,100.17,89.15Z"/><path d="M115.84,89.9l-1.44-.75A5.2,5.2,0,0,1,112.18,87a7.08,7.08,0,0,1-.77-3.4V79.3a7.89,7.89,0,0,1,.74-3.58,5.2,5.2,0,0,1,2.14-2.26,6.88,6.88,0,0,1,3.39-.78,6.09,6.09,0,0,1,3.3.85A5.43,5.43,0,0,1,123.07,76a10,10,0,0,1,.71,4v3h-9.31V80h5.37v-1.2a2.31,2.31,0,0,0-.61-1.68,2.08,2.08,0,0,0-1.55-.62,2.14,2.14,0,0,0-1.7.7,3,3,0,0,0-.61,2v4.55a2.58,2.58,0,0,0,.63,1.87,2.33,2.33,0,0,0,1.77.66,2.36,2.36,0,0,0,1.45-.44,2.5,2.5,0,0,0,.84-1.27l3.53,1.34a5,5,0,0,1-1.94,3,6.42,6.42,0,0,1-3.76,1Z"/><path d="M128.6,72.94H133V89.66H128.6Zm8.07,4a4.07,4.07,0,0,0-.82-.08,2.74,2.74,0,0,0-2.13.85,3.43,3.43,0,0,0-.77,2.37l-.34-4.27a6.26,6.26,0,0,1,1.83-2.34,4,4,0,0,1,2.46-.85,2.58,2.58,0,0,1,.94.17,2.08,2.08,0,0,1,.74.49l-1.28,3.92A1.81,1.81,0,0,0,136.67,77Z"/><path d="M144.09,81.36l.33-1.33a9.17,9.17,0,0,1,.81-2.19,19.9,19.9,0,0,1,1.23-2c.37-.54.67-1,.88-1.35a5.58,5.58,0,0,0,.52-1.21,4.91,4.91,0,0,0,.21-1.46v-.12a2.14,2.14,0,0,0-.45-1.46,1.6,1.6,0,0,0-1.29-.52,1.36,1.36,0,0,0-1.27.73,4.83,4.83,0,0,0-.44,2.27h-4.25a9.83,9.83,0,0,1,.71-3.78A4.65,4.65,0,0,1,143,66.72a6.72,6.72,0,0,1,3.28-.73,7.38,7.38,0,0,1,3.23.65,4.57,4.57,0,0,1,2.06,1.87,5.89,5.89,0,0,1,.71,3v.11a7.65,7.65,0,0,1-.27,2.13,8.16,8.16,0,0,1-.64,1.62,17.86,17.86,0,0,1-1,1.59,17.09,17.09,0,0,0-1.11,1.75,8.1,8.1,0,0,0-.68,1.86,10.59,10.59,0,0,0-.28,2.59h-4.21Zm0,4.1h4.19v4.2h-4.19Z"/><path d="M37.4,131.64h1.41v14.2H37.4Zm.77,12.89h3.45a1,1,0,0,0,.78-.3,1.2,1.2,0,0,0,.28-.86v-9.26a1.22,1.22,0,0,0-.28-.86,1,1,0,0,0-.78-.3H38.17v-1.31h3.4a2.87,2.87,0,0,1,1.36.3,2,2,0,0,1,.86.87,2.93,2.93,0,0,1,.29,1.38v9.1a2.93,2.93,0,0,1-.29,1.38,1.93,1.93,0,0,1-.87.87,2.87,2.87,0,0,1-1.36.3H38.17Z"/><path d="M50.06,145.64a2.32,2.32,0,0,1-1-1,3.39,3.39,0,0,1-.34-1.59v-4.61a3.31,3.31,0,0,1,.34-1.57,2.33,2.33,0,0,1,1-1,3.79,3.79,0,0,1,3.14,0,2.33,2.33,0,0,1,1,1,3.31,3.31,0,0,1,.34,1.57v4.64a3.38,3.38,0,0,1-.34,1.58,2.3,2.3,0,0,1-1,1,3.43,3.43,0,0,1-1.57.34A3.31,3.31,0,0,1,50.06,145.64Zm2.68-1.38a1.69,1.69,0,0,0,.39-1.19v-4.64a1.61,1.61,0,0,0-.4-1.17,1.66,1.66,0,0,0-2.21,0,1.65,1.65,0,0,0-.39,1.17v4.64a1.69,1.69,0,0,0,.39,1.19,1.43,1.43,0,0,0,1.1.42A1.46,1.46,0,0,0,52.74,144.26Z"/><path d="M58.49,135.71h1.3l1.7,8.21,1.7-8.21h1l1.69,8.21,1.7-8.21h1.3l-2.34,10.13H65.23l-1.54-7-1.55,7h-1.3Z"/><path d="M73.23,135.71h1.4v10.13h-1.4Zm4.78,3a2,2,0,0,0-.42-1.38,1.62,1.62,0,0,0-1.27-.46,1.55,1.55,0,0,0-1.27.51,2.35,2.35,0,0,0-.42,1.53l-.2-1.47a3.06,3.06,0,0,1,.95-1.41,2.66,2.66,0,0,1,3.4.32,3.71,3.71,0,0,1,.64,2.36v7.16H78Z"/><path d="M85.75,143.18a1.57,1.57,0,0,0,.29,1,1,1,0,0,0,.82.35h.64v1.31h-.78a2.19,2.19,0,0,1-1.75-.7,2.87,2.87,0,0,1-.62-2V131.64h1.4Z"/><path d="M92.89,145.64a2.32,2.32,0,0,1-1-1,3.39,3.39,0,0,1-.34-1.59v-4.61a3.31,3.31,0,0,1,.34-1.57,2.33,2.33,0,0,1,1-1,3.79,3.79,0,0,1,3.14,0,2.33,2.33,0,0,1,1,1,3.31,3.31,0,0,1,.34,1.57v4.64a3.38,3.38,0,0,1-.34,1.58,2.3,2.3,0,0,1-1,1,3.43,3.43,0,0,1-1.57.34A3.31,3.31,0,0,1,92.89,145.64Zm2.68-1.38a1.69,1.69,0,0,0,.39-1.19v-4.64a1.61,1.61,0,0,0-.4-1.17,1.44,1.44,0,0,0-1.11-.42,1.42,1.42,0,0,0-1.1.42,1.65,1.65,0,0,0-.39,1.17v4.64a1.69,1.69,0,0,0,.39,1.19,1.42,1.42,0,0,0,1.1.42A1.48,1.48,0,0,0,95.57,144.26Z"/><path d="M102.62,145.28a3,3,0,0,1-.66-2.13,3.68,3.68,0,0,1,.77-2.56,3.05,3.05,0,0,1,2.35-.84h1.81l.13,1h-1.93a1.65,1.65,0,0,0-1.39.6,3,3,0,0,0-.46,1.79,1.92,1.92,0,0,0,.42,1.35,1.66,1.66,0,0,0,1.26.45,1.84,1.84,0,0,0,1.41-.49,2.11,2.11,0,0,0,.47-1.49l.2.84a2.58,2.58,0,0,1-.27,1.21,1.67,1.67,0,0,1-.8.73,3.18,3.18,0,0,1-1.32.24A2.61,2.61,0,0,1,102.62,145.28Zm4.18-6.86a1.71,1.71,0,0,0-.45-1.27,1.78,1.78,0,0,0-1.29-.45,1.45,1.45,0,0,0-1.14.45,1.83,1.83,0,0,0-.4,1.27h-1.36a2.85,2.85,0,0,1,.77-2.13,3,3,0,0,1,2.18-.76,3.52,3.52,0,0,1,1.62.34,2.4,2.4,0,0,1,1,1,3.27,3.27,0,0,1,.35,1.56v7.42H106.8Z"/><path d="M114,145.66a2.29,2.29,0,0,1-.86-1,4.12,4.12,0,0,1-.3-1.65v-4.29a4.34,4.34,0,0,1,.3-1.7,2.4,2.4,0,0,1,.86-1.08,2.44,2.44,0,0,1,1.37-.37,2.2,2.2,0,0,1,1.36.47,3.17,3.17,0,0,1,1,1.32l-.2,1.38a2.56,2.56,0,0,0-.19-1,1.46,1.46,0,0,0-.56-.66,1.71,1.71,0,0,0-.89-.23,1.49,1.49,0,0,0-1.21.51,2.15,2.15,0,0,0-.43,1.44V143a1.93,1.93,0,0,0,.43,1.34,1.53,1.53,0,0,0,1.21.48,1.71,1.71,0,0,0,.89-.23,1.44,1.44,0,0,0,.56-.65,2.41,2.41,0,0,0,.19-1l.14,1.36a2.69,2.69,0,0,1-.89,1.3,2.28,2.28,0,0,1-1.41.47A2.52,2.52,0,0,1,114,145.66Zm3.53-14h1.41v14.2h-1.41Z"/><path d="M128.5,131.64h6.89V133H128.5Zm2.74,1.16h1.41v13h-1.41Z"/><path d="M139.25,131.64h1.4v14.2h-1.4Zm4.78,7a2,2,0,0,0-.42-1.38,1.62,1.62,0,0,0-1.27-.46,1.56,1.56,0,0,0-1.27.51,2.35,2.35,0,0,0-.42,1.53l-.2-1.66a2.75,2.75,0,0,1,1-1.27,2.49,2.49,0,0,1,1.46-.42,2.34,2.34,0,0,1,1.94.79,3.65,3.65,0,0,1,.64,2.36v7.16H144Z"/><path d="M151.59,145.59a2.5,2.5,0,0,1-1.05-1.15,4,4,0,0,1-.37-1.82V139.1a4.68,4.68,0,0,1,.36-1.93,2.7,2.7,0,0,1,1-1.22,3,3,0,0,1,1.62-.42,3.3,3.3,0,0,1,1.65.39,2.49,2.49,0,0,1,1,1.12,4.08,4.08,0,0,1,.36,1.79v2.52H151V140h3.78v-1.17a2.29,2.29,0,0,0-.43-1.5,1.45,1.45,0,0,0-1.2-.53,1.39,1.39,0,0,0-1.18.56,2.63,2.63,0,0,0-.42,1.6v3.66a2.3,2.3,0,0,0,.44,1.49,1.52,1.52,0,0,0,1.24.53,1.58,1.58,0,0,0,1.17-.42,1.65,1.65,0,0,0,.41-1.19V143h1.41v.06a2.89,2.89,0,0,1-.78,2.16,3.07,3.07,0,0,1-2.21.76A3.25,3.25,0,0,1,151.59,145.59Z"/><path d="M168,145.62a2.43,2.43,0,0,1-1.15-1.11,4.06,4.06,0,0,1-.38-1.85V142h1.39v.7a2.08,2.08,0,0,0,.51,1.53,2.14,2.14,0,0,0,1.56.51,2.05,2.05,0,0,0,1.52-.51,2.12,2.12,0,0,0,.5-1.53v-.84a2.17,2.17,0,0,0-.3-1.17,2.73,2.73,0,0,0-.78-.81,10.08,10.08,0,0,0-1.21-.7l-.06,0,0,0-.14-.06a13.64,13.64,0,0,1-1.54-.87,3.33,3.33,0,0,1-1-1,3.09,3.09,0,0,1-.41-1.64v-.69a4,4,0,0,1,.38-1.83,2.43,2.43,0,0,1,1.15-1.09,4.43,4.43,0,0,1,1.91-.36,4.28,4.28,0,0,1,1.86.36,2.44,2.44,0,0,1,1.11,1.11,4,4,0,0,1,.37,1.85v.74h-1.39v-.74a2.16,2.16,0,0,0-.48-1.53,2,2,0,0,0-1.47-.5,2.19,2.19,0,0,0-1.54.48,1.9,1.9,0,0,0-.51,1.45v.69a1.94,1.94,0,0,0,.32,1.12,2.86,2.86,0,0,0,.8.75,13.73,13.73,0,0,0,1.3.7l.15.07.15.08.08,0,.06,0a7.51,7.51,0,0,1,1.35.82,3.29,3.29,0,0,1,.91,1.1,3.58,3.58,0,0,1,.35,1.64v.9a4.06,4.06,0,0,1-.38,1.85,2.43,2.43,0,0,1-1.13,1.11,5.14,5.14,0,0,1-3.83,0Z"/><path d="M179.49,143.14a1.49,1.49,0,0,0,.42,1.13,1.65,1.65,0,0,0,1.19.41,1.63,1.63,0,0,0,1.2-.4,1.6,1.6,0,0,0,.39-1.18l.14,1.32a2.44,2.44,0,0,1-.87,1.18,2.35,2.35,0,0,1-1.39.39,2.28,2.28,0,0,1-1.83-.75,3.12,3.12,0,0,1-.65-2.1v-7.43h1.4Zm3.2-7.43h1.4v10.13h-1.4Z"/><path d="M189,131.64h1.4v14.2H189Zm2.1,13.88a2.15,2.15,0,0,1-.83-1.27l.13-1.53a3.06,3.06,0,0,0,.19,1.11,1.51,1.51,0,0,0,1.45.95,1.54,1.54,0,0,0,1.25-.55,2.4,2.4,0,0,0,.44-1.55v-3.89a2.28,2.28,0,0,0-.44-1.51,1.53,1.53,0,0,0-1.25-.54,1.65,1.65,0,0,0-.88.23,1.5,1.5,0,0,0-.57.69,3,3,0,0,0-.19,1.09l-.2-1.37a2.75,2.75,0,0,1,1-1.36,2.46,2.46,0,0,1,1.48-.49,2.3,2.3,0,0,1,1.32.38,2.34,2.34,0,0,1,.83,1.11,4.81,4.81,0,0,1,.28,1.76v3.9a4.83,4.83,0,0,1-.3,1.79,2.25,2.25,0,0,1-2.23,1.52A2.4,2.4,0,0,1,191.12,145.52Z"/><path d="M201.4,146l-.68-.34a2.17,2.17,0,0,1-1-1,3.69,3.69,0,0,1-.34-1.69h1.29a2,2,0,0,0,.44,1.38,1.8,1.8,0,0,0,1.33.46,1.56,1.56,0,0,0,1.77-1.76,1.28,1.28,0,0,0-.19-.73,1.41,1.41,0,0,0-.49-.48,4,4,0,0,0-.79-.33l-.14-.05-.15,0-.1,0-.1,0a9.61,9.61,0,0,1-1.43-.53,2.29,2.29,0,0,1-.93-.83,2.67,2.67,0,0,1-.39-1.53,3.76,3.76,0,0,1,.32-1.63,2.12,2.12,0,0,1,.95-1,3.57,3.57,0,0,1,1.59-.32,3.62,3.62,0,0,1,1.6.31,2.06,2.06,0,0,1,.95.94,3.53,3.53,0,0,1,.31,1.58h-1.29a1.69,1.69,0,0,0-.39-1.22,1.6,1.6,0,0,0-1.18-.41,1.52,1.52,0,0,0-1.17.42,1.79,1.79,0,0,0-.39,1.26,1.37,1.37,0,0,0,.24.84,1.75,1.75,0,0,0,.62.52,6.18,6.18,0,0,0,1,.35h.06l.06,0h.09a8.1,8.1,0,0,1,1.39.49,2.25,2.25,0,0,1,.91.83,2.83,2.83,0,0,1,.37,1.54,3.54,3.54,0,0,1-.34,1.65,2.11,2.11,0,0,1-1,1,3.92,3.92,0,0,1-1.71.33Z"/><path d="M211,145.63a2.46,2.46,0,0,1-1-1,3.5,3.5,0,0,1-.36-1.65v-4.24A3.8,3.8,0,0,1,210,137a2.49,2.49,0,0,1,1.05-1.08,3.3,3.3,0,0,1,1.65-.38,3.35,3.35,0,0,1,1.67.38,2.48,2.48,0,0,1,1.06,1.09,3.84,3.84,0,0,1,.36,1.73v.08h-1.34v-.08a2,2,0,0,0-.45-1.39,1.59,1.59,0,0,0-1.27-.5,1.57,1.57,0,0,0-1.24.49,1.94,1.94,0,0,0-.45,1.38V143a1.77,1.77,0,0,0,.44,1.28,2,2,0,0,0,2.52,0,1.81,1.81,0,0,0,.45-1.31v-.08h1.36v.08a3.46,3.46,0,0,1-.37,1.67,2.44,2.44,0,0,1-1.06,1,3.65,3.65,0,0,1-1.68.36A3.54,3.54,0,0,1,211,145.63Z"/><path d="M220.15,135.71h1.41v10.13h-1.41Zm4.62,1.13h-.05a3.44,3.44,0,0,0-2.26.68,2.55,2.55,0,0,0-.9,1.91l-.21-2a4.11,4.11,0,0,1,1.47-1.43,3.88,3.88,0,0,1,2-.51v1.31Z"/><path d="M229.39,132.2h1.4v1.41h-1.4Zm0,3.51h1.4v10.13h-1.4Z"/><path d="M235.92,135.71h1.41V150h-1.41Zm2.11,9.81a2.21,2.21,0,0,1-.84-1.27l.14-1.53a2.87,2.87,0,0,0,.19,1.11,1.52,1.52,0,0,0,.56.7,1.7,1.7,0,0,0,2.14-.3,2.46,2.46,0,0,0,.44-1.55v-3.89a2.34,2.34,0,0,0-.44-1.51,1.53,1.53,0,0,0-1.25-.54,1.71,1.71,0,0,0-.89.23,1.55,1.55,0,0,0-.56.69,2.8,2.8,0,0,0-.19,1.09l-.2-1.37a2.69,2.69,0,0,1,1-1.36,2.44,2.44,0,0,1,1.48-.49,2.25,2.25,0,0,1,1.31.38,2.29,2.29,0,0,1,.84,1.11,5,5,0,0,1,.28,1.76v3.9a4.83,4.83,0,0,1-.3,1.79,2.43,2.43,0,0,1-3.69,1.05Z"/><path d="M246,135.71h4.38V137H246Zm1.62,9.5a3,3,0,0,1-.57-2V132.76h1.4v10.46a1.56,1.56,0,0,0,.29,1,1.09,1.09,0,0,0,.87.35h.77v1.31h-1A2.23,2.23,0,0,1,247.59,145.21Z"/><path d="M255,132.2h1.41v1.41H255Zm0,3.51h1.41v10.13H255Z"/><path d="M262.67,145.64a2.3,2.3,0,0,1-1-1,3.39,3.39,0,0,1-.34-1.59v-4.61a3.31,3.31,0,0,1,.34-1.57,2.31,2.31,0,0,1,1-1,3.82,3.82,0,0,1,3.15,0,2.31,2.31,0,0,1,1,1,3.31,3.31,0,0,1,.35,1.57v4.64a3.38,3.38,0,0,1-.35,1.58,2.28,2.28,0,0,1-1,1,3.46,3.46,0,0,1-1.57.34A3.35,3.35,0,0,1,262.67,145.64Zm2.68-1.38a1.65,1.65,0,0,0,.4-1.19v-4.64a1.61,1.61,0,0,0-.4-1.17,1.47,1.47,0,0,0-1.11-.42,1.44,1.44,0,0,0-1.11.42,1.65,1.65,0,0,0-.39,1.17v4.64a1.69,1.69,0,0,0,.39,1.19,1.68,1.68,0,0,0,2.22,0Z"/><path d="M271.89,135.71h1.4v10.13h-1.4Zm4.78,3a2,2,0,0,0-.42-1.38,1.62,1.62,0,0,0-1.27-.46,1.56,1.56,0,0,0-1.27.51,2.35,2.35,0,0,0-.42,1.53l-.2-1.47a3,3,0,0,1,1-1.41,2.31,2.31,0,0,1,1.45-.47,2.34,2.34,0,0,1,1.94.79,3.65,3.65,0,0,1,.64,2.36v7.16h-1.41Z"/><path d="M288.62,131.64H290v14.2h-1.41Zm1,0h5.12V133H289.6Zm0,6.62h4.64v1.31H289.6Z"/><path d="M300,145.64a2.3,2.3,0,0,1-1-1,3.39,3.39,0,0,1-.34-1.59v-4.61a3.31,3.31,0,0,1,.34-1.57,2.31,2.31,0,0,1,1-1,3.82,3.82,0,0,1,3.15,0,2.31,2.31,0,0,1,1,1,3.31,3.31,0,0,1,.35,1.57v4.64a3.38,3.38,0,0,1-.35,1.58,2.28,2.28,0,0,1-1,1,3.46,3.46,0,0,1-1.57.34A3.35,3.35,0,0,1,300,145.64Zm2.68-1.38a1.65,1.65,0,0,0,.4-1.19v-4.64a1.61,1.61,0,0,0-.4-1.17,1.47,1.47,0,0,0-1.11-.42,1.44,1.44,0,0,0-1.11.42,1.65,1.65,0,0,0-.39,1.17v4.64a1.69,1.69,0,0,0,.39,1.19,1.68,1.68,0,0,0,2.22,0Z"/><path d="M309.23,135.71h1.41v10.13h-1.41Zm4.62,1.13h-.05a3.44,3.44,0,0,0-2.26.68,2.55,2.55,0,0,0-.9,1.91l-.21-2A4.11,4.11,0,0,1,311.9,136a3.88,3.88,0,0,1,2-.51v1.31Z"/><path d="M318.26,135.71h1.41v10.13h-1.41Zm4.49,3a2.21,2.21,0,0,0-.35-1.38,1.21,1.21,0,0,0-1-.46,1.55,1.55,0,0,0-1.27.51,2.35,2.35,0,0,0-.42,1.53l-.21-1.47a3.07,3.07,0,0,1,1-1.41,2.31,2.31,0,0,1,1.45-.47,2.14,2.14,0,0,1,1.27.35,2,2,0,0,1,.76,1.05,5.13,5.13,0,0,1,.26,1.75v7.16h-1.41Zm4.49,0a2,2,0,0,0-.42-1.38,1.62,1.62,0,0,0-1.27-.46,1.2,1.2,0,0,0-1.05.51,2.73,2.73,0,0,0-.34,1.53l-.4-1.27a2.93,2.93,0,0,1,.87-1.55,2.15,2.15,0,0,1,1.44-.53,2.65,2.65,0,0,1,1.44.35,2.11,2.11,0,0,1,.86,1.05,4.65,4.65,0,0,1,.28,1.75v7.16h-1.41Z"/><g class="cls-3"><path class="cls-1" d="M10.19,109.32c-3.27,4.08-7.68,7.13-9.35,12.27a17.46,17.46,0,0,0,.85,12.84c4.06,8.39,14.45,11,22.57,7.25.44-.21.06-.85-.38-.65-8.71,4.08-19.67.17-22.47-9.42a16.55,16.55,0,0,1,1.48-12.82c2-3.42,5.37-5.86,7.83-8.94.3-.37-.23-.91-.53-.53Z"/></g><g class="cls-3"><path class="cls-1" d="M20.26,134.77l2.53,1.89c1.88,1.42,2.46,1.75,3.37,4.12a6.67,6.67,0,0,1,.38,4.86l-.67,3.68c-.08.48.64.68.73.2.38-2.1.77-4.21,1.13-6.31a6.05,6.05,0,0,0,.15-3.21c-.37-.93-1.44-1.52-2.19-2.09-1.67-1.28-3.37-2.53-5.05-3.79-.38-.29-.76.36-.38.65Z"/></g></g></g></svg>