<svg xmlns="http://www.w3.org/2000/svg" viewBox="0 0 206.84 149.8"><defs><style>.cls-1{fill:#b3b3b3;}.cls-2{fill:none;stroke:#000;stroke-miterlimit:10;}.cls-3{opacity:0.51;}</style></defs><title>Asset 3</title><g id="Layer_2" data-name="Layer 2"><g id="Layer_1-2" data-name="Layer 1"><rect class="cls-1" x="7.18" width="13.5" height="122"/><rect class="cls-2" x="14.89" y="0.5" width="19" height="121" transform="translate(48.78 122) rotate(180)"/><path d="M24.63,26.7h4.25L36,43.48l-.42.53V26.7h3.93V50.12h-4.3l-7.06-16.2.39-.53V50.12H24.63Z"/><path d="M48.92,50.37l-1.45-.75a5.18,5.18,0,0,1-2.21-2.16,7,7,0,0,1-.78-3.4V39.77a7.86,7.86,0,0,1,.75-3.58,5.14,5.14,0,0,1,2.14-2.26,6.84,6.84,0,0,1,3.38-.78,6.15,6.15,0,0,1,3.31.85,5.41,5.41,0,0,1,2.08,2.49,9.8,9.8,0,0,1,.72,4V43.4H47.55v-3h5.36V39.22a2.3,2.3,0,0,0-.6-1.68,2.33,2.33,0,0,0-3.25.08,2.89,2.89,0,0,0-.61,2v4.55A2.58,2.58,0,0,0,49.08,46a2.65,2.65,0,0,0,3.21.22A2.58,2.58,0,0,0,53.14,45l3.53,1.34a5,5,0,0,1-2,3.05,6.4,6.4,0,0,1-3.76,1Z"/><path d="M63.3,49.7a4.37,4.37,0,0,1-1.52-2,8.82,8.82,0,0,1-.52-3.18V39.06a9,9,0,0,1,.52-3.21,4.27,4.27,0,0,1,1.53-2,4.09,4.09,0,0,1,2.4-.69,3.51,3.51,0,0,1,2.23.8,5.41,5.41,0,0,1,1.63,2.24l-.33,2.9A2.6,2.6,0,0,0,69,38a1.66,1.66,0,0,0-.64-.72,2,2,0,0,0-1-.25,1.74,1.74,0,0,0-1.43.63,2.69,2.69,0,0,0-.52,1.77v4.84a2.55,2.55,0,0,0,.52,1.71,1.79,1.79,0,0,0,1.43.61,2,2,0,0,0,1-.24,1.64,1.64,0,0,0,.64-.71,2.48,2.48,0,0,0,.23-1.12l.22,3A4.43,4.43,0,0,1,68,49.63a3.58,3.58,0,0,1-2.3.76A4.1,4.1,0,0,1,63.3,49.7Zm5.94-23h4.19V50.13H69.24Z"/><path d="M82.66,50.37l-1.44-.75A5.26,5.26,0,0,1,79,47.46a7.08,7.08,0,0,1-.77-3.4V39.77A8,8,0,0,1,79,36.19a5.2,5.2,0,0,1,2.14-2.26,6.9,6.9,0,0,1,3.39-.78,6.09,6.09,0,0,1,3.3.85,5.43,5.43,0,0,1,2.09,2.49,9.8,9.8,0,0,1,.71,4V43.4H81.29v-3h5.37V39.22a2.27,2.27,0,0,0-.61-1.68,2.08,2.08,0,0,0-1.55-.62,2.1,2.1,0,0,0-1.69.7,2.89,2.89,0,0,0-.62,2v4.55A2.58,2.58,0,0,0,82.82,46a2.33,2.33,0,0,0,1.77.66A2.36,2.36,0,0,0,86,46.23,2.5,2.5,0,0,0,86.88,45l3.53,1.34a5,5,0,0,1-1.94,3.05,6.42,6.42,0,0,1-3.76,1Z"/><path d="M95.42,33.41h4.21V50.13H95.42Zm8.12,5.73A2.13,2.13,0,0,0,103,37.6a2,2,0,0,0-1.47-.54,1.82,1.82,0,0,0-1.42.54,2.23,2.23,0,0,0-.5,1.56l-.34-2.84A5.71,5.71,0,0,1,100.93,34a3.7,3.7,0,0,1,2.41-.82,3.93,3.93,0,0,1,3.24,1.45,6.41,6.41,0,0,1,1.15,4.08V50.13h-4.19Z"/><path d="M123.84,44.73a1.91,1.91,0,0,0,.48,1.41,1.84,1.84,0,0,0,1.42.48,1.77,1.77,0,0,0,1.39-.5,2.07,2.07,0,0,0,.48-1.47l.22,2.63a5,5,0,0,1-1.34,2.26,3.2,3.2,0,0,1-2.25.83A4.17,4.17,0,0,1,120.83,49a6.39,6.39,0,0,1-1.17-4.15V33.41h4.18Zm-3.4-18.59h4.18v4.17h-4.18Zm6.25,0h4.19v4.17h-4.19Zm.92,7.27h4.15V50.13h-4.15Z"/><path d="M135.55,33.41h4l4.38,14.51-2.37,3.82Zm13.6,0-6,20.64a4.5,4.5,0,0,1-.94,1.75,3.52,3.52,0,0,1-1.55,1,7.24,7.24,0,0,1-2.28.32h-1.13V53h1.16a2.1,2.1,0,0,0,1.21-.3,1.91,1.91,0,0,0,.64-1.12l4.89-18.15Z"/><path d="M156.61,50.37l-1.44-.75A5.26,5.26,0,0,1,153,47.46a7.08,7.08,0,0,1-.77-3.4V39.77a8,8,0,0,1,.74-3.58,5.22,5.22,0,0,1,2.15-2.26,6.84,6.84,0,0,1,3.38-.78,6.09,6.09,0,0,1,3.3.85,5.37,5.37,0,0,1,2.09,2.49,9.8,9.8,0,0,1,.72,4V43.4h-9.32v-3h5.37V39.22a2.27,2.27,0,0,0-.61-1.68,2.08,2.08,0,0,0-1.55-.62,2.12,2.12,0,0,0-1.69.7,2.89,2.89,0,0,0-.61,2v4.55a2.62,2.62,0,0,0,.62,1.87,2.34,2.34,0,0,0,1.78.66,2.31,2.31,0,0,0,1.44-.44,2.5,2.5,0,0,0,.84-1.27l3.53,1.34a5,5,0,0,1-1.94,3.05,6.4,6.4,0,0,1-3.76,1Z"/><path d="M26.94,89.28a4.75,4.75,0,0,1-2.09-2,6.66,6.66,0,0,1-.72-3.2V78.58a6.54,6.54,0,0,1,.72-3.17,4.68,4.68,0,0,1,2.09-2,7.25,7.25,0,0,1,3.3-.69,7.26,7.26,0,0,1,3.29.69,4.71,4.71,0,0,1,2.1,2,6.54,6.54,0,0,1,.72,3.17v5.53a6.47,6.47,0,0,1-.72,3.16,4.75,4.75,0,0,1-2.1,2,7.26,7.26,0,0,1-3.29.69A7.25,7.25,0,0,1,26.94,89.28Zm4.72-3.78A2.21,2.21,0,0,0,32.17,84V78.73a2.15,2.15,0,0,0-.51-1.54,2.14,2.14,0,0,0-2.85,0,2.14,2.14,0,0,0-.51,1.53V84a2.27,2.27,0,0,0,.5,1.56,1.84,1.84,0,0,0,1.44.55A1.82,1.82,0,0,0,31.66,85.5Z"/><path d="M45.44,84.43a1.22,1.22,0,0,0,.31.9,1.15,1.15,0,0,0,.88.32h.63v4.08H45.4a4,4,0,0,1-3.06-1.16,4.57,4.57,0,0,1-1.09-3.27v-19h4.19Z"/><path d="M51.29,73h4.22V89.73H51.29Zm8.23,6A2.56,2.56,0,0,0,59,77.25a2,2,0,0,0-1.55-.6A1.82,1.82,0,0,0,56,77.2a2.18,2.18,0,0,0-.5,1.56l-.34-2.89a5.5,5.5,0,0,1,1.67-2.33,3.86,3.86,0,0,1,2.42-.81,4.37,4.37,0,0,1,2.42.65,4.18,4.18,0,0,1,1.52,1.91,7.86,7.86,0,0,1,.53,3V89.73H59.52Zm8.23,0a2.55,2.55,0,0,0-.52-1.73,2.18,2.18,0,0,0-3,0,2.48,2.48,0,0,0-.52,1.69l-.55-3A5.76,5.76,0,0,1,65,73.56a4.15,4.15,0,0,1,2.5-.83,4.25,4.25,0,0,1,2.42.68,4.16,4.16,0,0,1,1.54,2A8.14,8.14,0,0,1,72,78.5V89.73H67.75Z"/><path d="M77.83,88.72A5.39,5.39,0,0,1,76.68,85a5.09,5.09,0,0,1,1.45-3.9,6.16,6.16,0,0,1,4.31-1.33h2.7L85.37,83H82.55a2,2,0,0,0-1.49.49A2,2,0,0,0,80.55,85,1.41,1.41,0,0,0,81,86.15a2.14,2.14,0,0,0,1.4.39,3.58,3.58,0,0,0,2-.43,1.47,1.47,0,0,0,.67-1.31l.3,1.92a3.18,3.18,0,0,1-.62,1.79,3.38,3.38,0,0,1-1.45,1.09,5.09,5.09,0,0,1-2,.37A4.48,4.48,0,0,1,77.83,88.72Zm7.22-10.3A1.72,1.72,0,0,0,84.48,77a2.33,2.33,0,0,0-1.59-.5,2.88,2.88,0,0,0-1.38.34,2.6,2.6,0,0,0-1,.94l-3.27-1.34a4.84,4.84,0,0,1,2-2.75,6.52,6.52,0,0,1,3.7-1,7.3,7.3,0,0,1,3.23.67,4.73,4.73,0,0,1,2,1.93,6.06,6.06,0,0,1,.71,3V89.73H85.05Z"/><path d="M98.36,84.43a1.22,1.22,0,0,0,.31.9,1.15,1.15,0,0,0,.88.32h.63v4.08H98.32a4,4,0,0,1-3.06-1.16,4.57,4.57,0,0,1-1.09-3.27v-19h4.19Z"/><path d="M103.92,73h4.2V89.73h-4.2Z"/><path d="M111.62,73h4L120,87.52l-2.37,3.82Zm13.6,0-6,20.64a4.5,4.5,0,0,1-.94,1.75,3.52,3.52,0,0,1-1.55,1,7.24,7.24,0,0,1-2.28.32h-1.13V92.58h1.16a2.1,2.1,0,0,0,1.21-.3,1.87,1.87,0,0,0,.64-1.11L121.26,73Z"/><path d="M128.4,73h4.2V89.73h-4.2Z"/><path d="M137.55,73h4.22V89.73h-4.22Zm8.24,6a2.51,2.51,0,0,0-.54-1.73,2,2,0,0,0-1.54-.6,1.84,1.84,0,0,0-1.44.55,2.23,2.23,0,0,0-.5,1.56l-.33-2.89a5.42,5.42,0,0,1,1.67-2.33,3.84,3.84,0,0,1,2.42-.81,4.4,4.4,0,0,1,2.42.65,4.18,4.18,0,0,1,1.52,1.91,7.87,7.87,0,0,1,.52,3V89.73h-4.2ZM154,79a2.55,2.55,0,0,0-.52-1.73,2.18,2.18,0,0,0-3,0,2.48,2.48,0,0,0-.53,1.69l-.55-3a5.86,5.86,0,0,1,1.81-2.36,4.13,4.13,0,0,1,2.5-.83,4,4,0,0,1,4,2.65,8.34,8.34,0,0,1,.53,3.12V89.73H154Z"/><path d="M165.32,81.43l.33-1.33a9.74,9.74,0,0,1,.8-2.2c.32-.58.73-1.24,1.24-2,.37-.55.67-1,.88-1.35a6.39,6.39,0,0,0,.52-1.21,4.93,4.93,0,0,0,.21-1.47v-.11a2.19,2.19,0,0,0-.45-1.47,1.63,1.63,0,0,0-1.29-.51,1.38,1.38,0,0,0-1.28.73,5,5,0,0,0-.43,2.27H161.6a9.64,9.64,0,0,1,.71-3.78,4.56,4.56,0,0,1,1.95-2.23,6.61,6.61,0,0,1,3.28-.73,7.38,7.38,0,0,1,3.23.65,4.57,4.57,0,0,1,2.06,1.87,5.87,5.87,0,0,1,.71,3v.11a7.65,7.65,0,0,1-.27,2.13,8.16,8.16,0,0,1-.64,1.62c-.26.46-.6,1-1,1.59a17.08,17.08,0,0,0-1.11,1.74,7.91,7.91,0,0,0-.68,1.87,10.56,10.56,0,0,0-.29,2.59h-4.2Zm0,4.1h4.19v4.2h-4.19Z"/><path d="M34.52,131.64h1.4v14.2h-1.4Zm.76,12.89h3.46a1,1,0,0,0,.78-.3,1.25,1.25,0,0,0,.27-.86v-9.26a1.27,1.27,0,0,0-.27-.86,1,1,0,0,0-.78-.3H35.28v-1.31h3.4a2.92,2.92,0,0,1,1.37.3,2.06,2.06,0,0,1,.86.87,3.06,3.06,0,0,1,.29,1.38v9.1a2.93,2.93,0,0,1-.3,1.38,2,2,0,0,1-.86.87,2.92,2.92,0,0,1-1.37.3H35.28Z"/><path d="M46.55,145.28a3,3,0,0,1-.67-2.13,3.68,3.68,0,0,1,.78-2.56,3.05,3.05,0,0,1,2.35-.84h1.8l.14,1H49a1.65,1.65,0,0,0-1.39.6,3,3,0,0,0-.46,1.79,1.92,1.92,0,0,0,.42,1.35,1.64,1.64,0,0,0,1.26.45,1.84,1.84,0,0,0,1.41-.49,2.11,2.11,0,0,0,.47-1.49l.2.84a2.57,2.57,0,0,1-.28,1.21,1.65,1.65,0,0,1-.79.73,3.18,3.18,0,0,1-1.32.24A2.6,2.6,0,0,1,46.55,145.28Zm4.18-6.86a1.68,1.68,0,0,0-.46-1.27A1.74,1.74,0,0,0,49,136.7a1.45,1.45,0,0,0-1.14.45,1.83,1.83,0,0,0-.4,1.27H46.09a2.81,2.81,0,0,1,.77-2.13,3,3,0,0,1,2.18-.76,3.52,3.52,0,0,1,1.62.34,2.33,2.33,0,0,1,1,1,3.16,3.16,0,0,1,.36,1.56v7.42H50.73Z"/><path d="M61.51,135.71H63l-2.82,10.13H58.83L56,135.71h1.44l2,8.11Z"/><path d="M68.23,145.59a2.56,2.56,0,0,1-1-1.15,4.19,4.19,0,0,1-.37-1.82V139.1a4.68,4.68,0,0,1,.36-1.93,2.7,2.7,0,0,1,1-1.22,3,3,0,0,1,1.62-.42,3.28,3.28,0,0,1,1.65.39,2.49,2.49,0,0,1,1,1.12,4.08,4.08,0,0,1,.36,1.79v2.52H67.67V140h3.78v-1.17a2.29,2.29,0,0,0-.43-1.5,1.45,1.45,0,0,0-1.2-.53,1.39,1.39,0,0,0-1.18.56,2.63,2.63,0,0,0-.42,1.6v3.66a2.3,2.3,0,0,0,.44,1.49,1.53,1.53,0,0,0,1.24.53,1.58,1.58,0,0,0,1.17-.42,1.65,1.65,0,0,0,.41-1.19V143h1.41v.06a2.89,2.89,0,0,1-.78,2.16,3.07,3.07,0,0,1-2.21.76A3.25,3.25,0,0,1,68.23,145.59Z"/><path d="M76.84,135.71h4.38V137H76.84Zm1.62,9.5a3,3,0,0,1-.58-2V132.76h1.41v10.46a1.56,1.56,0,0,0,.29,1,1.09,1.09,0,0,0,.87.35h.77v1.31h-1A2.23,2.23,0,0,1,78.46,145.21Z"/><path d="M91.36,135.71h1.41v10.13H91.36Zm4.5,3a2.28,2.28,0,0,0-.35-1.38,1.22,1.22,0,0,0-1.05-.46,1.55,1.55,0,0,0-1.27.51,2.35,2.35,0,0,0-.42,1.53l-.2-1.47a3.06,3.06,0,0,1,1-1.41,2.34,2.34,0,0,1,1.46-.47,2.14,2.14,0,0,1,1.27.35,2.06,2.06,0,0,1,.76,1.05,5.15,5.15,0,0,1,.25,1.75v7.16h-1.4Zm4.49,0a2,2,0,0,0-.42-1.38,1.62,1.62,0,0,0-1.27-.46,1.18,1.18,0,0,0-1,.51,2.72,2.72,0,0,0-.35,1.53l-.4-1.27a2.93,2.93,0,0,1,.87-1.55,2.16,2.16,0,0,1,1.45-.53,2.65,2.65,0,0,1,1.44.35,2.09,2.09,0,0,1,.85,1.05,4.64,4.64,0,0,1,.29,1.75v7.16h-1.41Z"/><path d="M107.91,145.59a2.58,2.58,0,0,1-1.06-1.15,4.19,4.19,0,0,1-.36-1.82V139.1a4.86,4.86,0,0,1,.35-1.93,2.72,2.72,0,0,1,1-1.22,3,3,0,0,1,1.62-.42,3.24,3.24,0,0,1,1.64.39,2.51,2.51,0,0,1,1,1.12,4.23,4.23,0,0,1,.35,1.79v2.52h-5.18V140h3.78v-1.17a2.35,2.35,0,0,0-.43-1.5,1.48,1.48,0,0,0-1.2-.53,1.41,1.41,0,0,0-1.19.56,2.63,2.63,0,0,0-.42,1.6v3.66a2.3,2.3,0,0,0,.44,1.49,1.77,1.77,0,0,0,2.41.11,1.61,1.61,0,0,0,.42-1.19V143h1.4v.06a2.89,2.89,0,0,1-.78,2.16,3.07,3.07,0,0,1-2.21.76A3.21,3.21,0,0,1,107.91,145.59Z"/><path d="M116.51,135.71h4.38V137h-4.38Zm1.62,9.5a3,3,0,0,1-.57-2V132.76H119v10.46a1.5,1.5,0,0,0,.29,1,1.07,1.07,0,0,0,.87.35h.76v1.31h-1A2.23,2.23,0,0,1,118.13,145.21Z"/><path d="M125.33,135.71h1.41v10.13h-1.41Zm4.78,3a2,2,0,0,0-.42-1.38,1.62,1.62,0,0,0-1.27-.46,1.54,1.54,0,0,0-1.26.51,2.35,2.35,0,0,0-.42,1.53l-.21-1.47a3,3,0,0,1,1-1.41,2.31,2.31,0,0,1,1.45-.47,2.34,2.34,0,0,1,1.94.79,3.65,3.65,0,0,1,.64,2.36v7.16h-1.41Z"/><path d="M136.65,132.2h1.41v1.41h-1.41Zm0,3.51h1.41v10.13h-1.41Z"/><path d="M143.19,135.71h1.41v10.13h-1.41Zm4.79,3a2,2,0,0,0-.42-1.38,1.62,1.62,0,0,0-1.27-.46,1.55,1.55,0,0,0-1.27.51,2.35,2.35,0,0,0-.42,1.53l-.2-1.47a3.06,3.06,0,0,1,.95-1.41,2.66,2.66,0,0,1,3.4.32,3.71,3.71,0,0,1,.64,2.36v7.16H148Z"/><path d="M154.52,132.2h1.41v1.41h-1.41Zm0,3.51h1.41v10.13h-1.41Z"/><path d="M167,132.2h1.41v1.41H167Zm0,3.51h1.41v10.13H167Z"/><path d="M173.51,135.71h1.41v10.13h-1.41Zm4.79,3a2,2,0,0,0-.42-1.38,1.62,1.62,0,0,0-1.27-.46,1.55,1.55,0,0,0-1.27.51,2.35,2.35,0,0,0-.42,1.53l-.2-1.47a3.06,3.06,0,0,1,.95-1.41,2.66,2.66,0,0,1,3.4.32,3.71,3.71,0,0,1,.64,2.36v7.16H178.3Z"/><path d="M185.6,145.66a2.17,2.17,0,0,1-.86-1,4.12,4.12,0,0,1-.3-1.65v-4.29a4.34,4.34,0,0,1,.3-1.7,2.28,2.28,0,0,1,.86-1.08,2.42,2.42,0,0,1,1.37-.37,2.22,2.22,0,0,1,1.36.47,3.26,3.26,0,0,1,1,1.32l-.2,1.38a2.55,2.55,0,0,0-.2-1,1.35,1.35,0,0,0-.56-.66,1.66,1.66,0,0,0-.89-.23,1.5,1.5,0,0,0-1.21.51,2.21,2.21,0,0,0-.43,1.44V143a2,2,0,0,0,.43,1.34,1.55,1.55,0,0,0,1.21.48,1.66,1.66,0,0,0,.89-.23,1.33,1.33,0,0,0,.56-.65,2.41,2.41,0,0,0,.2-1l.13,1.36a2.62,2.62,0,0,1-.89,1.3,2.23,2.23,0,0,1-1.4.47A2.5,2.5,0,0,1,185.6,145.66Zm3.53-14h1.4v14.2h-1.4Z"/><path d="M195.67,132.2h1.4v1.41h-1.4Zm0,3.51h1.4v10.13h-1.4Z"/><path d="M202.21,135.71h1.4v10.13h-1.4Zm4.61,1.13h0a3.43,3.43,0,0,0-2.26.68,2.55,2.55,0,0,0-.91,1.91l-.2-2a4,4,0,0,1,1.46-1.43,3.94,3.94,0,0,1,2-.51v1.31Z"/><g class="cls-3"><path class="cls-1" d="M10.19,109.32c-3.27,4.08-7.68,7.13-9.35,12.27a17.46,17.46,0,0,0,.85,12.84c4.06,8.39,14.45,11,22.57,7.25.44-.21.06-.85-.38-.65-8.71,4.08-19.67.17-22.47-9.42a16.55,16.55,0,0,1,1.48-12.82c2-3.42,5.37-5.86,7.83-8.94.3-.37-.23-.91-.53-.53Z"/></g><g class="cls-3"><path class="cls-1" d="M20.26,134.77l2.53,1.89c1.88,1.42,2.46,1.75,3.37,4.12a6.67,6.67,0,0,1,.38,4.86l-.67,3.68c-.08.48.64.68.73.2.38-2.1.77-4.21,1.13-6.31a6.05,6.05,0,0,0,.15-3.21c-.37-.93-1.44-1.52-2.19-2.09-1.67-1.28-3.37-2.53-5.05-3.79-.38-.29-.76.36-.38.65Z"/></g></g></g></svg>