<svg xmlns="http://www.w3.org/2000/svg" viewBox="0 0 236.64 190.82"><defs><style>.cls-1{fill:#e6e6e6;}</style></defs><title>Asset 5</title><g id="Layer_2" data-name="Layer 2"><g id="Layer_1-2" data-name="Layer 1"><rect class="cls-1" x="197.36" width="39.27" height="156"/><path d="M39.08,99.77H43.8L53.44,127l-.75.83v-28H58v37.86H53.23l-9.56-26,.76-.86v26.84H39.08Z"/><path d="M74.7,99.77h5.73v37.89H74.7Zm2.73,0H91.27v5.5H77.43Zm0,16.34H90v5.47H77.43Zm0,16H91.27v5.5H77.43Z"/><path d="M117.09,99.77h4.32l4.41,27.78,2.6-27.78h5.76l-5,37.89h-5.81l-3.93-25.12-4.23,25.12h-5.81l-5.05-37.89h5.76l2.6,27.78Z"/><path d="M151.93,137a7.32,7.32,0,0,1-3.2-3.1,10.12,10.12,0,0,1-1.09-4.95v-2l5.69,0v1.88a3.33,3.33,0,0,0,3.67,3.67,3.47,3.47,0,0,0,2.62-.95,3.68,3.68,0,0,0,.92-2.7v-3.31a3.42,3.42,0,0,0-.62-2.08,5.45,5.45,0,0,0-1.6-1.45c-.66-.39-1.55-.85-2.68-1.39l-.15-.07-.16-.06-.34-.16a25.88,25.88,0,0,1-3.75-2.19,8.86,8.86,0,0,1-2.54-3,9.6,9.6,0,0,1-1-4.69v-2.06a10.34,10.34,0,0,1,1.08-4.9,7.08,7.08,0,0,1,3.17-3.07,11.06,11.06,0,0,1,5-1,10.58,10.58,0,0,1,4.92,1.05,7.07,7.07,0,0,1,3.09,3.1,11,11,0,0,1,1.08,4.94v2.06l-5.7,0v-2a3.89,3.89,0,0,0-.89-2.75,3.23,3.23,0,0,0-2.5-.95,3.63,3.63,0,0,0-2.66.9,3.32,3.32,0,0,0-.91,2.48v2.45a3.65,3.65,0,0,0,.61,2.14,5,5,0,0,0,1.55,1.45c.63.37,1.49.82,2.58,1.34l.46.22.45.25.18.06a.85.85,0,0,1,.19.1,25.84,25.84,0,0,1,3.57,2,8.06,8.06,0,0,1,2.32,2.72,9.38,9.38,0,0,1,1,4.52v3.31a10.59,10.59,0,0,1-1.08,5A7.12,7.12,0,0,1,162,137a10.89,10.89,0,0,1-5,1.06A11.1,11.1,0,0,1,151.93,137Z"/><path d="M216,53V189.82H1V53H216m1-1H0V190.82H217V52Z"/></g></g></svg>