<svg xmlns="http://www.w3.org/2000/svg" viewBox="0 0 35.05 32.13"><defs><style>.cls-1{fill:#e6e6e6;}</style></defs><title>Asset 4</title><g id="Layer_2" data-name="Layer 2"><g id="Layer_1-2" data-name="Layer 1"><circle class="cls-1" cx="20.55" cy="14.5" r="14.5"/><path d="M21.61,6.56l.57,0a6.79,6.79,0,0,1,3.13,1,3.56,3.56,0,0,0,3.77.31l-.39.62-.54.87-.92,1.49,1.71-.36.65-.13a4.32,4.32,0,0,1-.42.35A2.75,2.75,0,0,0,28,13a22.36,22.36,0,0,1-3.49,10.79c-3,4.62-8.91,7.6-14.94,7.6a16.53,16.53,0,0,1-7.06-1.52A11.35,11.35,0,0,0,9.7,26.74l1.14-1.13-1.6-.15c-2.55-.24-4-1.14-4.74-2.94l1.19-.06,2.74-.14L6,21.05c-2.34-1.23-4-2.57-4.47-4.89l1.61.3,2.39.44L3.81,15.19c-2.13-2.12-2.78-4.34-2-6.77.37.29.73.59,1.09.89,1.42,1.15,2.88,2.34,4.44,3.37A11.91,11.91,0,0,0,14,14.77a10.8,10.8,0,0,0,1.5-.1l.7-.08-.05-.71c0-.26,0-.5-.06-.75a12.5,12.5,0,0,1-.07-1.33c.09-3.18,2.27-5.24,5.56-5.24m0-.75a5.91,5.91,0,0,0-6.31,6,20.73,20.73,0,0,0,.14,2.15A11.36,11.36,0,0,1,14,14a11.23,11.23,0,0,1-6.26-2C5.58,10.6,3.59,8.84,1.51,7.21c-1.47,3.16-.78,6,1.77,8.51L.66,15.23c.17,3.28,2.22,5,5,6.48l-2.15.11c.73,3,2.79,4.11,5.67,4.39C6.57,28.77,3.5,29.16,0,29.27c.41.28.52.37.65.45a16.88,16.88,0,0,0,8.9,2.41c6,0,12.22-2.86,15.57-7.93a23.31,23.31,0,0,0,3.6-11.15,2,2,0,0,1,.88-1.75,17.82,17.82,0,0,0,2.15-2.18l-3,.62,1.92-3.08-.31-.23c-.52.24-1,.46-1.57.71a3.26,3.26,0,0,1-1.39.36,3.15,3.15,0,0,1-1.73-.59,7.47,7.47,0,0,0-3.47-1.07l-.63,0Z"/></g></g></svg>