<svg xmlns="http://www.w3.org/2000/svg" viewBox="0 0 32.23 29.5"><defs><style>.cls-1{fill:#e6e6e6;}</style></defs><title>Asset 1</title><g id="Layer_2" data-name="Layer 2"><g id="Layer_1-2" data-name="Layer 1"><circle class="cls-1" cx="17.29" cy="14.5" r="14.5"/><path d="M9.36,8.22h18a3.91,3.91,0,0,1,4.14,4.08c0,4,0,8.17,0,12.28a3.94,3.94,0,0,1-4,4.12q-5.21,0-10.41,0c-3.93,0-8,0-12.14,0a3.86,3.86,0,0,1-4.09-4C.73,20.55.73,16.39.8,12.3A3.86,3.86,0,0,1,5,8.24l4.38,0m1.88,15.9,1.1-.58,4.1-2.16,4.25-2.25L22,18.47l-1.25-.66-8.36-4.44-1.1-.58V24.12M9.36,7.47,5,7.49a4.6,4.6,0,0,0-4.92,4.8q-.11,6.2,0,12.39a4.62,4.62,0,0,0,4.84,4.78q6.06,0,12.14,0,5.2,0,10.41,0a4.67,4.67,0,0,0,4.77-4.87q0-6.13,0-12.28a4.65,4.65,0,0,0-4.89-4.83H16.09l-6.73,0ZM12,22.87V14l8.35,4.43L12,22.87Z"/></g></g></svg>